<svg width="18" height="28" viewBox="0 0 18 28" fill="none" xmlns="http://www.w3.org/2000/svg">
<rect x="7" y="18" width="3" height="10" fill="#2A2900"/>
<rect width="9" height="2" transform="matrix(1 0 0 -1 8 18)" fill="#2A2900"/>
<rect width="16" height="2" transform="matrix(1 0 0 -1 1 2)" fill="#2A2900"/>
<rect width="1" height="2" transform="matrix(1 0 0 -1 1 18)" fill="#4D4B00"/>
<rect width="6" height="3" transform="matrix(1 0 0 -1 2 18)" fill="#4D4B00"/>
<rect width="2" height="15" transform="matrix(1 0 0 -1 16 17)" fill="#2A2900"/>
<rect width="2" height="5" transform="matrix(1 0 0 -1 0 6)" fill="#2A2900"/>
<rect width="2" height="10" transform="matrix(1 0 0 -1 0 16)" fill="#464500"/>
<rect width="14" height="14" transform="matrix(1 0 0 -1 2 16)" fill="#FFD43E"/>
<rect width="1" height="11" transform="matrix(1 0 0 -1 2 16)" fill="#FFE071"/>
<rect width="7" height="1" transform="matrix(1 0 0 -1 3 16)" fill="#FFE071"/>
<rect width="5" height="1" transform="matrix(1 0 0 -1 10 16)" fill="#FFE071"/>
<rect width="1" height="4" transform="matrix(1 0 0 -1 3 15)" fill="#FFDB5B"/>
<rect width="1" height="1" transform="matrix(1 0 0 -1 4 14)" fill="#FFDB5B"/>
<rect width="1" height="1" transform="matrix(1 0 0 -1 5 15)" fill="#FFDB5B"/>
<rect width="1" height="1" transform="matrix(1 0 0 -1 4 15)" fill="#FFDB5B"/>
<rect x="7" y="18" width="1" height="6" fill="#4C4B00"/>
<rect width="1" height="1" transform="matrix(1 0 0 -1 2 3)" fill="#2A2900"/>
<rect width="1" height="1" transform="matrix(1 0 0 -1 2 16)" fill="#4D4B00"/>
<rect width="1" height="1" transform="matrix(1 0 0 -1 17 2)" fill="#2A2900"/>
<rect width="1" height="1" transform="matrix(1 0 0 -1 15 3)" fill="#2A2900"/>
<rect width="1" height="1" transform="matrix(1 0 0 -1 15 16)" fill="#2A2900"/>
<rect width="1" height="1" transform="matrix(1 0 0 -1 0 17)" fill="#4D4B00"/>
<rect x="5" y="8" width="2" height="2" fill="#FF8B21"/>
<rect x="8" y="8" width="2" height="2" fill="#FF8B21"/>
<rect x="11" y="8" width="2" height="2" fill="#FF8B21"/>
</svg>
