<svg width="28" height="28" viewBox="0 0 28 28" fill="none" xmlns="http://www.w3.org/2000/svg">
<rect x="12" y="18" width="3" height="10" fill="#2A2900"/>
<rect x="8" width="19" height="2" fill="#2A2900"/>
<rect x="1" y="16" width="26" height="2" fill="#2A2900"/>
<rect x="1" width="1" height="2" fill="#4D4B00"/>
<rect x="2" width="6" height="3" fill="#4D4B00"/>
<rect x="26" y="1" width="2" height="15" fill="#2A2900"/>
<rect y="12" width="2" height="5" fill="#2A2900"/>
<rect y="2" width="2" height="10" fill="#464500"/>
<rect x="2" y="2" width="24" height="14" fill="#FFD43E"/>
<rect x="7" y="8" width="10" height="2" fill="#FF8C21"/>
<rect x="17" y="5" width="1" height="8" fill="#FF8C21"/>
<rect x="18" y="6" width="1" height="6" fill="#FF8C21"/>
<rect x="19" y="7" width="1" height="4" fill="#FF8C21"/>
<rect x="20" y="8" width="1" height="2" fill="#FF8C21"/>
<rect x="2" y="2" width="1" height="11" fill="#FFE071"/>
<rect x="3" y="2" width="7" height="1" fill="#FFE071"/>
<rect x="10" y="2" width="10" height="1" fill="#FFE071"/>
<rect x="3" y="3" width="1" height="4" fill="#FFDB5B"/>
<rect x="4" y="4" width="1" height="1" fill="#FFDB5B"/>
<rect x="5" y="3" width="1" height="1" fill="#FFDB5B"/>
<rect x="4" y="3" width="1" height="1" fill="#FFDB5B"/>
<rect x="12" y="18" width="1" height="6" fill="#4C4B00"/>
<rect x="2" y="15" width="1" height="1" fill="#2A2900"/>
<rect x="2" y="2" width="1" height="1" fill="#4D4B00"/>
<rect x="25" y="2" width="1" height="1" fill="#2A2900"/>
<rect x="25" y="15" width="1" height="1" fill="#2A2900"/>
<rect y="1" width="1" height="1" fill="#4D4B00"/>
</svg>
