<svg width="28" height="28" viewBox="0 0 28 28" fill="none" xmlns="http://www.w3.org/2000/svg">
<rect x="2" y="2" width="24" height="14" fill="#FFD43E"/>
<path fill-rule="evenodd" clip-rule="evenodd" d="M17 5H18V6H19V7H20V8H21V10H20V11H19V12H18V13H17V10H7V8H17V5Z" fill="#FF8C21"/>
<path fill-rule="evenodd" clip-rule="evenodd" d="M2 2H3H10H20V3H10H3V13H2V2Z" fill="#FFE071"/>
<rect x="12" y="18" width="1" height="6" fill="#4C4B00"/>
<path fill-rule="evenodd" clip-rule="evenodd" d="M8 0H27V1H28V2V15V16V17H27V18H15V28H12V18H1V17H0V16V12H2V15H3V16H25V15H26V3H25V2H8V0Z" fill="#2A2900"/>
<path fill-rule="evenodd" clip-rule="evenodd" d="M2 0H1V1H0V2V12H2V2H8V0H2Z" fill="#4D4B00"/>
<path fill-rule="evenodd" clip-rule="evenodd" d="M4 3H3V7H4V5H5V4H6V3H5H4Z" fill="#FFDB5B"/>
</svg>
