<svg width="18" height="28" viewBox="0 0 18 28" fill="none" xmlns="http://www.w3.org/2000/svg">
<rect width="14" height="14" transform="matrix(1 0 0 -1 2 16)" fill="#FFD43E"/>
<path fill-rule="evenodd" clip-rule="evenodd" d="M3 2H15V3H16V15H15V16H8V18H7V28H10V18H17V17H18V2V1H17V0H1V1H0V6H2V3H3V2Z" fill="#2A2900"/>
<path fill-rule="evenodd" clip-rule="evenodd" d="M15 2H3V3H2V15H3V3H15V2Z" fill="#FFE071"/>
<path fill-rule="evenodd" clip-rule="evenodd" d="M4 3H3V7H4V5H5V4H6V3H5H4Z" fill="#FFDB5B"/>
<rect width="1" height="1" transform="matrix(1 0 0 -1 2 16)" fill="#4D4B00"/>
<path fill-rule="evenodd" clip-rule="evenodd" d="M1 18V17H0V16V6H2V16H8V18V24H7V18H2H1Z" fill="#4D4B00"/>
<path fill-rule="evenodd" clip-rule="evenodd" d="M5 8H7V10H5V8ZM8 8H10V10H8V8ZM13 8H11V10H13V8Z" fill="#FF8B21"/>
</svg>
