<svg width="1920" height="180" viewBox="0 0 1920 180" fill="none" xmlns="http://www.w3.org/2000/svg">
<rect x="6" y="158" width="2" height="2" fill="white" fill-opacity="0.5"/>
<rect x="8" y="38" width="2" height="2" fill="white" fill-opacity="0.5"/>
<rect x="53" y="79" width="2" height="2" fill="white" fill-opacity="0.5"/>
<rect x="114" y="102" width="2" height="2" fill="white" fill-opacity="0.5"/>
<rect x="168" y="61" width="2" height="2" fill="white" fill-opacity="0.5"/>
<rect x="186" y="52" width="2" height="2" fill="white" fill-opacity="0.5"/>
<rect x="152" y="21" width="2" height="2" fill="white" fill-opacity="0.5"/>
<rect x="216" y="127" width="2" height="2" fill="white" fill-opacity="0.5"/>
<rect x="248" y="142" width="2" height="2" fill="white" fill-opacity="0.5"/>
<rect x="250" y="95" width="2" height="2" fill="white" fill-opacity="0.5"/>
<rect x="285" y="60" width="2" height="2" fill="white" fill-opacity="0.5"/>
<rect x="317" y="15" width="2" height="2" fill="white" fill-opacity="0.5"/>
<rect x="308" y="124" width="2" height="2" fill="white" fill-opacity="0.5"/>
<rect x="343" y="50" width="2" height="2" fill="white" fill-opacity="0.5"/>
<rect x="402" y="22" width="2" height="2" fill="white" fill-opacity="0.5"/>
<rect x="440" y="58" width="2" height="2" fill="white" fill-opacity="0.5"/>
<rect x="364" y="141" width="2" height="2" fill="white" fill-opacity="0.5"/>
<rect x="320" y="166" width="2" height="2" fill="white" fill-opacity="0.5"/>
<rect x="447" y="155" width="2" height="2" fill="white" fill-opacity="0.5"/>
<rect x="493" y="120" width="2" height="2" fill="white" fill-opacity="0.5"/>
<rect x="528" y="95" width="2" height="2" fill="white" fill-opacity="0.5"/>
<rect x="554" y="18" width="2" height="2" fill="white" fill-opacity="0.5"/>
<rect x="585" y="34" width="2" height="2" fill="white" fill-opacity="0.5"/>
<rect x="603" y="94" width="2" height="2" fill="white" fill-opacity="0.5"/>
<rect x="607" y="156" width="2" height="2" fill="white" fill-opacity="0.5"/>
<rect x="688" y="91" width="2" height="2" fill="white" fill-opacity="0.5"/>
<rect x="765" y="8" width="2" height="2" fill="white" fill-opacity="0.5"/>
<rect x="667" width="2" height="2" fill="white" fill-opacity="0.5"/>
<rect x="770" y="105" width="2" height="2" fill="white" fill-opacity="0.5"/>
<rect x="837" y="145" width="2" height="2" fill="white" fill-opacity="0.5"/>
<rect x="919" y="146" width="2" height="2" fill="white" fill-opacity="0.5"/>
<rect x="927" y="44" width="2" height="2" fill="white" fill-opacity="0.5"/>
<rect x="872" y="82" width="2" height="2" fill="white" fill-opacity="0.5"/>
<rect x="1008" y="72" width="2" height="2" fill="white" fill-opacity="0.5"/>
<rect x="1090" y="86" width="2" height="2" fill="white" fill-opacity="0.5"/>
<rect x="1039" y="165" width="2" height="2" fill="white" fill-opacity="0.5"/>
<rect x="1047" y="149" width="2" height="2" fill="white" fill-opacity="0.5"/>
<rect x="1156" y="126" width="2" height="2" fill="white" fill-opacity="0.5"/>
<rect x="1137" y="51" width="2" height="2" fill="white" fill-opacity="0.5"/>
<rect x="1172" y="25" width="2" height="2" fill="white" fill-opacity="0.5"/>
<rect x="1246" y="25" width="2" height="2" fill="white" fill-opacity="0.5"/>
<rect x="1238" y="127" width="2" height="2" fill="white" fill-opacity="0.5"/>
<rect x="1398" y="67" width="2" height="2" fill="white" fill-opacity="0.5"/>
<rect x="1350" y="106" width="2" height="2" fill="white" fill-opacity="0.5"/>
<rect x="1317" y="161" width="2" height="2" fill="white" fill-opacity="0.5"/>
<rect x="1380" y="143" width="2" height="2" fill="white" fill-opacity="0.5"/>
<rect x="1524" y="145" width="2" height="2" fill="white" fill-opacity="0.5"/>
<rect x="1546" y="63" width="2" height="2" fill="white" fill-opacity="0.5"/>
<rect x="1480" y="38" width="2" height="2" fill="white" fill-opacity="0.5"/>
<rect x="1518" y="116" width="2" height="2" fill="white" fill-opacity="0.5"/>
<rect x="1651" y="60" width="2" height="2" fill="white" fill-opacity="0.5"/>
<rect x="1716" y="12" width="2" height="2" fill="white" fill-opacity="0.5"/>
<rect x="1767" y="44" width="2" height="2" fill="white" fill-opacity="0.5"/>
<rect x="1699" y="89" width="2" height="2" fill="white" fill-opacity="0.5"/>
<rect x="1602" y="134" width="2" height="2" fill="white" fill-opacity="0.5"/>
<rect x="1647" y="175" width="2" height="2" fill="white" fill-opacity="0.5"/>
<rect x="1762" y="157" width="2" height="2" fill="white" fill-opacity="0.5"/>
<rect x="1745" y="117" width="2" height="2" fill="white" fill-opacity="0.5"/>
<rect x="1911" y="111" width="2" height="2" fill="white" fill-opacity="0.5"/>
<rect x="1865" y="69" width="2" height="2" fill="white" fill-opacity="0.5"/>
<rect x="1837" y="60" width="2" height="2" fill="white" fill-opacity="0.5"/>
<rect x="1903" y="31" width="2" height="2" fill="white" fill-opacity="0.5"/>
<rect x="1864" y="9" width="2" height="2" fill="white" fill-opacity="0.5"/>
<rect x="1879" y="156" width="2" height="2" fill="white" fill-opacity="0.5"/>
</svg>
