<svg width="50" height="15" viewBox="0 0 50 15" fill="none" xmlns="http://www.w3.org/2000/svg">
<g filter="url(#filter0_d_596_9912)">
<rect x="1.19043" y="1" width="47.619" height="12" fill="#6C6B21"/>
<rect x="0.69043" y="0.5" width="48.619" height="13" stroke="#2A2900"/>
</g>
<rect x="1.19043" y="1" width="47.619" height="4" fill="#8A8932"/>
<rect width="1.19048" height="1" fill="#5C9AFA"/>
<rect x="48.8096" width="1.19048" height="1" fill="#5C9AFA"/>
<rect y="14" width="1.19048" height="1" fill="#5C9AFA"/>
<rect x="48.8096" y="14" width="1.19048" height="1" fill="#5C9AFA"/>
<rect x="1.19043" y="1" width="1.19048" height="1" fill="#2A2900"/>
<rect x="47.6191" y="1" width="1.19048" height="1" fill="#2A2900"/>
<g filter="url(#filter1_d_596_9912)">
<mask id="path-10-outside-1_596_9912" maskUnits="userSpaceOnUse" x="5.38086" y="4" width="38" height="6" fill="black">
<rect fill="white" x="5.38086" y="4" width="38" height="6"/>
<path d="M6.68298 9V4.6377H10.5004V5.18262H7.77429V6.27393H9.41052V6.81885H7.77429V8.45508H10.5004V9H6.68298ZM14.5902 9V8.45508H15.1351V9H14.5902ZM13.4989 8.45508V7.91016H12.954V7.36377H14.0453V5.18262H12.4091V8.45508H13.4989ZM11.8627 9V8.45508H11.3177V5.18262H11.8627V4.6377H14.5902V5.18262H15.1351V7.91016H14.5902V8.45508H14.0453V9H11.8627ZM16.4974 9V8.45508H15.9525V4.6377H17.0438V8.45508H18.6801V4.6377H19.7699V8.45508H19.225V9H16.4974ZM20.5873 9V8.45508H21.6786V5.18262H20.5873V4.6377H23.8597V5.18262H22.7684V8.45508H23.8597V9H20.5873ZM27.4047 6.27393V5.18262H25.7684V6.27393H27.4047ZM24.6771 9V4.6377H27.9496V5.18262H28.4945V6.27393H27.9496V6.81885H25.7684V9H24.6771ZM32.0394 6.27393V5.18262H30.4032V6.27393H32.0394ZM29.3119 9V4.6377H32.5844V5.18262H33.1293V6.27393H32.5844V6.81885H30.4032V9H29.3119ZM33.9467 9V4.6377H37.764V5.18262H35.038V6.27393H36.6742V6.81885H35.038V8.45508H37.764V9H33.9467ZM40.7626 8.45508V7.91016H41.309V5.72754H40.7626V5.18262H39.6727V8.45508H40.7626ZM38.5814 9V4.6377H41.309V5.18262H41.8539V5.72754H42.3988V7.91016H41.8539V8.45508H41.309V9H38.5814Z"/>
</mask>
<path d="M6.68298 9V4.6377H10.5004V5.18262H7.77429V6.27393H9.41052V6.81885H7.77429V8.45508H10.5004V9H6.68298ZM14.5902 9V8.45508H15.1351V9H14.5902ZM13.4989 8.45508V7.91016H12.954V7.36377H14.0453V5.18262H12.4091V8.45508H13.4989ZM11.8627 9V8.45508H11.3177V5.18262H11.8627V4.6377H14.5902V5.18262H15.1351V7.91016H14.5902V8.45508H14.0453V9H11.8627ZM16.4974 9V8.45508H15.9525V4.6377H17.0438V8.45508H18.6801V4.6377H19.7699V8.45508H19.225V9H16.4974ZM20.5873 9V8.45508H21.6786V5.18262H20.5873V4.6377H23.8597V5.18262H22.7684V8.45508H23.8597V9H20.5873ZM27.4047 6.27393V5.18262H25.7684V6.27393H27.4047ZM24.6771 9V4.6377H27.9496V5.18262H28.4945V6.27393H27.9496V6.81885H25.7684V9H24.6771ZM32.0394 6.27393V5.18262H30.4032V6.27393H32.0394ZM29.3119 9V4.6377H32.5844V5.18262H33.1293V6.27393H32.5844V6.81885H30.4032V9H29.3119ZM33.9467 9V4.6377H37.764V5.18262H35.038V6.27393H36.6742V6.81885H35.038V8.45508H37.764V9H33.9467ZM40.7626 8.45508V7.91016H41.309V5.72754H40.7626V5.18262H39.6727V8.45508H40.7626ZM38.5814 9V4.6377H41.309V5.18262H41.8539V5.72754H42.3988V7.91016H41.8539V8.45508H41.309V9H38.5814Z" fill="white"/>
<path d="M6.68298 9H6.08298V9.6H6.68298V9ZM6.68298 4.6377V4.0377H6.08298V4.6377H6.68298ZM10.5004 4.6377H11.1004V4.0377H10.5004V4.6377ZM10.5004 5.18262V5.78262H11.1004V5.18262H10.5004ZM7.77429 5.18262V4.58262H7.17429V5.18262H7.77429ZM7.77429 6.27393H7.17429V6.87393H7.77429V6.27393ZM9.41052 6.27393H10.0105V5.67393H9.41052V6.27393ZM9.41052 6.81885V7.41885H10.0105V6.81885H9.41052ZM7.77429 6.81885V6.21885H7.17429V6.81885H7.77429ZM7.77429 8.45508H7.17429V9.05508H7.77429V8.45508ZM10.5004 8.45508H11.1004V7.85508H10.5004V8.45508ZM10.5004 9V9.6H11.1004V9H10.5004ZM7.28298 9V4.6377H6.08298V9H7.28298ZM6.68298 5.2377H10.5004V4.0377H6.68298V5.2377ZM9.90037 4.6377V5.18262H11.1004V4.6377H9.90037ZM10.5004 4.58262H7.77429V5.78262H10.5004V4.58262ZM7.17429 5.18262V6.27393H8.37429V5.18262H7.17429ZM7.77429 6.87393H9.41052V5.67393H7.77429V6.87393ZM8.81052 6.27393V6.81885H10.0105V6.27393H8.81052ZM9.41052 6.21885H7.77429V7.41885H9.41052V6.21885ZM7.17429 6.81885V8.45508H8.37429V6.81885H7.17429ZM7.77429 9.05508H10.5004V7.85508H7.77429V9.05508ZM9.90037 8.45508V9H11.1004V8.45508H9.90037ZM10.5004 8.4H6.68298V9.6H10.5004V8.4ZM14.5902 9H13.9902V9.6H14.5902V9ZM14.5902 8.45508V7.85508H13.9902V8.45508H14.5902ZM15.1351 8.45508H15.7351V7.85508H15.1351V8.45508ZM15.1351 9V9.6H15.7351V9H15.1351ZM13.4989 8.45508V9.05508H14.0989V8.45508H13.4989ZM13.4989 7.91016H14.0989V7.31016H13.4989V7.91016ZM12.954 7.91016H12.354V8.51016H12.954V7.91016ZM12.954 7.36377V6.76377H12.354V7.36377H12.954ZM14.0453 7.36377V7.96377H14.6453V7.36377H14.0453ZM14.0453 5.18262H14.6453V4.58262H14.0453V5.18262ZM12.4091 5.18262V4.58262H11.8091V5.18262H12.4091ZM12.4091 8.45508H11.8091V9.05508H12.4091V8.45508ZM11.8627 9H11.2627V9.6H11.8627V9ZM11.8627 8.45508H12.4627V7.85508H11.8627V8.45508ZM11.3177 8.45508H10.7177V9.05508H11.3177V8.45508ZM11.3177 5.18262V4.58262H10.7177V5.18262H11.3177ZM11.8627 5.18262V5.78262H12.4627V5.18262H11.8627ZM11.8627 4.6377V4.0377H11.2627V4.6377H11.8627ZM14.5902 4.6377H15.1902V4.0377H14.5902V4.6377ZM14.5902 5.18262H13.9902V5.78262H14.5902V5.18262ZM15.1351 5.18262H15.7351V4.58262H15.1351V5.18262ZM15.1351 7.91016V8.51016H15.7351V7.91016H15.1351ZM14.5902 7.91016V7.31016H13.9902V7.91016H14.5902ZM14.5902 8.45508V9.05508H15.1902V8.45508H14.5902ZM14.0453 8.45508V7.85508H13.4453V8.45508H14.0453ZM14.0453 9V9.6H14.6453V9H14.0453ZM15.1902 9V8.45508H13.9902V9H15.1902ZM14.5902 9.05508H15.1351V7.85508H14.5902V9.05508ZM14.5351 8.45508V9H15.7351V8.45508H14.5351ZM15.1351 8.4H14.5902V9.6H15.1351V8.4ZM14.0989 8.45508V7.91016H12.8989V8.45508H14.0989ZM13.4989 7.31016H12.954V8.51016H13.4989V7.31016ZM13.554 7.91016V7.36377H12.354V7.91016H13.554ZM12.954 7.96377H14.0453V6.76377H12.954V7.96377ZM14.6453 7.36377V5.18262H13.4453V7.36377H14.6453ZM14.0453 4.58262H12.4091V5.78262H14.0453V4.58262ZM11.8091 5.18262V8.45508H13.0091V5.18262H11.8091ZM12.4091 9.05508H13.4989V7.85508H12.4091V9.05508ZM12.4627 9V8.45508H11.2627V9H12.4627ZM11.8627 7.85508H11.3177V9.05508H11.8627V7.85508ZM11.9177 8.45508V5.18262H10.7177V8.45508H11.9177ZM11.3177 5.78262H11.8627V4.58262H11.3177V5.78262ZM12.4627 5.18262V4.6377H11.2627V5.18262H12.4627ZM11.8627 5.2377H14.5902V4.0377H11.8627V5.2377ZM13.9902 4.6377V5.18262H15.1902V4.6377H13.9902ZM14.5902 5.78262H15.1351V4.58262H14.5902V5.78262ZM14.5351 5.18262V7.91016H15.7351V5.18262H14.5351ZM15.1351 7.31016H14.5902V8.51016H15.1351V7.31016ZM13.9902 7.91016V8.45508H15.1902V7.91016H13.9902ZM14.5902 7.85508H14.0453V9.05508H14.5902V7.85508ZM13.4453 8.45508V9H14.6453V8.45508H13.4453ZM14.0453 8.4H11.8627V9.6H14.0453V8.4ZM16.4974 9H15.8974V9.6H16.4974V9ZM16.4974 8.45508H17.0974V7.85508H16.4974V8.45508ZM15.9525 8.45508H15.3525V9.05508H15.9525V8.45508ZM15.9525 4.6377V4.0377H15.3525V4.6377H15.9525ZM17.0438 4.6377H17.6438V4.0377H17.0438V4.6377ZM17.0438 8.45508H16.4438V9.05508H17.0438V8.45508ZM18.6801 8.45508V9.05508H19.2801V8.45508H18.6801ZM18.6801 4.6377V4.0377H18.0801V4.6377H18.6801ZM19.7699 4.6377H20.3699V4.0377H19.7699V4.6377ZM19.7699 8.45508V9.05508H20.3699V8.45508H19.7699ZM19.225 8.45508V7.85508H18.625V8.45508H19.225ZM19.225 9V9.6H19.825V9H19.225ZM17.0974 9V8.45508H15.8974V9H17.0974ZM16.4974 7.85508H15.9525V9.05508H16.4974V7.85508ZM16.5525 8.45508V4.6377H15.3525V8.45508H16.5525ZM15.9525 5.2377H17.0438V4.0377H15.9525V5.2377ZM16.4438 4.6377V8.45508H17.6438V4.6377H16.4438ZM17.0438 9.05508H18.6801V7.85508H17.0438V9.05508ZM19.2801 8.45508V4.6377H18.0801V8.45508H19.2801ZM18.6801 5.2377H19.7699V4.0377H18.6801V5.2377ZM19.1699 4.6377V8.45508H20.3699V4.6377H19.1699ZM19.7699 7.85508H19.225V9.05508H19.7699V7.85508ZM18.625 8.45508V9H19.825V8.45508H18.625ZM19.225 8.4H16.4974V9.6H19.225V8.4ZM20.5873 9H19.9873V9.6H20.5873V9ZM20.5873 8.45508V7.85508H19.9873V8.45508H20.5873ZM21.6786 8.45508V9.05508H22.2786V8.45508H21.6786ZM21.6786 5.18262H22.2786V4.58262H21.6786V5.18262ZM20.5873 5.18262H19.9873V5.78262H20.5873V5.18262ZM20.5873 4.6377V4.0377H19.9873V4.6377H20.5873ZM23.8597 4.6377H24.4597V4.0377H23.8597V4.6377ZM23.8597 5.18262V5.78262H24.4597V5.18262H23.8597ZM22.7684 5.18262V4.58262H22.1684V5.18262H22.7684ZM22.7684 8.45508H22.1684V9.05508H22.7684V8.45508ZM23.8597 8.45508H24.4597V7.85508H23.8597V8.45508ZM23.8597 9V9.6H24.4597V9H23.8597ZM21.1873 9V8.45508H19.9873V9H21.1873ZM20.5873 9.05508H21.6786V7.85508H20.5873V9.05508ZM22.2786 8.45508V5.18262H21.0786V8.45508H22.2786ZM21.6786 4.58262H20.5873V5.78262H21.6786V4.58262ZM21.1873 5.18262V4.6377H19.9873V5.18262H21.1873ZM20.5873 5.2377H23.8597V4.0377H20.5873V5.2377ZM23.2597 4.6377V5.18262H24.4597V4.6377H23.2597ZM23.8597 4.58262H22.7684V5.78262H23.8597V4.58262ZM22.1684 5.18262V8.45508H23.3684V5.18262H22.1684ZM22.7684 9.05508H23.8597V7.85508H22.7684V9.05508ZM23.2597 8.45508V9H24.4597V8.45508H23.2597ZM23.8597 8.4H20.5873V9.6H23.8597V8.4ZM27.4047 6.27393V6.87393H28.0047V6.27393H27.4047ZM27.4047 5.18262H28.0047V4.58262H27.4047V5.18262ZM25.7684 5.18262V4.58262H25.1684V5.18262H25.7684ZM25.7684 6.27393H25.1684V6.87393H25.7684V6.27393ZM24.6771 9H24.0771V9.6H24.6771V9ZM24.6771 4.6377V4.0377H24.0771V4.6377H24.6771ZM27.9496 4.6377H28.5496V4.0377H27.9496V4.6377ZM27.9496 5.18262H27.3496V5.78262H27.9496V5.18262ZM28.4945 5.18262H29.0945V4.58262H28.4945V5.18262ZM28.4945 6.27393V6.87393H29.0945V6.27393H28.4945ZM27.9496 6.27393V5.67393H27.3496V6.27393H27.9496ZM27.9496 6.81885V7.41885H28.5496V6.81885H27.9496ZM25.7684 6.81885V6.21885H25.1684V6.81885H25.7684ZM25.7684 9V9.6H26.3684V9H25.7684ZM28.0047 6.27393V5.18262H26.8047V6.27393H28.0047ZM27.4047 4.58262H25.7684V5.78262H27.4047V4.58262ZM25.1684 5.18262V6.27393H26.3684V5.18262H25.1684ZM25.7684 6.87393H27.4047V5.67393H25.7684V6.87393ZM25.2771 9V4.6377H24.0771V9H25.2771ZM24.6771 5.2377H27.9496V4.0377H24.6771V5.2377ZM27.3496 4.6377V5.18262H28.5496V4.6377H27.3496ZM27.9496 5.78262H28.4945V4.58262H27.9496V5.78262ZM27.8945 5.18262V6.27393H29.0945V5.18262H27.8945ZM28.4945 5.67393H27.9496V6.87393H28.4945V5.67393ZM27.3496 6.27393V6.81885H28.5496V6.27393H27.3496ZM27.9496 6.21885H25.7684V7.41885H27.9496V6.21885ZM25.1684 6.81885V9H26.3684V6.81885H25.1684ZM25.7684 8.4H24.6771V9.6H25.7684V8.4ZM32.0394 6.27393V6.87393H32.6394V6.27393H32.0394ZM32.0394 5.18262H32.6394V4.58262H32.0394V5.18262ZM30.4032 5.18262V4.58262H29.8032V5.18262H30.4032ZM30.4032 6.27393H29.8032V6.87393H30.4032V6.27393ZM29.3119 9H28.7119V9.6H29.3119V9ZM29.3119 4.6377V4.0377H28.7119V4.6377H29.3119ZM32.5844 4.6377H33.1844V4.0377H32.5844V4.6377ZM32.5844 5.18262H31.9844V5.78262H32.5844V5.18262ZM33.1293 5.18262H33.7293V4.58262H33.1293V5.18262ZM33.1293 6.27393V6.87393H33.7293V6.27393H33.1293ZM32.5844 6.27393V5.67393H31.9844V6.27393H32.5844ZM32.5844 6.81885V7.41885H33.1844V6.81885H32.5844ZM30.4032 6.81885V6.21885H29.8032V6.81885H30.4032ZM30.4032 9V9.6H31.0032V9H30.4032ZM32.6394 6.27393V5.18262H31.4394V6.27393H32.6394ZM32.0394 4.58262H30.4032V5.78262H32.0394V4.58262ZM29.8032 5.18262V6.27393H31.0032V5.18262H29.8032ZM30.4032 6.87393H32.0394V5.67393H30.4032V6.87393ZM29.9119 9V4.6377H28.7119V9H29.9119ZM29.3119 5.2377H32.5844V4.0377H29.3119V5.2377ZM31.9844 4.6377V5.18262H33.1844V4.6377H31.9844ZM32.5844 5.78262H33.1293V4.58262H32.5844V5.78262ZM32.5293 5.18262V6.27393H33.7293V5.18262H32.5293ZM33.1293 5.67393H32.5844V6.87393H33.1293V5.67393ZM31.9844 6.27393V6.81885H33.1844V6.27393H31.9844ZM32.5844 6.21885H30.4032V7.41885H32.5844V6.21885ZM29.8032 6.81885V9H31.0032V6.81885H29.8032ZM30.4032 8.4H29.3119V9.6H30.4032V8.4ZM33.9467 9H33.3467V9.6H33.9467V9ZM33.9467 4.6377V4.0377H33.3467V4.6377H33.9467ZM37.764 4.6377H38.364V4.0377H37.764V4.6377ZM37.764 5.18262V5.78262H38.364V5.18262H37.764ZM35.038 5.18262V4.58262H34.438V5.18262H35.038ZM35.038 6.27393H34.438V6.87393H35.038V6.27393ZM36.6742 6.27393H37.2742V5.67393H36.6742V6.27393ZM36.6742 6.81885V7.41885H37.2742V6.81885H36.6742ZM35.038 6.81885V6.21885H34.438V6.81885H35.038ZM35.038 8.45508H34.438V9.05508H35.038V8.45508ZM37.764 8.45508H38.364V7.85508H37.764V8.45508ZM37.764 9V9.6H38.364V9H37.764ZM34.5467 9V4.6377H33.3467V9H34.5467ZM33.9467 5.2377H37.764V4.0377H33.9467V5.2377ZM37.164 4.6377V5.18262H38.364V4.6377H37.164ZM37.764 4.58262H35.038V5.78262H37.764V4.58262ZM34.438 5.18262V6.27393H35.638V5.18262H34.438ZM35.038 6.87393H36.6742V5.67393H35.038V6.87393ZM36.0742 6.27393V6.81885H37.2742V6.27393H36.0742ZM36.6742 6.21885H35.038V7.41885H36.6742V6.21885ZM34.438 6.81885V8.45508H35.638V6.81885H34.438ZM35.038 9.05508H37.764V7.85508H35.038V9.05508ZM37.164 8.45508V9H38.364V8.45508H37.164ZM37.764 8.4H33.9467V9.6H37.764V8.4ZM40.7626 8.45508V9.05508H41.3626V8.45508H40.7626ZM40.7626 7.91016V7.31016H40.1626V7.91016H40.7626ZM41.309 7.91016V8.51016H41.909V7.91016H41.309ZM41.309 5.72754H41.909V5.12754H41.309V5.72754ZM40.7626 5.72754H40.1626V6.32754H40.7626V5.72754ZM40.7626 5.18262H41.3626V4.58262H40.7626V5.18262ZM39.6727 5.18262V4.58262H39.0727V5.18262H39.6727ZM39.6727 8.45508H39.0727V9.05508H39.6727V8.45508ZM38.5814 9H37.9814V9.6H38.5814V9ZM38.5814 4.6377V4.0377H37.9814V4.6377H38.5814ZM41.309 4.6377H41.909V4.0377H41.309V4.6377ZM41.309 5.18262H40.709V5.78262H41.309V5.18262ZM41.8539 5.18262H42.4539V4.58262H41.8539V5.18262ZM41.8539 5.72754H41.2539V6.32754H41.8539V5.72754ZM42.3988 5.72754H42.9988V5.12754H42.3988V5.72754ZM42.3988 7.91016V8.51016H42.9988V7.91016H42.3988ZM41.8539 7.91016V7.31016H41.2539V7.91016H41.8539ZM41.8539 8.45508V9.05508H42.4539V8.45508H41.8539ZM41.309 8.45508V7.85508H40.709V8.45508H41.309ZM41.309 9V9.6H41.909V9H41.309ZM41.3626 8.45508V7.91016H40.1626V8.45508H41.3626ZM40.7626 8.51016H41.309V7.31016H40.7626V8.51016ZM41.909 7.91016V5.72754H40.709V7.91016H41.909ZM41.309 5.12754H40.7626V6.32754H41.309V5.12754ZM41.3626 5.72754V5.18262H40.1626V5.72754H41.3626ZM40.7626 4.58262H39.6727V5.78262H40.7626V4.58262ZM39.0727 5.18262V8.45508H40.2727V5.18262H39.0727ZM39.6727 9.05508H40.7626V7.85508H39.6727V9.05508ZM39.1814 9V4.6377H37.9814V9H39.1814ZM38.5814 5.2377H41.309V4.0377H38.5814V5.2377ZM40.709 4.6377V5.18262H41.909V4.6377H40.709ZM41.309 5.78262H41.8539V4.58262H41.309V5.78262ZM41.2539 5.18262V5.72754H42.4539V5.18262H41.2539ZM41.8539 6.32754H42.3988V5.12754H41.8539V6.32754ZM41.7988 5.72754V7.91016H42.9988V5.72754H41.7988ZM42.3988 7.31016H41.8539V8.51016H42.3988V7.31016ZM41.2539 7.91016V8.45508H42.4539V7.91016H41.2539ZM41.8539 7.85508H41.309V9.05508H41.8539V7.85508ZM40.709 8.45508V9H41.909V8.45508H40.709ZM41.309 8.4H38.5814V9.6H41.309V8.4Z" fill="#2A2900" mask="url(#path-10-outside-1_596_9912)"/>
</g>
<defs>
<filter id="filter0_d_596_9912" x="0.19043" y="0" width="49.619" height="15" filterUnits="userSpaceOnUse" color-interpolation-filters="sRGB">
<feFlood flood-opacity="0" result="BackgroundImageFix"/>
<feColorMatrix in="SourceAlpha" type="matrix" values="0 0 0 0 0 0 0 0 0 0 0 0 0 0 0 0 0 0 127 0" result="hardAlpha"/>
<feOffset dy="1"/>
<feComposite in2="hardAlpha" operator="out"/>
<feColorMatrix type="matrix" values="0 0 0 0 0.164706 0 0 0 0 0.160784 0 0 0 0 0 0 0 0 1 0"/>
<feBlend mode="normal" in2="BackgroundImageFix" result="effect1_dropShadow_596_9912"/>
<feBlend mode="normal" in="SourceGraphic" in2="effect1_dropShadow_596_9912" result="shape"/>
</filter>
<filter id="filter1_d_596_9912" x="6.68298" y="4.6377" width="35.7158" height="4.8623" filterUnits="userSpaceOnUse" color-interpolation-filters="sRGB">
<feFlood flood-opacity="0" result="BackgroundImageFix"/>
<feColorMatrix in="SourceAlpha" type="matrix" values="0 0 0 0 0 0 0 0 0 0 0 0 0 0 0 0 0 0 127 0" result="hardAlpha"/>
<feOffset dy="0.5"/>
<feComposite in2="hardAlpha" operator="out"/>
<feColorMatrix type="matrix" values="0 0 0 0 0.164706 0 0 0 0 0.160784 0 0 0 0 0 0 0 0 1 0"/>
<feBlend mode="normal" in2="BackgroundImageFix" result="effect1_dropShadow_596_9912"/>
<feBlend mode="normal" in="SourceGraphic" in2="effect1_dropShadow_596_9912" result="shape"/>
</filter>
</defs>
</svg>
