<svg width="50" height="15" viewBox="0 0 50 15" fill="none" xmlns="http://www.w3.org/2000/svg">
<path fill-rule="evenodd" clip-rule="evenodd" d="M49 0H1V1H0V14H1V15H49V14H50V1H49V0ZM49 2H48V1H2V2H1V13H49V2Z" fill="#2A2900"/>
<rect x="1" y="2" width="48" height="11" fill="#FFD43E"/>
<path d="M2 1V2H1V5H49V2H48V1H2Z" fill="#FFE380"/>
<g filter="url(#filter0_d_651_2119)">
<mask id="path-4-outside-1_651_2119" maskUnits="userSpaceOnUse" x="18" y="4" width="15" height="6" fill="black">
<rect fill="white" x="18" y="4" width="15" height="6"/>
<path d="M21.6536 8.45508V6.81885H20.0174V8.45508H21.6536ZM21.6536 6.27393V5.18262H20.0174V6.27393H21.6536ZM18.9261 9V4.6377H22.1986V5.18262H22.7435V6.27393H22.1986V6.81885H22.7435V8.45508H22.1986V9H18.9261ZM24.1058 9V8.45508H23.5609V4.6377H24.6522V8.45508H26.2884V4.6377H27.3783V8.45508H26.8333V9H24.1058ZM29.5594 9V7.36377H29.2869V6.81885H28.7406V6.27393H28.1956V4.6377H29.2869V6.27393H29.8319V6.81885H30.3768V6.27393H30.9232V4.6377H32.013V6.27393H31.4681V6.81885H30.9232V7.36377H30.6507V9H29.5594Z"/>
</mask>
<path d="M21.6536 8.45508V6.81885H20.0174V8.45508H21.6536ZM21.6536 6.27393V5.18262H20.0174V6.27393H21.6536ZM18.9261 9V4.6377H22.1986V5.18262H22.7435V6.27393H22.1986V6.81885H22.7435V8.45508H22.1986V9H18.9261ZM24.1058 9V8.45508H23.5609V4.6377H24.6522V8.45508H26.2884V4.6377H27.3783V8.45508H26.8333V9H24.1058ZM29.5594 9V7.36377H29.2869V6.81885H28.7406V6.27393H28.1956V4.6377H29.2869V6.27393H29.8319V6.81885H30.3768V6.27393H30.9232V4.6377H32.013V6.27393H31.4681V6.81885H30.9232V7.36377H30.6507V9H29.5594Z" fill="white"/>
<path d="M21.6536 8.45508V9.05508H22.2536V8.45508H21.6536ZM21.6536 6.81885H22.2536V6.21885H21.6536V6.81885ZM20.0174 6.81885V6.21885H19.4174V6.81885H20.0174ZM20.0174 8.45508H19.4174V9.05508H20.0174V8.45508ZM21.6536 6.27393V6.87393H22.2536V6.27393H21.6536ZM21.6536 5.18262H22.2536V4.58262H21.6536V5.18262ZM20.0174 5.18262V4.58262H19.4174V5.18262H20.0174ZM20.0174 6.27393H19.4174V6.87393H20.0174V6.27393ZM18.9261 9H18.3261V9.6H18.9261V9ZM18.9261 4.6377V4.0377H18.3261V4.6377H18.9261ZM22.1986 4.6377H22.7986V4.0377H22.1986V4.6377ZM22.1986 5.18262H21.5986V5.78262H22.1986V5.18262ZM22.7435 5.18262H23.3435V4.58262H22.7435V5.18262ZM22.7435 6.27393V6.87393H23.3435V6.27393H22.7435ZM22.1986 6.27393V5.67393H21.5986V6.27393H22.1986ZM22.1986 6.81885H21.5986V7.41885H22.1986V6.81885ZM22.7435 6.81885H23.3435V6.21885H22.7435V6.81885ZM22.7435 8.45508V9.05508H23.3435V8.45508H22.7435ZM22.1986 8.45508V7.85508H21.5986V8.45508H22.1986ZM22.1986 9V9.6H22.7986V9H22.1986ZM22.2536 8.45508V6.81885H21.0536V8.45508H22.2536ZM21.6536 6.21885H20.0174V7.41885H21.6536V6.21885ZM19.4174 6.81885V8.45508H20.6174V6.81885H19.4174ZM20.0174 9.05508H21.6536V7.85508H20.0174V9.05508ZM22.2536 6.27393V5.18262H21.0536V6.27393H22.2536ZM21.6536 4.58262H20.0174V5.78262H21.6536V4.58262ZM19.4174 5.18262V6.27393H20.6174V5.18262H19.4174ZM20.0174 6.87393H21.6536V5.67393H20.0174V6.87393ZM19.5261 9V4.6377H18.3261V9H19.5261ZM18.9261 5.2377H22.1986V4.0377H18.9261V5.2377ZM21.5986 4.6377V5.18262H22.7986V4.6377H21.5986ZM22.1986 5.78262H22.7435V4.58262H22.1986V5.78262ZM22.1435 5.18262V6.27393H23.3435V5.18262H22.1435ZM22.7435 5.67393H22.1986V6.87393H22.7435V5.67393ZM21.5986 6.27393V6.81885H22.7986V6.27393H21.5986ZM22.1986 7.41885H22.7435V6.21885H22.1986V7.41885ZM22.1435 6.81885V8.45508H23.3435V6.81885H22.1435ZM22.7435 7.85508H22.1986V9.05508H22.7435V7.85508ZM21.5986 8.45508V9H22.7986V8.45508H21.5986ZM22.1986 8.4H18.9261V9.6H22.1986V8.4ZM24.1058 9H23.5058V9.6H24.1058V9ZM24.1058 8.45508H24.7058V7.85508H24.1058V8.45508ZM23.5609 8.45508H22.9609V9.05508H23.5609V8.45508ZM23.5609 4.6377V4.0377H22.9609V4.6377H23.5609ZM24.6522 4.6377H25.2522V4.0377H24.6522V4.6377ZM24.6522 8.45508H24.0522V9.05508H24.6522V8.45508ZM26.2884 8.45508V9.05508H26.8884V8.45508H26.2884ZM26.2884 4.6377V4.0377H25.6884V4.6377H26.2884ZM27.3783 4.6377H27.9783V4.0377H27.3783V4.6377ZM27.3783 8.45508V9.05508H27.9783V8.45508H27.3783ZM26.8333 8.45508V7.85508H26.2333V8.45508H26.8333ZM26.8333 9V9.6H27.4333V9H26.8333ZM24.7058 9V8.45508H23.5058V9H24.7058ZM24.1058 7.85508H23.5609V9.05508H24.1058V7.85508ZM24.1609 8.45508V4.6377H22.9609V8.45508H24.1609ZM23.5609 5.2377H24.6522V4.0377H23.5609V5.2377ZM24.0522 4.6377V8.45508H25.2522V4.6377H24.0522ZM24.6522 9.05508H26.2884V7.85508H24.6522V9.05508ZM26.8884 8.45508V4.6377H25.6884V8.45508H26.8884ZM26.2884 5.2377H27.3783V4.0377H26.2884V5.2377ZM26.7783 4.6377V8.45508H27.9783V4.6377H26.7783ZM27.3783 7.85508H26.8333V9.05508H27.3783V7.85508ZM26.2333 8.45508V9H27.4333V8.45508H26.2333ZM26.8333 8.4H24.1058V9.6H26.8333V8.4ZM29.5594 9H28.9594V9.6H29.5594V9ZM29.5594 7.36377H30.1594V6.76377H29.5594V7.36377ZM29.2869 7.36377H28.6869V7.96377H29.2869V7.36377ZM29.2869 6.81885H29.8869V6.21885H29.2869V6.81885ZM28.7406 6.81885H28.1406V7.41885H28.7406V6.81885ZM28.7406 6.27393H29.3406V5.67393H28.7406V6.27393ZM28.1956 6.27393H27.5956V6.87393H28.1956V6.27393ZM28.1956 4.6377V4.0377H27.5956V4.6377H28.1956ZM29.2869 4.6377H29.8869V4.0377H29.2869V4.6377ZM29.2869 6.27393H28.6869V6.87393H29.2869V6.27393ZM29.8319 6.27393H30.4319V5.67393H29.8319V6.27393ZM29.8319 6.81885H29.2319V7.41885H29.8319V6.81885ZM30.3768 6.81885V7.41885H30.9768V6.81885H30.3768ZM30.3768 6.27393V5.67393H29.7768V6.27393H30.3768ZM30.9232 6.27393V6.87393H31.5232V6.27393H30.9232ZM30.9232 4.6377V4.0377H30.3232V4.6377H30.9232ZM32.013 4.6377H32.613V4.0377H32.013V4.6377ZM32.013 6.27393V6.87393H32.613V6.27393H32.013ZM31.4681 6.27393V5.67393H30.8681V6.27393H31.4681ZM31.4681 6.81885V7.41885H32.0681V6.81885H31.4681ZM30.9232 6.81885V6.21885H30.3232V6.81885H30.9232ZM30.9232 7.36377V7.96377H31.5232V7.36377H30.9232ZM30.6507 7.36377V6.76377H30.0507V7.36377H30.6507ZM30.6507 9V9.6H31.2507V9H30.6507ZM30.1594 9V7.36377H28.9594V9H30.1594ZM29.5594 6.76377H29.2869V7.96377H29.5594V6.76377ZM29.8869 7.36377V6.81885H28.6869V7.36377H29.8869ZM29.2869 6.21885H28.7406V7.41885H29.2869V6.21885ZM29.3406 6.81885V6.27393H28.1406V6.81885H29.3406ZM28.7406 5.67393H28.1956V6.87393H28.7406V5.67393ZM28.7956 6.27393V4.6377H27.5956V6.27393H28.7956ZM28.1956 5.2377H29.2869V4.0377H28.1956V5.2377ZM28.6869 4.6377V6.27393H29.8869V4.6377H28.6869ZM29.2869 6.87393H29.8319V5.67393H29.2869V6.87393ZM29.2319 6.27393V6.81885H30.4319V6.27393H29.2319ZM29.8319 7.41885H30.3768V6.21885H29.8319V7.41885ZM30.9768 6.81885V6.27393H29.7768V6.81885H30.9768ZM30.3768 6.87393H30.9232V5.67393H30.3768V6.87393ZM31.5232 6.27393V4.6377H30.3232V6.27393H31.5232ZM30.9232 5.2377H32.013V4.0377H30.9232V5.2377ZM31.413 4.6377V6.27393H32.613V4.6377H31.413ZM32.013 5.67393H31.4681V6.87393H32.013V5.67393ZM30.8681 6.27393V6.81885H32.0681V6.27393H30.8681ZM31.4681 6.21885H30.9232V7.41885H31.4681V6.21885ZM30.3232 6.81885V7.36377H31.5232V6.81885H30.3232ZM30.9232 6.76377H30.6507V7.96377H30.9232V6.76377ZM30.0507 7.36377V9H31.2507V7.36377H30.0507ZM30.6507 8.4H29.5594V9.6H30.6507V8.4Z" fill="#2A2900" mask="url(#path-4-outside-1_651_2119)"/>
</g>
<defs>
<filter id="filter0_d_651_2119" x="18.9261" y="4.6377" width="13.0869" height="4.8623" filterUnits="userSpaceOnUse" color-interpolation-filters="sRGB">
<feFlood flood-opacity="0" result="BackgroundImageFix"/>
<feColorMatrix in="SourceAlpha" type="matrix" values="0 0 0 0 0 0 0 0 0 0 0 0 0 0 0 0 0 0 127 0" result="hardAlpha"/>
<feOffset dy="0.5"/>
<feComposite in2="hardAlpha" operator="out"/>
<feColorMatrix type="matrix" values="0 0 0 0 0.164706 0 0 0 0 0.160784 0 0 0 0 0 0 0 0 1 0"/>
<feBlend mode="normal" in2="BackgroundImageFix" result="effect1_dropShadow_651_2119"/>
<feBlend mode="normal" in="SourceGraphic" in2="effect1_dropShadow_651_2119" result="shape"/>
</filter>
</defs>
</svg>
