<svg width="64" height="64" viewBox="0 0 64 64" fill="none" xmlns="http://www.w3.org/2000/svg">
<rect x="13" y="8" width="1" height="1" fill="#A0A0A0"/>
<rect x="13" y="9" width="1" height="1" fill="#A0A0A0"/>
<rect x="26" y="9" width="1" height="1" fill="#A0A0A0"/>
<rect x="26" y="10" width="1" height="1" fill="#A0A0A0"/>
<rect x="26" y="11" width="1" height="1" fill="#A0A0A0"/>
<rect x="26" y="12" width="1" height="1" fill="#A0A0A0"/>
<rect x="26" y="13" width="1" height="1" fill="#A0A0A0"/>
<rect x="26" y="14" width="1" height="1" fill="#A0A0A0"/>
<rect x="26" y="15" width="1" height="1" fill="#A0A0A0"/>
<rect x="26" y="16" width="1" height="1" fill="#A0A0A0"/>
<rect x="26" y="17" width="1" height="1" fill="#A0A0A0"/>
<rect x="26" y="18" width="1" height="1" fill="#A0A0A0"/>
<rect x="26" y="19" width="1" height="1" fill="#A0A0A0"/>
<rect x="26" y="20" width="1" height="1" fill="#A0A0A0"/>
<rect x="26" y="21" width="1" height="1" fill="#A0A0A0"/>
<rect x="26" y="22" width="1" height="1" fill="#A0A0A0"/>
<rect x="26" y="23" width="1" height="1" fill="#A0A0A0"/>
<rect x="26" y="24" width="1" height="1" fill="#A0A0A0"/>
<rect x="14" y="8" width="1" height="1" fill="#A0A0A0"/>
<rect x="14" y="9" width="1" height="1" fill="#A0A0A0"/>
<rect x="27" y="10" width="1" height="1" fill="#A0A0A0"/>
<rect x="27" y="11" width="1" height="1" fill="#A0A0A0"/>
<rect x="27" y="12" width="1" height="1" fill="#A0A0A0"/>
<rect x="27" y="13" width="1" height="1" fill="#A0A0A0"/>
<rect x="27" y="14" width="1" height="1" fill="#A0A0A0"/>
<rect x="27" y="15" width="1" height="1" fill="#A0A0A0"/>
<rect x="27" y="16" width="1" height="1" fill="#A0A0A0"/>
<rect x="27" y="17" width="1" height="1" fill="#A0A0A0"/>
<rect x="27" y="18" width="1" height="1" fill="#A0A0A0"/>
<rect x="27" y="19" width="1" height="1" fill="#A0A0A0"/>
<rect x="27" y="20" width="1" height="1" fill="#A0A0A0"/>
<rect x="27" y="21" width="1" height="1" fill="#A0A0A0"/>
<rect x="27" y="22" width="1" height="1" fill="#A0A0A0"/>
<rect x="27" y="23" width="1" height="1" fill="#A0A0A0"/>
<rect x="27" y="24" width="1" height="1" fill="#A0A0A0"/>
<rect x="27" y="25" width="1" height="1" fill="#A0A0A0"/>
<rect x="26" y="25" width="1" height="1" fill="#A0A0A0"/>
<rect x="27" y="26" width="1" height="1" fill="#A0A0A0"/>
<rect x="26" y="26" width="1" height="1" fill="#A0A0A0"/>
<rect x="27" y="27" width="1" height="1" fill="#A0A0A0"/>
<rect x="26" y="27" width="1" height="1" fill="#A0A0A0"/>
<rect x="15" y="8" width="1" height="1" fill="#A0A0A0"/>
<rect x="15" y="9" width="1" height="1" fill="#A0A0A0"/>
<rect x="3" y="25" width="1" height="1" fill="#A0A0A0"/>
<rect x="27" y="28" width="1" height="1" fill="#A0A0A0"/>
<rect x="27" y="29" width="1" height="1" fill="#A0A0A0"/>
<rect x="26" y="28" width="1" height="1" fill="#A0A0A0"/>
<rect x="27" y="30" width="1" height="1" fill="#A0A0A0"/>
<rect x="26" y="29" width="1" height="1" fill="#A0A0A0"/>
<rect x="27" y="31" width="1" height="1" fill="#A0A0A0"/>
<rect x="26" y="30" width="1" height="1" fill="#A0A0A0"/>
<rect x="26" y="31" width="1" height="1" fill="#A0A0A0"/>
<rect x="28" y="19" width="1" height="1" fill="#A0A0A0"/>
<rect x="28" y="20" width="1" height="1" fill="#A0A0A0"/>
<rect x="28" y="21" width="1" height="1" fill="#A0A0A0"/>
<rect x="28" y="22" width="1" height="1" fill="#A0A0A0"/>
<rect x="28" y="23" width="1" height="1" fill="#A0A0A0"/>
<rect x="16" y="8" width="1" height="1" fill="#A0A0A0"/>
<rect x="16" y="9" width="1" height="1" fill="#A0A0A0"/>
<rect x="47" y="31" width="1" height="1" fill="#5F5F5F"/>
<rect x="3" y="18" width="1" height="1" fill="#A0A0A0"/>
<rect x="3" y="19" width="1" height="1" fill="#A0A0A0"/>
<rect x="3" y="20" width="1" height="1" fill="#A0A0A0"/>
<rect x="3" y="23" width="1" height="1" fill="#A0A0A0"/>
<rect x="3" y="24" width="1" height="1" fill="#A0A0A0"/>
<rect x="4" y="25" width="1" height="1" fill="#A0A0A0"/>
<rect x="4" y="26" width="1" height="1" fill="#A0A0A0"/>
<rect x="4" y="27" width="1" height="1" fill="#A0A0A0"/>
<rect x="4" y="10" width="1" height="1" fill="#A0A0A0"/>
<rect x="4" y="28" width="1" height="1" fill="#A0A0A0"/>
<rect x="4" y="29" width="1" height="1" fill="#A0A0A0"/>
<rect x="4" y="30" width="1" height="1" fill="#A0A0A0"/>
<rect x="4" y="31" width="1" height="1" fill="#A0A0A0"/>
<rect x="17" y="8" width="1" height="1" fill="#A0A0A0"/>
<rect x="17" y="9" width="1" height="1" fill="#A0A0A0"/>
<rect x="4" y="11" width="1" height="1" fill="#A0A0A0"/>
<rect x="4" y="12" width="1" height="1" fill="#A0A0A0"/>
<rect x="4" y="13" width="1" height="1" fill="#A0A0A0"/>
<rect x="4" y="14" width="1" height="1" fill="#A0A0A0"/>
<rect x="4" y="15" width="1" height="1" fill="#A0A0A0"/>
<rect x="36" y="15" width="1" height="1" fill="#5F5F5F"/>
<rect x="4" y="16" width="1" height="1" fill="#A0A0A0"/>
<rect x="36" y="16" width="1" height="1" fill="#5F5F5F"/>
<rect x="4" y="17" width="1" height="1" fill="#A0A0A0"/>
<rect x="36" y="17" width="1" height="1" fill="#5F5F5F"/>
<rect x="4" y="18" width="1" height="1" fill="#A0A0A0"/>
<rect x="4" y="19" width="1" height="1" fill="#A0A0A0"/>
<rect x="4" y="20" width="1" height="1" fill="#A0A0A0"/>
<rect x="4" y="21" width="1" height="1" fill="#A0A0A0"/>
<rect x="4" y="22" width="1" height="1" fill="#A0A0A0"/>
<rect x="4" y="23" width="1" height="1" fill="#A0A0A0"/>
<rect x="4" y="24" width="1" height="1" fill="#A0A0A0"/>
<rect x="5" y="25" width="1" height="1" fill="#A0A0A0"/>
<rect x="5" y="26" width="1" height="1" fill="#A0A0A0"/>
<rect x="5" y="27" width="1" height="1" fill="#A0A0A0"/>
<rect x="48" y="31" width="1" height="1" fill="#5F5F5F"/>
<rect x="5" y="9" width="1" height="1" fill="#A0A0A0"/>
<rect x="5" y="10" width="1" height="1" fill="#A0A0A0"/>
<rect x="18" y="8" width="1" height="1" fill="#A0A0A0"/>
<rect x="18" y="9" width="1" height="1" fill="#A0A0A0"/>
<rect x="5" y="11" width="1" height="1" fill="#A0A0A0"/>
<rect x="5" y="12" width="1" height="1" fill="#A0A0A0"/>
<rect x="5" y="13" width="1" height="1" fill="#A0A0A0"/>
<rect x="5" y="14" width="1" height="1" fill="#A0A0A0"/>
<rect x="37" y="14" width="1" height="1" fill="#5F5F5F"/>
<rect x="5" y="15" width="1" height="1" fill="#A0A0A0"/>
<rect x="37" y="15" width="1" height="1" fill="#5F5F5F"/>
<rect x="5" y="16" width="1" height="1" fill="#A0A0A0"/>
<rect x="5" y="28" width="1" height="1" fill="#A0A0A0"/>
<rect x="5" y="17" width="1" height="1" fill="#A0A0A0"/>
<rect x="5" y="29" width="1" height="1" fill="#A0A0A0"/>
<rect x="5" y="18" width="1" height="1" fill="#A0A0A0"/>
<rect x="5" y="30" width="1" height="1" fill="#A0A0A0"/>
<rect x="5" y="19" width="1" height="1" fill="#A0A0A0"/>
<rect x="5" y="31" width="1" height="1" fill="#A0A0A0"/>
<rect x="5" y="20" width="1" height="1" fill="#A0A0A0"/>
<rect x="5" y="21" width="1" height="1" fill="#A0A0A0"/>
<rect x="37" y="21" width="1" height="1" fill="#5F5F5F"/>
<rect x="5" y="22" width="1" height="1" fill="#A0A0A0"/>
<rect x="6" y="8" width="1" height="1" fill="#A0A0A0"/>
<rect x="6" y="9" width="1" height="1" fill="#A0A0A0"/>
<rect x="6" y="10" width="1" height="1" fill="#A0A0A0"/>
<rect x="5" y="23" width="1" height="1" fill="#A0A0A0"/>
<rect x="5" y="24" width="1" height="1" fill="#A0A0A0"/>
<rect x="19" y="8" width="1" height="1" fill="#A0A0A0"/>
<rect x="19" y="9" width="1" height="1" fill="#A0A0A0"/>
<rect x="49" y="31" width="1" height="1" fill="#5F5F5F"/>
<rect x="7" y="8" width="1" height="1" fill="#A0A0A0"/>
<rect x="7" y="9" width="1" height="1" fill="#A0A0A0"/>
<rect x="38" y="14" width="1" height="1" fill="#5F5F5F"/>
<rect x="38" y="21" width="1" height="1" fill="#5F5F5F"/>
<rect x="38" y="22" width="1" height="1" fill="#5F5F5F"/>
<rect x="20" y="8" width="1" height="1" fill="#A0A0A0"/>
<rect x="20" y="9" width="1" height="1" fill="#A0A0A0"/>
<rect x="8" y="8" width="1" height="1" fill="#A0A0A0"/>
<rect x="8" y="9" width="1" height="1" fill="#A0A0A0"/>
<rect x="39" y="14" width="1" height="1" fill="#5F5F5F"/>
<rect x="39" y="15" width="1" height="1" fill="#5F5F5F"/>
<rect x="21" y="8" width="1" height="1" fill="#A0A0A0"/>
<rect x="21" y="9" width="1" height="1" fill="#A0A0A0"/>
<rect x="39" y="21" width="1" height="1" fill="#5F5F5F"/>
<rect x="39" y="22" width="1" height="1" fill="#5F5F5F"/>
<rect x="39" y="23" width="1" height="1" fill="#5F5F5F"/>
<rect x="9" y="8" width="1" height="1" fill="#A0A0A0"/>
<rect x="9" y="9" width="1" height="1" fill="#A0A0A0"/>
<rect x="40" y="15" width="1" height="1" fill="#5F5F5F"/>
<rect x="40" y="16" width="1" height="1" fill="#5F5F5F"/>
<rect x="40" y="17" width="1" height="1" fill="#5F5F5F"/>
<rect x="40" y="18" width="1" height="1" fill="#5F5F5F"/>
<rect x="40" y="19" width="1" height="1" fill="#5F5F5F"/>
<rect x="40" y="20" width="1" height="1" fill="#5F5F5F"/>
<rect x="40" y="21" width="1" height="1" fill="#5F5F5F"/>
<rect x="22" y="8" width="1" height="1" fill="#A0A0A0"/>
<rect x="40" y="22" width="1" height="1" fill="#5F5F5F"/>
<rect x="22" y="9" width="1" height="1" fill="#A0A0A0"/>
<rect x="40" y="23" width="1" height="1" fill="#5F5F5F"/>
<rect x="40" y="24" width="1" height="1" fill="#5F5F5F"/>
<rect x="10" y="8" width="1" height="1" fill="#A0A0A0"/>
<rect x="10" y="9" width="1" height="1" fill="#A0A0A0"/>
<rect x="23" y="8" width="1" height="1" fill="#A0A0A0"/>
<rect x="23" y="9" width="1" height="1" fill="#A0A0A0"/>
<rect x="41" y="21" width="1" height="1" fill="#5F5F5F"/>
<rect x="41" y="22" width="1" height="1" fill="#5F5F5F"/>
<rect x="41" y="23" width="1" height="1" fill="#5F5F5F"/>
<rect x="11" y="8" width="1" height="1" fill="#A0A0A0"/>
<rect x="11" y="9" width="1" height="1" fill="#A0A0A0"/>
<rect x="24" y="8" width="1" height="1" fill="#A0A0A0"/>
<rect x="24" y="9" width="1" height="1" fill="#A0A0A0"/>
<rect x="12" y="8" width="1" height="1" fill="#A0A0A0"/>
<rect x="12" y="9" width="1" height="1" fill="#A0A0A0"/>
<rect x="25" y="8" width="1" height="1" fill="#A0A0A0"/>
<rect x="25" y="9" width="1" height="1" fill="#A0A0A0"/>
<rect x="25" y="10" width="1" height="1" fill="#A0A0A0"/>
<rect x="42" y="21" width="1" height="1" fill="#5F5F5F"/>
<rect x="42" y="22" width="1" height="1" fill="#5F5F5F"/>
<rect x="43" y="21" width="1" height="1" fill="#5F5F5F"/>
<rect x="42" y="31" width="1" height="1" fill="#5F5F5F"/>
<rect x="43" y="31" width="1" height="1" fill="#5F5F5F"/>
<rect x="44" y="31" width="1" height="1" fill="#5F5F5F"/>
<rect x="32" y="53" width="1" height="1" fill="#5F5F5F"/>
<rect x="32" y="54" width="1" height="1" fill="#5F5F5F"/>
<rect x="13" y="39" width="1" height="1" fill="#5F5F5F"/>
<rect x="32" y="32" width="1" height="1" fill="#5F5F5F"/>
<rect x="32" y="33" width="1" height="1" fill="#5F5F5F"/>
<rect x="13" y="40" width="1" height="1" fill="#5F5F5F"/>
<rect x="13" y="41" width="1" height="1" fill="#5F5F5F"/>
<rect x="13" y="42" width="1" height="1" fill="#5F5F5F"/>
<rect x="13" y="43" width="1" height="1" fill="#5F5F5F"/>
<rect x="13" y="44" width="1" height="1" fill="#5F5F5F"/>
<rect x="13" y="45" width="1" height="1" fill="#5F5F5F"/>
<rect x="13" y="46" width="1" height="1" fill="#5F5F5F"/>
<rect x="13" y="47" width="1" height="1" fill="#5F5F5F"/>
<rect x="13" y="48" width="1" height="1" fill="#5F5F5F"/>
<rect x="13" y="49" width="1" height="1" fill="#5F5F5F"/>
<rect x="13" y="50" width="1" height="1" fill="#5F5F5F"/>
<rect x="13" y="51" width="1" height="1" fill="#5F5F5F"/>
<rect x="13" y="52" width="1" height="1" fill="#5F5F5F"/>
<rect x="13" y="53" width="1" height="1" fill="#A0A0A0"/>
<rect x="45" y="53" width="1" height="1" fill="#5F5F5F"/>
<rect x="45" y="54" width="1" height="1" fill="#5F5F5F"/>
<rect x="45" y="55" width="1" height="1" fill="#5F5F5F"/>
<rect x="58" y="39" width="1" height="1" fill="#5F5F5F"/>
<rect x="58" y="40" width="1" height="1" fill="#5F5F5F"/>
<rect x="45" y="32" width="1" height="1" fill="#5F5F5F"/>
<rect x="58" y="41" width="1" height="1" fill="#5F5F5F"/>
<rect x="58" y="42" width="1" height="1" fill="#5F5F5F"/>
<rect x="45" y="33" width="1" height="1" fill="#5F5F5F"/>
<rect x="58" y="43" width="1" height="1" fill="#5F5F5F"/>
<rect x="13" y="35" width="1" height="1" fill="#5F5F5F"/>
<rect x="13" y="34" width="1" height="1" fill="#5F5F5F"/>
<rect x="13" y="37" width="1" height="1" fill="#5F5F5F"/>
<rect x="58" y="44" width="1" height="1" fill="#5F5F5F"/>
<rect x="13" y="36" width="1" height="1" fill="#5F5F5F"/>
<rect x="13" y="38" width="1" height="1" fill="#5F5F5F"/>
<rect x="58" y="45" width="1" height="1" fill="#5F5F5F"/>
<rect x="58" y="46" width="1" height="1" fill="#5F5F5F"/>
<rect x="58" y="47" width="1" height="1" fill="#5F5F5F"/>
<rect x="58" y="48" width="1" height="1" fill="#5F5F5F"/>
<rect x="58" y="49" width="1" height="1" fill="#5F5F5F"/>
<rect x="58" y="50" width="1" height="1" fill="#5F5F5F"/>
<rect x="58" y="51" width="1" height="1" fill="#5F5F5F"/>
<rect x="58" y="52" width="1" height="1" fill="#5F5F5F"/>
<rect x="26" y="53" width="1" height="1" fill="#5F5F5F"/>
<rect x="58" y="53" width="1" height="1" fill="#5F5F5F"/>
<rect x="26" y="54" width="1" height="1" fill="#5F5F5F"/>
<rect x="25" y="32" width="1" height="1" fill="#5F5F5F"/>
<rect x="57" y="32" width="1" height="1" fill="#5F5F5F"/>
<rect x="25" y="33" width="1" height="1" fill="#5F5F5F"/>
<rect x="57" y="33" width="1" height="1" fill="#5F5F5F"/>
<rect x="57" y="34" width="1" height="1" fill="#5F5F5F"/>
<rect x="33" y="53" width="1" height="1" fill="#5F5F5F"/>
<rect x="33" y="54" width="1" height="1" fill="#5F5F5F"/>
<rect x="14" y="39" width="1" height="1" fill="#5F5F5F"/>
<rect x="14" y="40" width="1" height="1" fill="#5F5F5F"/>
<rect x="14" y="41" width="1" height="1" fill="#5F5F5F"/>
<rect x="14" y="42" width="1" height="1" fill="#5F5F5F"/>
<rect x="14" y="43" width="1" height="1" fill="#5F5F5F"/>
<rect x="14" y="44" width="1" height="1" fill="#5F5F5F"/>
<rect x="14" y="45" width="1" height="1" fill="#5F5F5F"/>
<rect x="14" y="46" width="1" height="1" fill="#5F5F5F"/>
<rect x="14" y="47" width="1" height="1" fill="#5F5F5F"/>
<rect x="14" y="48" width="1" height="1" fill="#5F5F5F"/>
<rect x="14" y="49" width="1" height="1" fill="#5F5F5F"/>
<rect x="14" y="50" width="1" height="1" fill="#5F5F5F"/>
<rect x="14" y="51" width="1" height="1" fill="#5F5F5F"/>
<rect x="33" y="32" width="1" height="1" fill="#5F5F5F"/>
<rect x="34" y="32" width="1" height="1" fill="#5F5F5F"/>
<rect x="14" y="52" width="1" height="1" fill="#5F5F5F"/>
<rect x="14" y="53" width="1" height="1" fill="#5F5F5F"/>
<rect x="46" y="53" width="1" height="1" fill="#5F5F5F"/>
<rect x="59" y="39" width="1" height="1" fill="#5F5F5F"/>
<rect x="46" y="54" width="1" height="1" fill="#5F5F5F"/>
<rect x="59" y="40" width="1" height="1" fill="#5F5F5F"/>
<rect x="59" y="41" width="1" height="1" fill="#5F5F5F"/>
<rect x="59" y="42" width="1" height="1" fill="#5F5F5F"/>
<rect x="46" y="55" width="1" height="1" fill="#5F5F5F"/>
<rect x="33" y="33" width="1" height="1" fill="#5F5F5F"/>
<rect x="34" y="33" width="1" height="1" fill="#5F5F5F"/>
<rect x="59" y="43" width="1" height="1" fill="#5F5F5F"/>
<rect x="59" y="44" width="1" height="1" fill="#5F5F5F"/>
<rect x="59" y="45" width="1" height="1" fill="#5F5F5F"/>
<rect x="59" y="46" width="1" height="1" fill="#5F5F5F"/>
<rect x="59" y="47" width="1" height="1" fill="#5F5F5F"/>
<rect x="59" y="48" width="1" height="1" fill="#5F5F5F"/>
<rect x="59" y="49" width="1" height="1" fill="#5F5F5F"/>
<rect x="59" y="50" width="1" height="1" fill="#5F5F5F"/>
<rect x="59" y="51" width="1" height="1" fill="#5F5F5F"/>
<rect x="59" y="52" width="1" height="1" fill="#5F5F5F"/>
<rect x="27" y="53" width="1" height="1" fill="#5F5F5F"/>
<rect x="27" y="54" width="1" height="1" fill="#5F5F5F"/>
<rect x="46" y="32" width="1" height="1" fill="#5F5F5F"/>
<rect x="14" y="35" width="1" height="1" fill="#5F5F5F"/>
<rect x="14" y="36" width="1" height="1" fill="#5F5F5F"/>
<rect x="14" y="34" width="1" height="1" fill="#5F5F5F"/>
<rect x="14" y="33" width="1" height="1" fill="#5F5F5F"/>
<rect x="46" y="33" width="1" height="1" fill="#5F5F5F"/>
<rect x="14" y="38" width="1" height="1" fill="#5F5F5F"/>
<rect x="14" y="37" width="1" height="1" fill="#5F5F5F"/>
<rect x="34" y="53" width="1" height="1" fill="#5F5F5F"/>
<rect x="34" y="54" width="1" height="1" fill="#5F5F5F"/>
<rect x="27" y="32" width="1" height="1" fill="#5F5F5F"/>
<rect x="26" y="32" width="1" height="1" fill="#5F5F5F"/>
<rect x="59" y="36" width="1" height="1" fill="#5F5F5F"/>
<rect x="59" y="35" width="1" height="1" fill="#5F5F5F"/>
<rect x="59" y="34" width="1" height="1" fill="#5F5F5F"/>
<rect x="27" y="33" width="1" height="1" fill="#5F5F5F"/>
<rect x="58" y="36" width="1" height="1" fill="#5F5F5F"/>
<rect x="59" y="38" width="1" height="1" fill="#5F5F5F"/>
<rect x="58" y="35" width="1" height="1" fill="#5F5F5F"/>
<rect x="59" y="37" width="1" height="1" fill="#5F5F5F"/>
<rect x="58" y="34" width="1" height="1" fill="#5F5F5F"/>
<rect x="26" y="33" width="1" height="1" fill="#5F5F5F"/>
<rect x="58" y="33" width="1" height="1" fill="#5F5F5F"/>
<rect x="58" y="38" width="1" height="1" fill="#5F5F5F"/>
<rect x="58" y="37" width="1" height="1" fill="#5F5F5F"/>
<rect x="15" y="52" width="1" height="1" fill="#5F5F5F"/>
<rect x="15" y="53" width="1" height="1" fill="#5F5F5F"/>
<rect x="47" y="53" width="1" height="1" fill="#5F5F5F"/>
<rect x="15" y="54" width="1" height="1" fill="#5F5F5F"/>
<rect x="47" y="54" width="1" height="1" fill="#5F5F5F"/>
<rect x="47" y="55" width="1" height="1" fill="#5F5F5F"/>
<rect x="35" y="32" width="1" height="1" fill="#5F5F5F"/>
<rect x="35" y="33" width="1" height="1" fill="#5F5F5F"/>
<rect x="28" y="53" width="1" height="1" fill="#5F5F5F"/>
<rect x="28" y="54" width="1" height="1" fill="#5F5F5F"/>
<rect x="15" y="32" width="1" height="1" fill="#5F5F5F"/>
<rect x="47" y="32" width="1" height="1" fill="#5F5F5F"/>
<rect x="15" y="34" width="1" height="1" fill="#5F5F5F"/>
<rect x="15" y="33" width="1" height="1" fill="#5F5F5F"/>
<rect x="47" y="33" width="1" height="1" fill="#5F5F5F"/>
<rect x="35" y="53" width="1" height="1" fill="#5F5F5F"/>
<rect x="35" y="54" width="1" height="1" fill="#5F5F5F"/>
<rect x="28" y="32" width="1" height="1" fill="#5F5F5F"/>
<rect x="16" y="53" width="1" height="1" fill="#5F5F5F"/>
<rect x="48" y="53" width="1" height="1" fill="#5F5F5F"/>
<rect x="16" y="54" width="1" height="1" fill="#5F5F5F"/>
<rect x="48" y="54" width="1" height="1" fill="#5F5F5F"/>
<rect x="48" y="55" width="1" height="1" fill="#5F5F5F"/>
<rect x="28" y="33" width="1" height="1" fill="#5F5F5F"/>
<rect x="4" y="39" width="1" height="1" fill="#A0A0A0"/>
<rect x="4" y="40" width="1" height="1" fill="#A0A0A0"/>
<rect x="4" y="41" width="1" height="1" fill="#A0A0A0"/>
<rect x="4" y="42" width="1" height="1" fill="#A0A0A0"/>
<rect x="4" y="32" width="1" height="1" fill="#A0A0A0"/>
<rect x="36" y="32" width="1" height="1" fill="#5F5F5F"/>
<rect x="29" y="53" width="1" height="1" fill="#5F5F5F"/>
<rect x="29" y="54" width="1" height="1" fill="#5F5F5F"/>
<rect x="4" y="36" width="1" height="1" fill="#A0A0A0"/>
<rect x="4" y="35" width="1" height="1" fill="#A0A0A0"/>
<rect x="4" y="34" width="1" height="1" fill="#A0A0A0"/>
<rect x="4" y="38" width="1" height="1" fill="#A0A0A0"/>
<rect x="4" y="33" width="1" height="1" fill="#A0A0A0"/>
<rect x="36" y="33" width="1" height="1" fill="#5F5F5F"/>
<rect x="4" y="37" width="1" height="1" fill="#A0A0A0"/>
<rect x="4" y="43" width="1" height="1" fill="#A0A0A0"/>
<rect x="4" y="44" width="1" height="1" fill="#A0A0A0"/>
<rect x="4" y="45" width="1" height="1" fill="#A0A0A0"/>
<rect x="4" y="46" width="1" height="1" fill="#A0A0A0"/>
<rect x="4" y="47" width="1" height="1" fill="#A0A0A0"/>
<rect x="4" y="48" width="1" height="1" fill="#A0A0A0"/>
<rect x="4" y="49" width="1" height="1" fill="#A0A0A0"/>
<rect x="4" y="50" width="1" height="1" fill="#A0A0A0"/>
<rect x="4" y="51" width="1" height="1" fill="#A0A0A0"/>
<rect x="36" y="53" width="1" height="1" fill="#5F5F5F"/>
<rect x="36" y="54" width="1" height="1" fill="#5F5F5F"/>
<rect x="16" y="32" width="1" height="1" fill="#5F5F5F"/>
<rect x="48" y="32" width="1" height="1" fill="#5F5F5F"/>
<rect x="16" y="33" width="1" height="1" fill="#5F5F5F"/>
<rect x="48" y="33" width="1" height="1" fill="#5F5F5F"/>
<rect x="5" y="39" width="1" height="1" fill="#A0A0A0"/>
<rect x="5" y="40" width="1" height="1" fill="#A0A0A0"/>
<rect x="5" y="41" width="1" height="1" fill="#A0A0A0"/>
<rect x="5" y="42" width="1" height="1" fill="#A0A0A0"/>
<rect x="17" y="53" width="1" height="1" fill="#5F5F5F"/>
<rect x="49" y="53" width="1" height="1" fill="#5F5F5F"/>
<rect x="17" y="54" width="1" height="1" fill="#5F5F5F"/>
<rect x="49" y="54" width="1" height="1" fill="#5F5F5F"/>
<rect x="29" y="32" width="1" height="1" fill="#5F5F5F"/>
<rect x="30" y="53" width="1" height="1" fill="#5F5F5F"/>
<rect x="30" y="54" width="1" height="1" fill="#5F5F5F"/>
<rect x="29" y="33" width="1" height="1" fill="#5F5F5F"/>
<rect x="31" y="53" width="1" height="1" fill="#5F5F5F"/>
<rect x="31" y="54" width="1" height="1" fill="#5F5F5F"/>
<rect x="5" y="32" width="1" height="1" fill="#A0A0A0"/>
<rect x="37" y="32" width="1" height="1" fill="#5F5F5F"/>
<rect x="5" y="43" width="1" height="1" fill="#A0A0A0"/>
<rect x="5" y="44" width="1" height="1" fill="#A0A0A0"/>
<rect x="5" y="45" width="1" height="1" fill="#A0A0A0"/>
<rect x="5" y="46" width="1" height="1" fill="#A0A0A0"/>
<rect x="5" y="47" width="1" height="1" fill="#A0A0A0"/>
<rect x="5" y="48" width="1" height="1" fill="#A0A0A0"/>
<rect x="5" y="36" width="1" height="1" fill="#A0A0A0"/>
<rect x="5" y="49" width="1" height="1" fill="#A0A0A0"/>
<rect x="5" y="50" width="1" height="1" fill="#A0A0A0"/>
<rect x="5" y="35" width="1" height="1" fill="#A0A0A0"/>
<rect x="5" y="34" width="1" height="1" fill="#A0A0A0"/>
<rect x="5" y="38" width="1" height="1" fill="#A0A0A0"/>
<rect x="5" y="51" width="1" height="1" fill="#A0A0A0"/>
<rect x="5" y="52" width="1" height="1" fill="#A0A0A0"/>
<rect x="5" y="33" width="1" height="1" fill="#A0A0A0"/>
<rect x="37" y="33" width="1" height="1" fill="#5F5F5F"/>
<rect x="37" y="53" width="1" height="1" fill="#5F5F5F"/>
<rect x="5" y="37" width="1" height="1" fill="#A0A0A0"/>
<rect x="37" y="54" width="1" height="1" fill="#5F5F5F"/>
<rect x="17" y="32" width="1" height="1" fill="#5F5F5F"/>
<rect x="49" y="32" width="1" height="1" fill="#5F5F5F"/>
<rect x="30" y="32" width="1" height="1" fill="#5F5F5F"/>
<rect x="18" y="53" width="1" height="1" fill="#5F5F5F"/>
<rect x="50" y="53" width="1" height="1" fill="#5F5F5F"/>
<rect x="30" y="33" width="1" height="1" fill="#5F5F5F"/>
<rect x="18" y="54" width="1" height="1" fill="#5F5F5F"/>
<rect x="50" y="54" width="1" height="1" fill="#5F5F5F"/>
<rect x="17" y="33" width="1" height="1" fill="#5F5F5F"/>
<rect x="49" y="33" width="1" height="1" fill="#5F5F5F"/>
<rect x="31" y="32" width="1" height="1" fill="#5F5F5F"/>
<rect x="31" y="33" width="1" height="1" fill="#5F5F5F"/>
<rect x="6" y="51" width="1" height="1" fill="#A0A0A0"/>
<rect x="6" y="52" width="1" height="1" fill="#A0A0A0"/>
<rect x="6" y="53" width="1" height="1" fill="#A0A0A0"/>
<rect x="38" y="53" width="1" height="1" fill="#5F5F5F"/>
<rect x="38" y="54" width="1" height="1" fill="#5F5F5F"/>
<rect x="38" y="32" width="1" height="1" fill="#5F5F5F"/>
<rect x="38" y="33" width="1" height="1" fill="#5F5F5F"/>
<rect x="19" y="53" width="1" height="1" fill="#5F5F5F"/>
<rect x="51" y="53" width="1" height="1" fill="#5F5F5F"/>
<rect x="19" y="54" width="1" height="1" fill="#5F5F5F"/>
<rect x="51" y="54" width="1" height="1" fill="#5F5F5F"/>
<rect x="18" y="32" width="1" height="1" fill="#5F5F5F"/>
<rect x="50" y="32" width="1" height="1" fill="#5F5F5F"/>
<rect x="7" y="52" width="1" height="1" fill="#A0A0A0"/>
<rect x="7" y="53" width="1" height="1" fill="#A0A0A0"/>
<rect x="39" y="53" width="1" height="1" fill="#5F5F5F"/>
<rect x="39" y="54" width="1" height="1" fill="#5F5F5F"/>
<rect x="18" y="33" width="1" height="1" fill="#5F5F5F"/>
<rect x="50" y="33" width="1" height="1" fill="#5F5F5F"/>
<rect x="20" y="53" width="1" height="1" fill="#5F5F5F"/>
<rect x="52" y="53" width="1" height="1" fill="#5F5F5F"/>
<rect x="20" y="54" width="1" height="1" fill="#5F5F5F"/>
<rect x="52" y="54" width="1" height="1" fill="#5F5F5F"/>
<rect x="39" y="32" width="1" height="1" fill="#5F5F5F"/>
<rect x="8" y="52" width="1" height="1" fill="#A0A0A0"/>
<rect x="8" y="53" width="1" height="1" fill="#A0A0A0"/>
<rect x="40" y="53" width="1" height="1" fill="#5F5F5F"/>
<rect x="40" y="54" width="1" height="1" fill="#5F5F5F"/>
<rect x="39" y="33" width="1" height="1" fill="#5F5F5F"/>
<rect x="19" y="32" width="1" height="1" fill="#5F5F5F"/>
<rect x="51" y="32" width="1" height="1" fill="#5F5F5F"/>
<rect x="21" y="53" width="1" height="1" fill="#5F5F5F"/>
<rect x="53" y="53" width="1" height="1" fill="#5F5F5F"/>
<rect x="21" y="54" width="1" height="1" fill="#5F5F5F"/>
<rect x="53" y="54" width="1" height="1" fill="#5F5F5F"/>
<rect x="19" y="33" width="1" height="1" fill="#5F5F5F"/>
<rect x="51" y="33" width="1" height="1" fill="#5F5F5F"/>
<rect x="40" y="32" width="1" height="1" fill="#5F5F5F"/>
<rect x="9" y="52" width="1" height="1" fill="#A0A0A0"/>
<rect x="9" y="53" width="1" height="1" fill="#A0A0A0"/>
<rect x="41" y="53" width="1" height="1" fill="#5F5F5F"/>
<rect x="41" y="54" width="1" height="1" fill="#5F5F5F"/>
<rect x="40" y="33" width="1" height="1" fill="#5F5F5F"/>
<rect x="20" y="32" width="1" height="1" fill="#5F5F5F"/>
<rect x="52" y="32" width="1" height="1" fill="#5F5F5F"/>
<rect x="22" y="53" width="1" height="1" fill="#5F5F5F"/>
<rect x="54" y="53" width="1" height="1" fill="#5F5F5F"/>
<rect x="22" y="54" width="1" height="1" fill="#5F5F5F"/>
<rect x="54" y="54" width="1" height="1" fill="#5F5F5F"/>
<rect x="20" y="33" width="1" height="1" fill="#5F5F5F"/>
<rect x="52" y="33" width="1" height="1" fill="#5F5F5F"/>
<rect x="41" y="32" width="1" height="1" fill="#5F5F5F"/>
<rect x="10" y="52" width="1" height="1" fill="#A0A0A0"/>
<rect x="10" y="53" width="1" height="1" fill="#A0A0A0"/>
<rect x="42" y="53" width="1" height="1" fill="#5F5F5F"/>
<rect x="42" y="54" width="1" height="1" fill="#5F5F5F"/>
<rect x="41" y="33" width="1" height="1" fill="#5F5F5F"/>
<rect x="23" y="53" width="1" height="1" fill="#5F5F5F"/>
<rect x="55" y="53" width="1" height="1" fill="#5F5F5F"/>
<rect x="23" y="54" width="1" height="1" fill="#5F5F5F"/>
<rect x="55" y="54" width="1" height="1" fill="#5F5F5F"/>
<rect x="11" y="52" width="1" height="1" fill="#A0A0A0"/>
<rect x="11" y="53" width="1" height="1" fill="#A0A0A0"/>
<rect x="43" y="53" width="1" height="1" fill="#5F5F5F"/>
<rect x="43" y="54" width="1" height="1" fill="#5F5F5F"/>
<rect x="21" y="32" width="1" height="1" fill="#5F5F5F"/>
<rect x="53" y="32" width="1" height="1" fill="#5F5F5F"/>
<rect x="24" y="53" width="1" height="1" fill="#5F5F5F"/>
<rect x="56" y="53" width="1" height="1" fill="#5F5F5F"/>
<rect x="24" y="54" width="1" height="1" fill="#5F5F5F"/>
<rect x="56" y="54" width="1" height="1" fill="#5F5F5F"/>
<rect x="21" y="33" width="1" height="1" fill="#5F5F5F"/>
<rect x="53" y="33" width="1" height="1" fill="#5F5F5F"/>
<rect x="42" y="32" width="1" height="1" fill="#5F5F5F"/>
<rect x="12" y="52" width="1" height="1" fill="#A0A0A0"/>
<rect x="12" y="53" width="1" height="1" fill="#A0A0A0"/>
<rect x="44" y="53" width="1" height="1" fill="#5F5F5F"/>
<rect x="44" y="54" width="1" height="1" fill="#5F5F5F"/>
<rect x="44" y="55" width="1" height="1" fill="#5F5F5F"/>
<rect x="42" y="33" width="1" height="1" fill="#5F5F5F"/>
<rect x="22" y="32" width="1" height="1" fill="#5F5F5F"/>
<rect x="54" y="32" width="1" height="1" fill="#5F5F5F"/>
<rect x="22" y="33" width="1" height="1" fill="#5F5F5F"/>
<rect x="54" y="33" width="1" height="1" fill="#5F5F5F"/>
<rect x="57" y="52" width="1" height="1" fill="#5F5F5F"/>
<rect x="25" y="53" width="1" height="1" fill="#5F5F5F"/>
<rect x="57" y="53" width="1" height="1" fill="#5F5F5F"/>
<rect x="43" y="32" width="1" height="1" fill="#5F5F5F"/>
<rect x="25" y="54" width="1" height="1" fill="#5F5F5F"/>
<rect x="57" y="54" width="1" height="1" fill="#5F5F5F"/>
<rect x="23" y="32" width="1" height="1" fill="#5F5F5F"/>
<rect x="55" y="32" width="1" height="1" fill="#5F5F5F"/>
<rect x="43" y="33" width="1" height="1" fill="#5F5F5F"/>
<rect x="44" y="32" width="1" height="1" fill="#5F5F5F"/>
<rect x="23" y="33" width="1" height="1" fill="#5F5F5F"/>
<rect x="55" y="33" width="1" height="1" fill="#5F5F5F"/>
<rect x="24" y="32" width="1" height="1" fill="#5F5F5F"/>
<rect x="56" y="32" width="1" height="1" fill="#5F5F5F"/>
<rect x="44" y="33" width="1" height="1" fill="#5F5F5F"/>
<rect x="24" y="33" width="1" height="1" fill="#5F5F5F"/>
<rect x="56" y="33" width="1" height="1" fill="#5F5F5F"/>
</svg>
