<svg width="93" height="96" viewBox="0 0 93 96" fill="none" xmlns="http://www.w3.org/2000/svg">
<rect x="51" y="63" width="3" height="3" fill="#F9A468"/>
<rect x="42" y="63" width="3" height="3" fill="#FFB682"/>
<rect x="48" y="63" width="3" height="3" fill="#FFB682"/>
<rect x="39" y="63" width="3" height="3" fill="#F9A468"/>
<rect x="48" y="66" width="3" height="3" fill="#FFB682"/>
<rect x="39" y="66" width="3" height="3" fill="#F9A468"/>
<rect x="51" y="66" width="3" height="3" fill="#F9A468"/>
<rect x="42" y="66" width="3" height="3" fill="#FFB682"/>
<rect x="33" y="60" width="3" height="3" fill="#F9A468"/>
<rect x="54" y="60" width="3" height="3" fill="#F9A468"/>
<rect x="36" y="60" width="3" height="3" fill="#F9A468"/>
<rect x="57" y="60" width="3" height="3" fill="#F9A468"/>
<rect x="33" y="63" width="3" height="3" fill="#F9A468"/>
<rect x="54" y="63" width="3" height="3" fill="#F9A468"/>
<rect x="36" y="63" width="3" height="3" fill="#F9A468"/>
<rect x="57" y="63" width="3" height="3" fill="#F9A468"/>
<rect x="33" y="66" width="3" height="3" fill="#F9A468"/>
<rect x="54" y="66" width="3" height="3" fill="#F9A468"/>
<rect x="36" y="66" width="3" height="3" fill="#F9A468"/>
<rect x="57" y="66" width="3" height="3" fill="#F9A468"/>
<rect x="36" y="69" width="3" height="3" fill="#F9A468"/>
<rect x="39" y="69" width="3" height="3" fill="#F9A468"/>
<rect x="42" y="69" width="3" height="3" fill="#F9A468"/>
<rect x="45" y="69" width="3" height="3" fill="#F9A468"/>
<rect x="48" y="69" width="3" height="3" fill="#F9A468"/>
<rect x="51" y="69" width="3" height="3" fill="#F9A468"/>
<rect x="54" y="69" width="3" height="3" fill="#F9A468"/>
<rect x="39" y="48" width="9" height="3" fill="#F9A468"/>
<rect x="51" y="48" width="3" height="3" fill="#F9A468"/>
<path fill-rule="evenodd" clip-rule="evenodd" d="M57 36H54V39V42H57V45H60V42V39H57V36Z" fill="white"/>
<path fill-rule="evenodd" clip-rule="evenodd" d="M36 36H39V39V42H36V45H33V42V39H36V36Z" fill="white"/>
<rect x="39" y="42" width="3" height="3" fill="#00965C"/>
<rect x="39" y="45" width="3" height="3" fill="#00965C"/>
<rect x="42" y="42" width="3" height="3" fill="#00965C"/>
<rect x="42" y="45" width="3" height="3" fill="#00965C"/>
<rect x="18.1725" y="77.931" width="3" height="3" fill="#00965C"/>
<rect x="21" y="72" width="3" height="3" fill="#00965C"/>
<rect x="21" y="75" width="3" height="3" fill="#00965C"/>
<rect x="24" y="57" width="3" height="3" fill="#00965C"/>
<rect x="24" y="60" width="3" height="3" fill="#F4CF4B"/>
<rect x="24" y="63" width="3" height="3" fill="#00965C"/>
<rect x="24" y="69" width="3" height="3" fill="#00965C"/>
<rect x="24" y="72" width="3" height="3" fill="#00965C"/>
<rect x="27" y="54" width="3" height="3" fill="#00965C"/>
<rect x="27" y="57" width="3" height="3" fill="#00965C"/>
<rect x="27" y="66" width="3" height="3" fill="#00965C"/>
<rect x="27" y="69" width="3" height="3" fill="#00965C"/>
<rect x="30" y="51" width="3" height="3" fill="#00965C"/>
<rect x="30" y="54" width="3" height="3" fill="#00965C"/>
<rect x="30" y="57" width="3" height="3" fill="#00965C"/>
<rect x="30" y="60" width="3" height="3" fill="#00965C"/>
<rect x="33" y="51" width="3" height="3" fill="#FAD75A"/>
<rect x="33" y="54" width="3" height="3" fill="#00965C"/>
<rect x="36" y="45" width="3" height="3" fill="#00965C"/>
<rect x="36" y="48" width="3" height="3" fill="#00965C"/>
<rect x="36" y="51" width="3" height="3" fill="#00965C"/>
<rect x="39" y="51" width="3" height="3" fill="#018552"/>
<rect x="39" y="54" width="3" height="3" fill="#018552"/>
<rect x="39" y="57" width="3" height="3" fill="#F4CF4B"/>
<rect x="39" y="60" width="3" height="3" fill="#018552"/>
<rect x="39" y="72" width="3" height="3" fill="#018552"/>
<rect x="42" y="51" width="3" height="3" fill="#018552"/>
<rect x="42" y="54" width="3" height="3" fill="#018552"/>
<rect x="42" y="57" width="3" height="3" fill="#018552"/>
<rect x="42" y="60" width="3" height="3" fill="#F4CF4B"/>
<rect x="42" y="72" width="3" height="3" fill="#018552"/>
<rect x="45" y="42" width="3" height="3" fill="#018552"/>
<rect x="45" y="45" width="3" height="3" fill="#018552"/>
<rect x="45" y="51" width="3" height="3" fill="#018552"/>
<rect x="45" y="54" width="3" height="3" fill="#018552"/>
<rect x="45" y="57" width="3" height="3" fill="#018552"/>
<rect x="45" y="60" width="3" height="3" fill="#018552"/>
<rect x="45" y="72" width="3" height="3" fill="#018552"/>
<rect x="48" y="42" width="3" height="3" fill="#018552"/>
<rect x="48" y="45" width="3" height="3" fill="#018552"/>
<rect x="48" y="51" width="3" height="3" fill="#018552"/>
<rect x="48" y="54" width="3" height="3" fill="#018552"/>
<rect x="48" y="57" width="3" height="3" fill="#018552"/>
<rect x="48" y="60" width="3" height="3" fill="#F4CF4B"/>
<rect x="48" y="72" width="3" height="3" fill="#018552"/>
<rect x="51" y="42" width="3" height="3" fill="#018552"/>
<rect x="51" y="45" width="3" height="3" fill="#018552"/>
<rect x="51" y="51" width="3" height="3" fill="#018552"/>
<rect x="51" y="54" width="3" height="3" fill="#018552"/>
<rect x="51" y="57" width="3" height="3" fill="#F4CF4B"/>
<rect x="48" y="48" width="3" height="3" fill="#F4CF4B"/>
<rect x="51" y="60" width="3" height="3" fill="#018552"/>
<rect x="51" y="72" width="3" height="3" fill="#018552"/>
<rect x="54" y="45" width="3" height="3" fill="#018552"/>
<rect x="54" y="48" width="3" height="3" fill="#018552"/>
<rect x="54" y="51" width="3" height="3" fill="#018552"/>
<rect x="54" y="54" width="3" height="3" fill="#F4CF4B"/>
<rect x="54" y="57" width="3" height="3" fill="#018552"/>
<rect x="54" y="72" width="3" height="3" fill="#018552"/>
<rect x="57" y="51" width="3" height="3" fill="#F4CF4B"/>
<rect x="57" y="54" width="3" height="3" fill="#018552"/>
<rect x="57" y="57" width="3" height="3" fill="#018552"/>
<rect x="57" y="69" width="3" height="3" fill="#018552"/>
<rect x="57" y="72" width="3" height="3" fill="#018552"/>
<rect x="60" y="51" width="3" height="3" fill="#018552"/>
<rect x="60" y="54" width="3" height="3" fill="#018552"/>
<rect x="60" y="57" width="3" height="3" fill="#018552"/>
<rect x="60" y="60" width="3" height="3" fill="#018552"/>
<rect x="60" y="63" width="3" height="3" fill="#018552"/>
<rect x="60" y="66" width="3" height="3" fill="#018552"/>
<rect x="60" y="69" width="3" height="3" fill="#018552"/>
<rect x="60" y="72" width="3" height="3" fill="#018552"/>
<rect x="63" y="54" width="3" height="3" fill="#018552"/>
<rect x="63" y="57" width="3" height="3" fill="#018552"/>
<rect x="63" y="66" width="3" height="3" fill="#018552"/>
<rect x="63" y="69" width="3" height="3" fill="#018552"/>
<rect x="66" y="57" width="3" height="3" fill="#018552"/>
<rect x="66" y="60" width="3" height="3" fill="#018552"/>
<rect x="66" y="63" width="3" height="3" fill="#018552"/>
<rect x="66" y="69" width="3" height="3" fill="#018552"/>
<rect x="66" y="72" width="3" height="3" fill="#018552"/>
<rect x="30" y="63" width="3" height="3" fill="#018552"/>
<rect x="30" y="66" width="3" height="3" fill="#018552"/>
<rect x="30" y="69" width="3" height="3" fill="#018552"/>
<rect x="30" y="72" width="3" height="3" fill="#018552"/>
<rect x="69" y="72" width="3" height="3" fill="#018552"/>
<rect x="69" y="75" width="3" height="3" fill="#018552"/>
<rect x="33" y="57" width="3" height="3" fill="#018552"/>
<rect x="33" y="69" width="3" height="3" fill="#018552"/>
<rect x="33" y="72" width="3" height="3" fill="#018552"/>
<rect x="72" y="78" width="3" height="3" fill="#018552"/>
<rect x="36" y="54" width="3" height="3" fill="#FAD75A"/>
<rect x="36" y="57" width="3" height="3" fill="#018552"/>
<rect x="36" y="72" width="3" height="3" fill="#018552"/>
<rect x="39" y="36" width="3" height="3" fill="#000203"/>
<rect x="39" y="39" width="3" height="3" fill="#000203"/>
<rect x="39" y="75" width="3" height="3" fill="#000203"/>
<rect x="78" y="81" width="3" height="3" fill="#000203"/>
<rect x="42" y="39" width="3" height="3" fill="#000203"/>
<rect x="42" y="75" width="3" height="3" fill="#000203"/>
<rect x="45" y="39" width="3" height="3" fill="#000203"/>
<rect x="48" y="39" width="3" height="3" fill="#000203"/>
<rect x="48" y="75" width="3" height="3" fill="#000203"/>
<rect x="12" y="81" width="3" height="3" fill="#000203"/>
<rect x="51" y="36" width="3" height="3" fill="#000203"/>
<rect x="51" y="39" width="3" height="3" fill="#000203"/>
<rect x="51" y="75" width="3" height="3" fill="#000203"/>
<rect x="15" y="78" width="3" height="3" fill="#000203"/>
<rect x="54" y="33" width="3" height="3" fill="#000203"/>
<rect x="54" y="42" width="3" height="3" fill="#000203"/>
<rect x="54" y="75" width="3" height="3" fill="#000203"/>
<rect x="18" y="72" width="3" height="3" fill="#000203"/>
<rect x="18" y="75" width="3" height="3" fill="#000203"/>
<rect x="18" y="81" width="3" height="3" fill="#000203"/>
<rect x="57" y="33" width="3" height="3" fill="#000203"/>
<rect x="57" y="36" width="3" height="3" fill="#000203"/>
<rect x="57" y="45" width="3" height="3" fill="#000203"/>
<rect x="57" y="48" width="3" height="3" fill="#000203"/>
<rect x="57" y="75" width="3" height="3" fill="#000203"/>
<rect x="21" y="57" width="3" height="3" fill="#000203"/>
<rect x="21" y="60" width="3" height="3" fill="#000203"/>
<rect x="21" y="63" width="3" height="3" fill="#000203"/>
<rect x="21" y="69" width="3" height="3" fill="#000203"/>
<rect x="21" y="78" width="3" height="3" fill="#000203"/>
<rect x="60" y="36" width="3" height="3" fill="#000203"/>
<rect x="60" y="39" width="3" height="3" fill="#000203"/>
<rect x="60" y="42" width="3" height="3" fill="#000203"/>
<rect x="60" y="48" width="3" height="3" fill="#000203"/>
<rect x="60" y="75" width="3" height="3" fill="#000203"/>
<rect x="24" y="54" width="3" height="3" fill="#000203"/>
<rect x="24" y="66" width="3" height="3" fill="#000203"/>
<rect x="24" y="81" width="3" height="3" fill="#000203"/>
<rect x="63" y="51" width="3" height="3" fill="#000203"/>
<rect x="63" y="60" width="3" height="3" fill="#000203"/>
<rect x="63" y="63" width="3" height="3" fill="#000203"/>
<rect x="63" y="72" width="3" height="3" fill="#000203"/>
<rect x="27" y="51" width="3" height="3" fill="#000203"/>
<rect x="27" y="60" width="3" height="3" fill="#000203"/>
<rect x="27" y="63" width="3" height="3" fill="#000203"/>
<rect x="27" y="72" width="3" height="3" fill="#000203"/>
<rect x="66" y="54" width="3" height="3" fill="#000203"/>
<rect x="66" y="66" width="3" height="3" fill="#000203"/>
<rect x="66" y="81" width="3" height="3" fill="#000203"/>
<rect x="30" y="36" width="3" height="3" fill="#000203"/>
<rect x="30" y="39" width="3" height="3" fill="#000203"/>
<rect x="30" y="42" width="3" height="3" fill="#000203"/>
<rect x="30" y="48" width="3" height="3" fill="#000203"/>
<rect x="30" y="75" width="3" height="3" fill="#000203"/>
<rect x="69" y="57" width="3" height="3" fill="#000203"/>
<rect x="69" y="60" width="3" height="3" fill="#000203"/>
<rect x="69" y="63" width="3" height="3" fill="#000203"/>
<rect x="69" y="69" width="3" height="3" fill="#000203"/>
<rect x="69" y="78" width="3" height="3" fill="#000203"/>
<rect x="33" y="33" width="3" height="3" fill="#000203"/>
<rect x="33" y="36" width="3" height="3" fill="#000203"/>
<rect x="33" y="45" width="3" height="3" fill="#000203"/>
<rect x="33" y="48" width="3" height="3" fill="#000203"/>
<rect x="33" y="75" width="3" height="3" fill="#000203"/>
<rect x="72" y="72" width="3" height="3" fill="#000203"/>
<rect x="72" y="75" width="3" height="3" fill="#000203"/>
<rect x="72" y="81" width="3" height="3" fill="#000203"/>
<rect x="36" y="33" width="3" height="3" fill="#000203"/>
<rect x="36" y="42" width="3" height="3" fill="#000203"/>
<rect x="36" y="75" width="3" height="3" fill="#000203"/>
<rect x="75" y="78" width="3" height="3" fill="#000203"/>
<rect x="45" y="63" width="3" height="3" fill="#F4CF4B"/>
<rect x="45" y="66" width="3" height="3" fill="#F4CF4B"/>
</svg>
