<svg width="7" height="7" viewBox="0 0 7 7" fill="none" xmlns="http://www.w3.org/2000/svg">
<rect x="2" y="1" width="4" height="5" fill="#C6A01A"/>
<rect x="2" width="3" height="1" fill="#2A2900"/>
<rect width="3" height="1" transform="matrix(1 0 0 -1 2 7)" fill="#2A2900"/>
<rect x="7" y="2" width="3" height="1" transform="rotate(90 7 2)" fill="#2A2900"/>
<rect width="3" height="1" transform="matrix(4.37114e-08 1 1 -4.37114e-08 0 2)" fill="#2A2900"/>
<rect x="5" y="1" width="1" height="1" fill="#2A2900"/>
<rect width="1" height="1" transform="matrix(1 0 0 -1 5 6)" fill="#2A2900"/>
<rect width="1" height="1" transform="matrix(-1 0 0 1 2 1)" fill="#2A2900"/>
<rect x="2" y="6" width="1" height="1" transform="rotate(180 2 6)" fill="#2A2900"/>
<rect x="1" y="2" width="1" height="3" fill="#FFDE69"/>
<rect x="2" y="1" width="1" height="2" fill="#FFDE69"/>
<rect x="4" y="4" width="1" height="2" fill="#F3C522"/>
<rect x="5" y="2" width="1" height="3" fill="#F3C522"/>
<rect x="2" y="3" width="1" height="2" fill="#F3C522"/>
<rect x="3" y="1" width="2" height="1" fill="#F3C522"/>
<rect x="4" y="2" width="1" height="2" fill="#D7AD18"/>
<rect x="2" y="5" width="2" height="1" fill="#D7AD18"/>
</svg>
