<svg width="20" height="20" viewBox="0 0 20 20" fill="none" xmlns="http://www.w3.org/2000/svg">
<rect x="11.4286" y="7.14279" width="2.14286" height="7.14286" transform="rotate(180 11.4286 7.14279)" fill="#2A2900"/>
<rect width="13.5714" height="1.42857" transform="matrix(-1 0 0 1 14.2856 7.14279)" fill="#2A2900"/>
<rect width="18.5714" height="1.42857" transform="matrix(-1 0 0 1 19.2856 18.5715)" fill="#2A2900"/>
<rect width="0.714286" height="1.42857" transform="matrix(-1 0 0 1 19.2856 7.14279)" fill="#4D4B00"/>
<rect width="4.28571" height="2.14286" transform="matrix(-1 0 0 1 18.5709 7.14279)" fill="#4D4B00"/>
<rect width="1.42857" height="10.7143" transform="matrix(-1 0 0 1 1.42859 7.85721)" fill="#2A2900"/>
<rect width="1.42857" height="3.57143" transform="matrix(-1 0 0 1 19.9998 15.7143)" fill="#2A2900"/>
<rect width="1.42857" height="7.14286" transform="matrix(-1 0 0 1 19.9998 8.57147)" fill="#464500"/>
<rect width="17.1429" height="10" transform="matrix(-1 0 0 1 18.5709 8.57147)" fill="#FFD43E"/>
<rect width="7.14286" height="1.42857" transform="matrix(-1 0 0 1 14.9998 12.8572)" fill="#FF8C21"/>
<rect width="0.714286" height="5.71429" transform="matrix(-1 0 0 1 7.85681 10.7143)" fill="#FF8C21"/>
<rect width="0.714286" height="4.28571" transform="matrix(-1 0 0 1 7.1427 11.4285)" fill="#FF8C21"/>
<rect width="0.714286" height="2.85714" transform="matrix(-1 0 0 1 6.42859 12.1428)" fill="#FF8C21"/>
<rect width="0.714286" height="1.42857" transform="matrix(-1 0 0 1 5.71387 12.8572)" fill="#FF8C21"/>
<rect width="0.714286" height="7.85714" transform="matrix(-1 0 0 1 18.5709 8.57147)" fill="#FFE071"/>
<rect width="5" height="0.714286" transform="matrix(-1 0 0 1 17.8568 8.57147)" fill="#FFE071"/>
<rect width="7.14286" height="0.714286" transform="matrix(-1 0 0 1 12.8568 8.57147)" fill="#FFE071"/>
<rect width="0.714286" height="2.85714" transform="matrix(-1 0 0 1 17.8568 9.28574)" fill="#FFDB5B"/>
<rect width="0.714286" height="0.714286" transform="matrix(-1 0 0 1 17.1427 10)" fill="#FFDB5B"/>
<rect width="0.714286" height="0.714286" transform="matrix(-1 0 0 1 16.4286 9.28574)" fill="#FFDB5B"/>
<rect width="0.714286" height="0.714286" transform="matrix(-1 0 0 1 17.1427 9.28574)" fill="#FFDB5B"/>
<rect x="11.4286" y="7.14279" width="0.714286" height="4.28571" transform="rotate(180 11.4286 7.14279)" fill="#4C4B00"/>
<rect width="0.714286" height="0.714286" transform="matrix(-1 0 0 1 18.5709 17.8572)" fill="#2A2900"/>
<rect width="0.714286" height="0.714286" transform="matrix(-1 0 0 1 18.5709 8.57147)" fill="#4D4B00"/>
<rect width="0.714286" height="0.714286" transform="matrix(-1 0 0 1 2.1427 8.57147)" fill="#2A2900"/>
<rect width="0.714286" height="0.714286" transform="matrix(-1 0 0 1 2.1427 17.8572)" fill="#2A2900"/>
<rect width="0.714286" height="0.714286" transform="matrix(-1 0 0 1 19.9998 7.85721)" fill="#4D4B00"/>
</svg>
