<svg width="44" height="17" viewBox="0 0 44 17" fill="none" xmlns="http://www.w3.org/2000/svg">
<path fill-rule="evenodd" clip-rule="evenodd" d="M17 0H12V1H10V3H8V5H7V8H2V10H1H0V15H1V16H2V17H7V16H8V15H10V16H12V17H17V16H19H20H23H24H25V15H26V17H28H30H31V15H38H41V14H42V13H43V5H42V4H41V3H38V2H37V1H32V2H31V3H30V4H28V5H26V6H25V5H24V4H23V3H20V1H19V0H17Z" fill="#D7E7FF"/>
<rect width="5" height="2" transform="matrix(-1 0 0 1 44 11)" fill="#B6D2FF"/>
<rect width="2" height="1" transform="matrix(-1 0 0 1 40 9)" fill="#B6D2FF"/>
<rect width="1" height="1" transform="matrix(4.37114e-08 -1 -1 -4.37114e-08 41 11)" fill="#B6D2FF"/>
<rect width="5" height="1" transform="matrix(-1 0 0 1 42 13)" fill="#B6D2FF"/>
<rect width="5" height="1" transform="matrix(-1 0 0 1 41 14)" fill="#B6D2FF"/>
<rect width="5" height="1" transform="matrix(-1 0 0 1 39 15)" fill="#B6D2FF"/>
<rect width="2" height="1" transform="matrix(-1 0 0 1 36 16)" fill="#B6D2FF"/>
<rect width="2" height="2" transform="matrix(-1 0 0 1 34 14)" fill="#B6D2FF"/>
<rect width="1" height="1" transform="matrix(-1 0 0 1 32 14)" fill="#B6D2FF"/>
<rect width="5" height="1" transform="matrix(-1 0 0 1 31 16)" fill="#B6D2FF"/>
<rect width="3" height="1" transform="matrix(-1 0 0 1 31 15)" fill="#B6D2FF"/>
<rect width="2" height="1" transform="matrix(-1 0 0 1 26 14)" fill="#B6D2FF"/>
<rect width="5" height="1" transform="matrix(-1 0 0 1 25 15)" fill="#B6D2FF"/>
<path fill-rule="evenodd" clip-rule="evenodd" d="M19 0H12V1H10V3H8V5H7V7H3V8H2V9H1V10H0V11H1V10H2V9H3V8H7V9H8V10H9V11H10V12H13V11H14V10V9H13V10H12V11H11V10H10V9H8V8V7H9V5H11V3H13V2H15V1H19V0Z" fill="#EFF6FF"/>
</svg>
