<svg width="18" height="16" viewBox="0 0 18 16" fill="none" xmlns="http://www.w3.org/2000/svg">
<rect x="5.53845" y="1.84619" width="0.615385" height="0.307692" fill="#00A29D"/>
<rect x="1.53845" y="8" width="0.615385" height="0.307692" fill="#004042"/>
<rect x="0.923065" y="7.69226" width="0.615385" height="0.307692" fill="#004042"/>
<rect x="0.615387" y="7.38464" width="0.307692" height="0.307692" fill="#004042"/>
<rect x="0.307678" y="7.0769" width="0.307692" height="0.307692" fill="#004042"/>
<rect y="6.15381" width="0.307692" height="0.923077" fill="#004042"/>
<rect x="0.307678" y="5.53845" width="0.307692" height="0.615385" fill="#004042"/>
<rect x="0.615387" y="5.23071" width="0.307692" height="0.307692" fill="#004042"/>
<rect x="0.923065" y="4.9231" width="0.307692" height="0.307692" fill="#004042"/>
<rect x="3.07693" y="5.23071" width="0.307692" height="0.307692" fill="#004042"/>
<rect x="3.38461" y="5.53845" width="0.307692" height="0.615385" fill="#004042"/>
<rect x="3.69232" y="6.15381" width="0.307692" height="0.923077" fill="#004042"/>
<rect x="4" y="7.0769" width="0.307692" height="0.307692" fill="#004042"/>
<rect x="4.61539" y="8" width="0.307692" height="0.307692" fill="#004042"/>
<rect x="4.92307" y="8.30774" width="0.307692" height="0.307692" fill="#004042"/>
<rect x="5.23077" y="8.30774" width="0.307692" height="0.307692" fill="#004042"/>
<rect x="5.53845" y="8.61536" width="0.307692" height="0.307692" fill="#004042"/>
<rect x="5.84616" y="8.61536" width="0.307692" height="0.307692" fill="#004042"/>
<rect x="6.15384" y="8.61536" width="0.307692" height="0.307692" fill="#004042"/>
<rect x="6.46155" y="7.38464" width="0.307692" height="1.23077" fill="#004042"/>
<rect x="6.15384" y="5.84619" width="0.307692" height="1.53846" fill="#004042"/>
<rect x="5.84616" y="4.61536" width="0.307692" height="1.23077" fill="#004042"/>
<rect x="5.53845" y="3.69226" width="0.307692" height="0.923077" fill="#004042"/>
<rect x="5.23077" y="3.38464" width="0.307692" height="0.307692" fill="#004042"/>
<rect x="4.92307" y="3.0769" width="0.307692" height="0.307692" fill="#004042"/>
<rect x="4.61539" y="2.76929" width="0.307692" height="0.307692" fill="#004042"/>
<rect x="4.61539" y="0.615356" width="0.307692" height="0.307692" fill="#004042"/>
<rect x="4.92307" y="0.307739" width="0.307692" height="0.307692" fill="#004042"/>
<rect x="7.38461" y="0.615356" width="0.307692" height="0.307692" fill="#004042"/>
<rect x="7.38461" y="2.76929" width="0.307692" height="0.923077" fill="#004042"/>
<rect x="7.69232" y="3.69226" width="0.307692" height="0.923077" fill="#004042"/>
<rect x="8" y="4.61536" width="0.307692" height="0.923077" fill="#004042"/>
<rect x="8.30768" y="5.53845" width="0.307692" height="0.923077" fill="#004042"/>
<rect x="8.61539" y="6.46155" width="0.307692" height="0.923077" fill="#004042"/>
<rect x="8.92307" y="7.38464" width="0.307692" height="0.615385" fill="#004042"/>
<rect x="9.23077" y="8" width="0.307692" height="0.307692" fill="#004042"/>
<rect x="9.53845" y="7.69226" width="0.307692" height="0.307692" fill="#004042"/>
<rect x="9.53845" y="7.38464" width="0.307692" height="0.615385" fill="#004042"/>
<rect x="9.84616" y="6.15381" width="0.307692" height="1.23077" fill="#004042"/>
<rect x="10.1538" y="4.61536" width="0.307692" height="1.53846" fill="#004042"/>
<rect x="9.84616" y="4.30774" width="0.307692" height="0.307692" fill="#004042"/>
<rect x="9.84616" y="3.69226" width="0.307692" height="0.923077" fill="#004042"/>
<rect x="9.53845" y="2.76929" width="0.307692" height="0.923077" fill="#004042"/>
<rect x="9.84616" y="2.15381" width="0.307692" height="0.615385" fill="#004042"/>
<rect x="10.1538" y="1.84619" width="0.307692" height="0.307692" fill="#004042"/>
<rect x="10.4615" y="1.53845" width="0.307692" height="0.307692" fill="#004042"/>
<rect x="12.9231" y="1.84619" width="0.307692" height="0.307692" fill="#004042"/>
<rect x="13.2308" y="2.15381" width="0.307692" height="0.615385" fill="#004042"/>
<rect x="13.5385" y="2.76929" width="0.307692" height="0.615385" fill="#004042"/>
<rect x="13.2308" y="3.38464" width="0.307692" height="0.615385" fill="#004042"/>
<rect x="12.9231" y="4" width="0.307692" height="0.307692" fill="#004042"/>
<rect x="12.6154" y="4.30774" width="0.307692" height="0.307692" fill="#004042"/>
<rect x="12.3077" y="4.61536" width="0.307692" height="0.307692" fill="#004042"/>
<rect x="12" y="4.9231" width="0.307692" height="0.615385" fill="#004042"/>
<rect x="11.6923" y="5.53845" width="0.307692" height="1.53846" fill="#004042"/>
<rect x="11.3846" y="7.0769" width="0.307692" height="1.84615" fill="#004042"/>
<rect x="12.6154" y="1.53845" width="0.307692" height="0.307692" fill="#004042"/>
<rect x="10.7692" y="1.23071" width="1.84615" height="0.307692" fill="#004042"/>
<rect x="7.69232" y="0.923096" width="0.307692" height="1.84615" fill="#004042"/>
<rect x="7.07693" y="0.307739" width="0.307692" height="0.307692" fill="#004042"/>
<rect x="5.23077" width="1.84615" height="0.307692" fill="#004042"/>
<rect x="4.30768" y="0.923096" width="0.307692" height="1.84615" fill="#004042"/>
<rect x="4.30768" y="7.38464" width="0.307692" height="0.615385" fill="#004042"/>
<rect x="2.76923" y="4.9231" width="0.307692" height="0.307692" fill="#004042"/>
<rect x="1.23077" y="4.61536" width="1.53846" height="0.307692" fill="#004042"/>
<rect x="11.6923" y="8.9231" width="0.615385" height="0.307692" fill="#004042"/>
<rect x="12.3077" y="8.61536" width="0.615385" height="0.307692" fill="#004042"/>
<rect x="12.9231" y="8.30774" width="0.307692" height="0.307692" fill="#004042"/>
<rect x="13.2308" y="7.0769" width="0.307692" height="1.23077" fill="#004042"/>
<rect x="13.5385" y="6.46155" width="0.307692" height="0.615385" fill="#004042"/>
<rect x="13.8462" y="5.84619" width="0.307692" height="0.615385" fill="#004042"/>
<rect x="14.1538" y="5.53845" width="0.615385" height="0.307692" fill="#004042"/>
<rect x="14.7692" y="5.23071" width="0.923077" height="0.307692" fill="#004042"/>
<rect x="15.6923" y="5.53845" width="0.615385" height="0.307692" fill="#004042"/>
<rect x="16.3077" y="5.84619" width="0.307692" height="0.307692" fill="#004042"/>
<rect x="16.6154" y="6.15381" width="0.307692" height="0.307692" fill="#004042"/>
<rect x="16.9231" y="6.46155" width="0.307692" height="1.84615" fill="#004042"/>
<rect x="16.6154" y="8.30774" width="0.307692" height="0.307692" fill="#004042"/>
<rect x="16.3077" y="8.61536" width="0.307692" height="0.307692" fill="#004042"/>
<rect x="15.6923" y="8.9231" width="0.615385" height="0.307692" fill="#004042"/>
<rect x="14.7692" y="9.23071" width="0.923077" height="0.307692" fill="#004042"/>
<rect x="14.4615" y="9.53845" width="0.307692" height="0.307692" fill="#004042"/>
<rect x="14.1538" y="9.84619" width="0.307692" height="0.615385" fill="#004042"/>
<rect x="13.8462" y="10.4615" width="0.307692" height="0.615385" fill="#004042"/>
<rect x="13.5385" y="11.0769" width="0.307692" height="0.923077" fill="#004042"/>
<rect x="13.2308" y="12" width="0.307692" height="0.923077" fill="#004042"/>
<rect x="12.9231" y="12.9231" width="0.307692" height="0.923077" fill="#004042"/>
<rect x="12.6154" y="13.8462" width="0.307692" height="0.307692" fill="#004042"/>
<rect width="0.307692" height="0.615385" transform="matrix(-1 0 0 1 5.53845 13.8462)" fill="#004042"/>
<rect width="0.307692" height="0.307692" transform="matrix(-1 0 0 1 5.23077 13.5385)" fill="#004042"/>
<rect width="0.307692" height="0.615385" transform="matrix(-1 0 0 1 5.23077 13.2307)" fill="#004042"/>
<rect width="0.307692" height="0.615385" transform="matrix(-1 0 0 1 4.61539 12)" fill="#004042"/>
<rect width="0.307692" height="1.23077" transform="matrix(-1 0 0 1 4.30768 10.7693)" fill="#004042"/>
<rect width="0.307692" height="0.615385" transform="matrix(-1 0 0 1 4 10.1538)" fill="#004042"/>
<rect width="0.307692" height="0.615385" transform="matrix(-1 0 0 1 3.69232 9.53845)" fill="#004042"/>
<rect width="0.307692" height="0.307692" transform="matrix(-1 0 0 1 3.38461 9.23071)" fill="#004042"/>
<rect width="0.307692" height="0.307692" transform="matrix(-1 0 0 1 3.07693 8.9231)" fill="#004042"/>
<rect width="0.307692" height="0.307692" transform="matrix(-1 0 0 1 2.76923 8.61536)" fill="#004042"/>
<rect width="0.307692" height="0.307692" transform="matrix(-1 0 0 1 2.46155 8.30774)" fill="#004042"/>
<rect width="0.307692" height="0.615385" transform="matrix(-1 0 0 1 4.92307 12.6154)" fill="#004042"/>
<rect x="12.3077" y="14.1538" width="0.307692" height="0.307692" fill="#004042"/>
<rect width="0.307692" height="0.307692" transform="matrix(-1 0 0 1 5.84616 14.4615)" fill="#004042"/>
<rect x="11.6923" y="15.0769" width="0.307692" height="0.307692" fill="#004042"/>
<rect width="0.307692" height="0.307692" transform="matrix(-1 0 0 1 6.46155 15.0769)" fill="#004042"/>
<rect x="10.7692" y="15.3846" width="0.923077" height="0.307692" fill="#004042"/>
<rect x="6.46155" y="15.3846" width="0.923077" height="0.307692" fill="#004042"/>
<rect x="7.38461" y="15.6923" width="3.38462" height="0.307692" fill="#004042"/>
<rect x="12" y="14.4615" width="0.307692" height="0.615385" fill="#004042"/>
<rect width="0.307692" height="0.307692" transform="matrix(-1 0 0 1 6.15384 14.7693)" fill="#004042"/>
<rect x="0.307678" y="6.15381" width="0.307692" height="0.923077" fill="#037F7F"/>
<rect x="0.615387" y="6.46155" width="0.307692" height="0.923077" fill="#037F7F"/>
<rect x="0.923065" y="6.76929" width="0.307692" height="0.923077" fill="#037F7F"/>
<rect x="1.53845" y="7.0769" width="0.307692" height="0.923077" fill="#037F7F"/>
<rect x="2.15384" y="7.38464" width="0.307692" height="0.923077" fill="#037F7F"/>
<rect x="2.46155" y="7.69226" width="0.307692" height="0.923077" fill="#037F7F"/>
<rect x="2.76923" y="8" width="0.307692" height="0.923077" fill="#037F7F"/>
<rect x="3.07693" y="8.30774" width="0.307692" height="0.923077" fill="#037F7F"/>
<rect x="3.38461" y="8.61536" width="0.307692" height="0.923077" fill="#037F7F"/>
<rect x="3.69232" y="8.9231" width="0.307692" height="1.23077" fill="#037F7F"/>
<rect x="4" y="9.53845" width="0.307692" height="1.23077" fill="#037F7F"/>
<rect x="4.30768" y="10.1538" width="0.307692" height="1.84615" fill="#037F7F"/>
<rect x="4.61539" y="11.3846" width="0.307692" height="1.23077" fill="#037F7F"/>
<rect x="4.92307" y="12" width="0.307692" height="1.23077" fill="#037F7F"/>
<rect x="5.23077" y="12.6154" width="0.307692" height="1.23077" fill="#037F7F"/>
<rect x="5.53845" y="13.2307" width="0.307692" height="1.23077" fill="#037F7F"/>
<rect x="5.84616" y="13.8462" width="0.307692" height="0.923077" fill="#037F7F"/>
<rect x="6.15384" y="14.1538" width="0.307692" height="0.923077" fill="#037F7F"/>
<rect x="1.23077" y="7.0769" width="0.307692" height="0.615385" fill="#037F7F"/>
<rect x="1.84616" y="7.38464" width="0.307692" height="0.615385" fill="#037F7F"/>
<rect x="6.46155" y="14.4615" width="0.307692" height="0.923077" fill="#037F7F"/>
<rect x="6.76923" y="14.7693" width="0.923077" height="0.615385" fill="#037F7F"/>
<rect x="7.38461" y="15.0769" width="1.53846" height="0.615385" fill="#037F7F"/>
<rect x="4.61539" y="0.923096" width="0.307692" height="1.84615" fill="#037F7F"/>
<rect x="4.92307" y="2.15381" width="0.307692" height="0.923077" fill="#037F7F"/>
<rect x="5.23077" y="2.46155" width="0.307692" height="0.923077" fill="#037F7F"/>
<rect x="5.53845" y="2.76929" width="0.307692" height="0.923077" fill="#037F7F"/>
<rect x="5.84616" y="3.0769" width="0.307692" height="1.53846" fill="#037F7F"/>
<rect x="9.84616" y="2.76929" width="0.307692" height="0.923077" fill="#037F7F"/>
<rect x="10.1538" y="2.15381" width="0.307692" height="1.23077" fill="#037F7F"/>
<rect x="10.4615" y="1.84619" width="0.307692" height="0.923077" fill="#037F7F"/>
<rect x="10.7692" y="1.53845" width="0.307692" height="0.923077" fill="#037F7F"/>
<rect x="13.8462" y="6.46155" width="0.307692" height="1.23077" fill="#037F7F"/>
<rect x="14.1538" y="5.84619" width="0.307692" height="1.23077" fill="#037F7F"/>
<rect x="14.4615" y="5.84619" width="0.307692" height="0.615385" fill="#037F7F"/>
<rect x="14.7692" y="5.53845" width="0.307692" height="0.615385" fill="#037F7F"/>
<rect x="13.5385" y="7.0769" width="0.307692" height="1.23077" fill="#037F7F"/>
<rect x="0.615387" y="5.53845" width="0.307692" height="0.923077" fill="#00A39D"/>
<rect x="0.923065" y="5.23071" width="0.307692" height="1.53846" fill="#00A39D"/>
<rect x="1.23077" y="4.9231" width="1.53846" height="2.15385" fill="#00A39D"/>
<rect x="1.84616" y="7.0769" width="2.15385" height="0.307692" fill="#00A39D"/>
<rect x="2.76923" y="6.15381" width="0.923077" height="0.923077" fill="#00A39D"/>
<rect x="2.76923" y="5.53845" width="0.615385" height="0.615385" fill="#00A39D"/>
<rect x="2.76923" y="5.23071" width="0.307692" height="0.307692" fill="#00A39D"/>
<rect x="2.46155" y="7.38464" width="1.84615" height="0.307692" fill="#00A39D"/>
<rect x="2.76923" y="7.69226" width="1.53846" height="0.307692" fill="#00A39D"/>
<rect x="3.07693" y="8" width="1.53846" height="0.307692" fill="#00A39D"/>
<rect x="3.38461" y="8.30774" width="1.53846" height="0.307692" fill="#00A39D"/>
<rect x="3.69232" y="8.61536" width="1.84615" height="0.307692" fill="#00A39D"/>
<rect x="6.76923" y="14.4615" width="5.23077" height="0.307692" fill="#00A39D"/>
<rect x="7.69232" y="14.7693" width="4.30769" height="0.307692" fill="#00A39D"/>
<rect x="8.92307" y="15.0769" width="2.76923" height="0.307692" fill="#00A39D"/>
<rect x="8.92307" y="15.3846" width="1.84615" height="0.307692" fill="#00A39D"/>
<path fill-rule="evenodd" clip-rule="evenodd" d="M11.3846 8.61536H6.46154V8.92305H4V9.53843H4.30769V10.1538L4.61538 10.1538V10.4615V11.0769V11.3846H4.92308V12H5.23077V12.6154H5.53846V12.923V13.2307L5.84615 13.2307V13.8461H6.15385V14.1538H6.46154V14.4615H12.3077V14.1538H12.6154V13.8461H12.9231V13.2307V12.923H13.2308L13.2308 12.6154V12H13.5385V11.3846V11.0769H13.8462V10.4615H14.1538V10.1538V9.53843H11.6923V8.92305H11.3846V8.61536Z" fill="#00A39D"/>
<rect x="11.6923" y="9.23071" width="3.07692" height="0.307692" fill="#00A39D"/>
<rect x="14.1538" y="9.53845" width="0.307692" height="0.307692" fill="#00A39D"/>
<rect x="12.3077" y="8.9231" width="3.38462" height="0.307692" fill="#00A39D"/>
<rect x="12.9231" y="8.61536" width="3.38462" height="0.307692" fill="#00A39D"/>
<rect x="13.2308" y="8.30774" width="3.38462" height="0.307692" fill="#00A39D"/>
<rect x="13.8462" y="7.69226" width="3.07692" height="0.615385" fill="#00A39D"/>
<rect x="14.1538" y="7.0769" width="2.76923" height="0.615385" fill="#00A39D"/>
<rect x="14.4615" y="6.46155" width="2.46154" height="0.615385" fill="#00A39D"/>
<rect x="14.7692" y="6.15381" width="1.84615" height="0.307692" fill="#00A39D"/>
<rect x="15.0769" y="5.84619" width="1.23077" height="0.307692" fill="#00A39D"/>
<rect x="15.0769" y="5.53845" width="0.615385" height="0.307692" fill="#00A39D"/>
<rect x="6.76923" y="8.30774" width="4.61539" height="0.307692" fill="#00A39D"/>
<rect x="9.53845" y="8" width="1.84615" height="0.307692" fill="#00A39D"/>
<rect x="9.84616" y="7.38464" width="1.53846" height="0.615385" fill="#00A39D"/>
<rect x="10.1538" y="6.15381" width="1.23077" height="1.23077" fill="#00A39D"/>
<rect x="10.1538" y="3.38464" width="0.307692" height="1.23077" fill="#00A39D"/>
<rect x="10.4615" y="2.76929" width="0.307692" height="3.38462" fill="#00A39D"/>
<rect x="10.7692" y="2.46155" width="0.307692" height="3.69231" fill="#00A39D"/>
<rect x="11.0769" y="1.53845" width="0.615385" height="4.61538" fill="#00A39D"/>
<rect x="11.3846" y="6.15381" width="0.307692" height="0.923077" fill="#00A39D"/>
<rect x="11.6923" y="1.53845" width="0.307692" height="4" fill="#00A39D"/>
<rect x="12" y="1.53845" width="0.307692" height="3.38462" fill="#00A39D"/>
<rect x="12.3077" y="1.53845" width="0.307692" height="3.07692" fill="#00A39D"/>
<rect x="12.6154" y="1.84619" width="0.307692" height="2.46154" fill="#00A39D"/>
<rect x="12.9231" y="2.15381" width="0.307692" height="1.84615" fill="#00A39D"/>
<rect x="13.2308" y="2.76929" width="0.307692" height="0.615385" fill="#00A39D"/>
<rect x="6.76923" y="8" width="2.46154" height="0.307692" fill="#00A39D"/>
<rect x="6.76923" y="7.38464" width="2.15385" height="0.615385" fill="#00A39D"/>
<rect x="6.46155" y="6.46155" width="2.15385" height="0.923077" fill="#00A39D"/>
<rect x="6.46155" y="5.53845" width="1.84615" height="0.923077" fill="#00A39D"/>
<rect x="6.15384" y="0.307739" width="0.307692" height="5.53846" fill="#00A39D"/>
<rect x="6.46155" y="0.307739" width="0.615385" height="5.23077" fill="#00A39D"/>
<rect x="7.07693" y="0.615356" width="0.307692" height="4.92308" fill="#00A39D"/>
<rect x="7.38461" y="3.69226" width="0.307692" height="1.84615" fill="#00A39D"/>
<rect x="7.69232" y="4.61536" width="0.307692" height="0.923077" fill="#00A39D"/>
<rect x="7.38461" y="0.923096" width="0.307692" height="1.84615" fill="#00A39D"/>
<rect x="5.23077" y="2.15381" width="0.923077" height="0.307692" fill="#00A39D"/>
<rect x="5.84616" y="2.76929" width="0.307692" height="0.307692" fill="#00A39D"/>
<rect x="5.53845" y="2.46155" width="0.615385" height="0.307692" fill="#00A39D"/>
<rect x="12" y="2.15381" width="0.615385" height="0.615385" fill="#00F8EE"/>
<rect x="16" y="6.76929" width="0.615385" height="0.615385" fill="#00F8EE"/>
<rect x="2.15384" y="5.53845" width="0.615385" height="0.615385" fill="#00F8EE"/>
<rect x="6.46155" y="0.923096" width="0.615385" height="0.615385" fill="#00F8EE"/>
<rect x="1.84616" y="4.9231" width="0.923077" height="0.615385" fill="#00DAD2"/>
<rect x="2.76923" y="5.23071" width="0.307692" height="0.923077" fill="#00DAD2"/>
<rect x="3.07693" y="5.53845" width="0.307692" height="1.23077" fill="#00DAD2"/>
<rect x="3.38461" y="6.15381" width="0.307692" height="1.23077" fill="#00DAD2"/>
<rect x="3.69232" y="7.0769" width="0.307692" height="0.615385" fill="#00DAD2"/>
<rect x="4" y="7.38464" width="0.307692" height="0.615385" fill="#00DAD2"/>
<rect x="6.15384" y="0.307739" width="0.923077" height="0.615385" fill="#00DAD2"/>
<rect x="7.07693" y="0.615356" width="0.307692" height="1.23077" fill="#00DAD2"/>
<rect x="7.38461" y="0.923096" width="0.307692" height="1.84615" fill="#00DAD2"/>
<rect x="13.2308" y="2.76929" width="0.307692" height="0.615385" fill="#00DAD2"/>
<rect x="12.9231" y="2.15381" width="0.307692" height="0.923077" fill="#00DAD2"/>
<rect x="12.6154" y="1.84619" width="0.307692" height="0.923077" fill="#00DAD2"/>
<rect x="11.6923" y="1.53845" width="0.923077" height="0.615385" fill="#00DAD2"/>
<rect x="16" y="6.15381" width="0.615385" height="0.615385" fill="#00DAD2"/>
<rect x="16.6154" y="6.46155" width="0.307692" height="1.84615" fill="#00DAD2"/>
<rect x="15.3846" y="5.84619" width="0.923077" height="0.307692" fill="#00DAD2"/>
<rect x="15.3846" y="5.53845" width="0.307692" height="0.307692" fill="#00DAD2"/>
<rect x="15.6923" y="6.15381" width="0.307692" height="0.307692" fill="#00DAD2"/>
<rect x="5.23077" y="0.307739" width="0.923077" height="0.923077" fill="#00BFB8"/>
<rect x="6.15384" y="0.923096" width="0.307692" height="0.615385" fill="#00BFB8"/>
<rect x="7.07693" y="1.84619" width="0.307692" height="2.46154" fill="#00BFB8"/>
<rect x="7.38461" y="3.69226" width="0.307692" height="1.53846" fill="#00BFB8"/>
<rect x="7.69232" y="4.61536" width="0.307692" height="1.53846" fill="#00BFB8"/>
<rect x="8" y="5.53845" width="0.307692" height="1.53846" fill="#00BFB8"/>
<rect x="8.30768" y="6.46155" width="0.307692" height="1.53846" fill="#00BFB8"/>
<rect x="8.61539" y="7.38464" width="0.307692" height="0.923077" fill="#00BFB8"/>
<rect x="8.92307" y="8" width="0.307692" height="0.615385" fill="#00BFB8"/>
<rect x="9.53845" y="8" width="0.307692" height="0.307692" fill="#00BFB8"/>
<rect x="4.92307" y="0.615356" width="0.307692" height="1.53846" fill="#00BFB8"/>
<rect x="5.23077" y="1.23071" width="0.307692" height="0.307692" fill="#00BFB8"/>
<rect x="9.23077" y="8.30774" width="0.307692" height="0.307692" fill="#00BFB8"/>
<rect x="15.0769" y="5.53845" width="0.307692" height="1.23077" fill="#00BFB8"/>
<rect x="15.3846" y="6.15381" width="0.307692" height="0.615385" fill="#00BFB8"/>
<rect x="15.6923" y="6.46155" width="0.307692" height="0.923077" fill="#00BFB8"/>
<rect x="16" y="7.38464" width="0.615385" height="0.307692" fill="#00BFB8"/>
<rect x="16.3077" y="7.69226" width="0.307692" height="0.307692" fill="#00BFB8"/>
<rect x="14.7692" y="6.15381" width="0.307692" height="0.923077" fill="#00BFB8"/>
<rect x="14.7692" y="6.15381" width="0.307692" height="0.923077" fill="#00BFB8"/>
<rect x="14.4615" y="6.46155" width="0.307692" height="0.923077" fill="#00BFB8"/>
<rect x="14.1538" y="7.0769" width="0.307692" height="0.923077" fill="#00BFB8"/>
<rect x="13.8462" y="7.69226" width="0.307692" height="0.615385" fill="#00BFB8"/>
<rect x="13.2308" y="8.30774" width="0.923077" height="0.307692" fill="#00BFB8"/>
<rect x="12.9231" y="8.61536" width="0.923077" height="0.307692" fill="#00BFB8"/>
<rect x="12.3077" y="8.9231" width="0.923077" height="0.307692" fill="#00BFB8"/>
<rect x="16.3077" y="8" width="0.307692" height="0.615385" fill="#00BFB8"/>
<rect x="16" y="8.30774" width="0.307692" height="0.615385" fill="#00BFB8"/>
<rect x="1.23077" y="4.9231" width="0.615385" height="0.615385" fill="#00BFB8"/>
<rect x="0.923065" y="5.23071" width="0.307692" height="0.923077" fill="#00BFB8"/>
<rect x="0.615387" y="5.53845" width="0.307692" height="0.923077" fill="#00BFB8"/>
<rect x="1.23077" y="5.53845" width="0.923077" height="0.615385" fill="#00BFB8"/>
<rect x="0.923065" y="6.15381" width="0.615385" height="0.615385" fill="#00BFB8"/>
<rect x="1.23077" y="6.76929" width="0.307692" height="0.307692" fill="#00BFB8"/>
<rect x="1.53845" y="6.15381" width="0.307692" height="0.307692" fill="#00BFB8"/>
<rect x="11.0769" y="1.53845" width="0.615385" height="1.23077" fill="#00BFB8"/>
<rect x="11.6923" y="2.15381" width="0.307692" height="0.615385" fill="#00BFB8"/>
<rect x="10.7692" y="2.46155" width="0.307692" height="0.923077" fill="#00BFB8"/>
<rect x="10.4615" y="2.76929" width="0.307692" height="0.923077" fill="#00BFB8"/>
<rect x="10.1538" y="3.38464" width="0.307692" height="0.923077" fill="#00BFB8"/>
<rect x="11.0769" y="2.76929" width="0.307692" height="0.307692" fill="#00BFB8"/>
<rect width="0.307692" height="1.53846" transform="matrix(-1 0 0 1 9.84616 8)" fill="#004042"/>
<rect x="6.46155" y="8.61536" width="0.307692" height="0.923077" fill="#004042"/>
<rect width="0.307692" height="1.53846" transform="matrix(-1 0 0 1 9.53845 9.23071)" fill="#004042"/>
<rect width="0.307692" height="0.307692" transform="matrix(-1 0 0 1 11.6923 9.23071)" fill="#004042"/>
<rect x="6.76923" y="9.23071" width="0.307692" height="0.923077" fill="#004042"/>
<rect x="6.15384" y="8.9231" width="0.307692" height="0.923077" fill="#00F8EE"/>
<rect x="6.46155" y="9.53845" width="0.307692" height="0.615385" fill="#00F8EE"/>
<rect x="8.92307" y="8.9231" width="0.307692" height="1.84615" fill="#00F8EE"/>
<rect x="9.23077" y="8.61536" width="0.307692" height="0.615385" fill="#00F8EE"/>
<rect x="11.3846" y="9.53845" width="0.615385" height="0.307692" fill="#00F8EE"/>
<rect x="11.6923" y="9.23071" width="0.923077" height="0.307692" fill="#00F8EE"/>
<rect x="8.92307" y="15.3846" width="1.84615" height="0.307692" fill="#00F8EE"/>
<rect x="10.4615" y="15.0769" width="1.23077" height="0.307692" fill="#00F8EE"/>
<rect x="11.0769" y="14.7693" width="0.923077" height="0.307692" fill="#00F8EE"/>
<rect x="2.76923" y="8.61536" width="0.307692" height="0.307692" fill="#00F8EE"/>
<rect x="3.07693" y="8.9231" width="0.307692" height="0.307692" fill="#00F8EE"/>
<rect x="10.7692" y="1.53845" width="1.23077" height="0.307692" fill="#00F8EE"/>
<rect x="10.4615" y="1.84619" width="0.923077" height="0.307692" fill="#00F8EE"/>
<rect x="9.53845" y="9.53845" width="0.307692" height="1.23077" fill="#00918C"/>
<rect x="9.84616" y="7.38464" width="0.307692" height="2.76923" fill="#00ABA6"/>
<rect x="10.1538" y="6.15381" width="0.307692" height="1.84615" fill="#00ABA6"/>
<rect x="10.4615" y="3.69226" width="0.307692" height="3.07692" fill="#00ABA6"/>
<rect x="10.1538" y="4.30774" width="0.307692" height="0.307692" fill="#00ABA6"/>
<rect x="10.7692" y="3.38464" width="0.307692" height="0.923077" fill="#00ABA6"/>
<rect x="11.0769" y="3.0769" width="0.307692" height="0.923077" fill="#00ABA6"/>
<rect x="11.3846" y="2.76929" width="0.307692" height="0.923077" fill="#00ABA6"/>
<rect x="11.6923" y="2.76929" width="1.23077" height="0.307692" fill="#00ABA6"/>
<rect x="11.6923" y="3.0769" width="0.307692" height="0.307692" fill="#00ABA6"/>
<rect x="9.53845" y="14.7693" width="0.307692" height="0.307692" fill="#00F8EE"/>
<rect x="12.3077" y="9.84619" width="0.307692" height="0.307692" fill="#00F8EE"/>
<rect x="15.0769" y="6.76929" width="0.615385" height="0.615385" fill="#00ABA6"/>
<rect x="14.7692" y="7.0769" width="0.307692" height="0.615385" fill="#00ABA6"/>
<rect x="14.4615" y="7.38464" width="0.307692" height="0.923077" fill="#00ABA6"/>
<rect x="14.1538" y="8" width="0.307692" height="0.923077" fill="#00ABA6"/>
<rect x="13.8462" y="8.61536" width="0.307692" height="0.615385" fill="#00ABA6"/>
<rect x="13.2308" y="8.9231" width="0.615385" height="0.307692" fill="#00ABA6"/>
<rect x="12.6154" y="9.23071" width="0.923077" height="0.307692" fill="#00ABA6"/>
<rect x="5.23077" y="1.53845" width="0.307692" height="0.923077" fill="#00ABA6"/>
<rect x="5.53845" y="1.23071" width="0.615385" height="0.615385" fill="#00ABA6"/>
<rect x="6.15384" y="1.53845" width="0.923077" height="0.615385" fill="#00ABA6"/>
<rect x="6.76923" y="2.15381" width="0.307692" height="2.46154" fill="#00ABA6"/>
<rect x="7.07693" y="4.30774" width="0.307692" height="1.23077" fill="#00ABA6"/>
<rect x="7.38461" y="5.23071" width="0.307692" height="1.23077" fill="#00ABA6"/>
<rect x="7.69232" y="6.15381" width="0.307692" height="1.23077" fill="#00ABA6"/>
<rect x="8" y="7.0769" width="0.307692" height="1.23077" fill="#00ABA6"/>
<rect x="8.30768" y="8" width="0.307692" height="0.615385" fill="#00ABA6"/>
<rect x="8.61539" y="8.30774" width="0.307692" height="0.615385" fill="#00ABA6"/>
<rect x="8.92307" y="8.61536" width="0.307692" height="0.307692" fill="#00ABA6"/>
<rect x="1.53845" y="6.46155" width="0.307692" height="0.615385" fill="#00ABA6"/>
<rect x="1.84616" y="6.15381" width="0.307692" height="0.615385" fill="#00ABA6"/>
<rect x="2.15384" y="6.15381" width="0.923077" height="0.307692" fill="#00ABA6"/>
<rect x="2.76923" y="6.46155" width="0.307692" height="0.615385" fill="#00ABA6"/>
<rect x="3.07693" y="6.76929" width="0.307692" height="0.923077" fill="#00ABA6"/>
<rect x="3.38461" y="7.38464" width="0.307692" height="0.615385" fill="#00ABA6"/>
<rect x="3.69232" y="7.69226" width="0.307692" height="0.615385" fill="#00ABA6"/>
<rect x="4" y="8" width="0.615385" height="0.615385" fill="#00ABA6"/>
<rect x="4.61539" y="8.30774" width="0.307692" height="0.615385" fill="#00ABA6"/>
<rect x="4.92307" y="8.61536" width="0.615385" height="0.615385" fill="#00ABA6"/>
<rect x="5.53845" y="8.9231" width="0.615385" height="0.615385" fill="#00ABA6"/>
<rect x="8.92307" y="15.0769" width="1.53846" height="0.307692" fill="#00ABA6"/>
<rect x="10.1538" y="14.7693" width="0.923077" height="0.307692" fill="#00ABA6"/>
<rect x="10.7692" y="14.4615" width="1.23077" height="0.307692" fill="#00ABA6"/>
<rect x="11.6923" y="14.1538" width="0.615385" height="0.307692" fill="#00ABA6"/>
<rect x="12" y="13.8462" width="0.615385" height="0.307692" fill="#00ABA6"/>
<rect x="12.6154" y="12.6154" width="0.307692" height="1.23077" fill="#00ABA6"/>
<rect x="12.3077" y="13.5385" width="0.307692" height="0.307692" fill="#00ABA6"/>
<rect x="12.9231" y="12" width="0.307692" height="0.923077" fill="#00ABA6"/>
<rect x="8.61539" y="8.9231" width="0.307692" height="2.15385" fill="#00ABA6"/>
<rect x="4.61539" y="10.1538" width="0.307692" height="1.23077" fill="#009797"/>
<rect x="4.92307" y="11.0769" width="0.307692" height="0.923077" fill="#009797"/>
<rect x="5.23077" y="11.6923" width="0.307692" height="0.923077" fill="#009797"/>
<rect x="5.53845" y="12.3077" width="0.307692" height="0.923077" fill="#009797"/>
<rect x="5.84616" y="12.9231" width="0.307692" height="0.923077" fill="#009797"/>
<rect x="6.15384" y="13.5385" width="0.307692" height="0.615385" fill="#009797"/>
<rect x="6.46155" y="13.8462" width="0.307692" height="0.615385" fill="#009797"/>
<rect x="6.76923" y="14.1538" width="0.307692" height="0.615385" fill="#009797"/>
<rect x="7.07693" y="14.4615" width="0.615385" height="0.307692" fill="#009797"/>
<rect x="7.69232" y="14.7693" width="1.23077" height="0.307692" fill="#009797"/>
</svg>
