<svg width="214" height="360" viewBox="0 0 214 360" fill="none" xmlns="http://www.w3.org/2000/svg">
<rect x="0.666626" width="213.333" height="360" fill="#F1F5FF"/>
<path fill-rule="evenodd" clip-rule="evenodd" d="M69 164H47V166H44V168V188H46V190H48H67H69V188H71V168V166H69V164ZM67 188V186H69V168H67V166H48V168H46V186H48V188H67Z" fill="#2A2900"/>
<path fill-rule="evenodd" clip-rule="evenodd" d="M69 218H47V220H44V222V242H46V244H48H67H69V242H71V222V220H69V218ZM67 242V240H69V222H67V220H48V222H46V240H48V242H67Z" fill="#2A2900"/>
<path fill-rule="evenodd" clip-rule="evenodd" d="M69 272H47V274H44V276V296H46V298H48H67H69V296H71V276V274H69V272ZM67 296V294H69V276H67V274H48V276H46V294H48V296H67Z" fill="#2A2900"/>
<path d="M67 166H48V168H46V174H69V168H67V166Z" fill="#FFE380"/>
<path d="M67 220H48V222H46V228H69V222H67V220Z" fill="#FFE380"/>
<path d="M67 274H48V276H46V282H69V276H67V274Z" fill="#FFE380"/>
<path d="M69 186V174H46V186H48V188H67V186H69Z" fill="#FFD43E"/>
<path d="M69 240V228H46V240H48V242H67V240H69Z" fill="#FFD43E"/>
<path d="M69 294V282H46V294H48V296H67V294H69Z" fill="#FFD43E"/>
<path d="M61 117H53V128H56V123H59V128H62V123H61V121H62V119H61V117Z" fill="white"/>
<path d="M120 54H117V61H119V62H125V65H119V67H127V65H128V54H125V60H120V54Z" fill="white"/>
<path d="M114 54H107V56H113V58H106V60H107V62H115V56H114V54Z" fill="white"/>
<path d="M102 50H99V61H100V62H103V60H102V50Z" fill="white"/>
<path d="M95 50H86V62H89V56H95V55H97V52H95V50Z" fill="white"/>
<path d="M128 28H118V30H122V40H125V30H128V28Z" fill="white"/>
<path d="M139 33H132V34H130V39H132V40H139V39H141V34H139V33Z" fill="white"/>
<mask id="path-17-outside-1_713_450" maskUnits="userSpaceOnUse" x="79.6666" y="171" width="37" height="15" fill="black">
<rect fill="white" x="79.6666" y="171" width="37" height="15"/>
<path d="M82.701 181V179.983H81.6838V177.946H83.7209V179.983H86.7752V173.874H83.7209V172.857H88.8096V179.983H87.7924V181H82.701ZM91.3526 181V179.983H90.3354V175.911H92.3725V179.983H95.4268V175.911H97.4612V179.983H96.444V181H91.3526ZM98.9869 181V175.911H105.096V176.929H106.113V181H104.078V176.929H103.058V181H102.041V176.929H101.024V181H98.9869ZM112.73 179.983V176.929H109.676V179.983H112.73ZM107.639 184.054V175.911H113.747V176.929H114.764V179.983H113.747V181H109.676V184.054H107.639Z"/>
</mask>
<path d="M82.701 181V179.983H81.6838V177.946H83.7209V179.983H86.7752V173.874H83.7209V172.857H88.8096V179.983H87.7924V181H82.701ZM91.3526 181V179.983H90.3354V175.911H92.3725V179.983H95.4268V175.911H97.4612V179.983H96.444V181H91.3526ZM98.9869 181V175.911H105.096V176.929H106.113V181H104.078V176.929H103.058V181H102.041V176.929H101.024V181H98.9869ZM112.73 179.983V176.929H109.676V179.983H112.73ZM107.639 184.054V175.911H113.747V176.929H114.764V179.983H113.747V181H109.676V184.054H107.639Z" fill="white"/>
<path d="M82.701 181H81.301V182.4H82.701V181ZM82.701 179.983H84.101V178.583H82.701V179.983ZM81.6838 179.983H80.2838V181.383H81.6838V179.983ZM81.6838 177.946V176.546H80.2838V177.946H81.6838ZM83.7209 177.946H85.1209V176.546H83.7209V177.946ZM83.7209 179.983H82.3209V181.383H83.7209V179.983ZM86.7752 179.983V181.383H88.1752V179.983H86.7752ZM86.7752 173.874H88.1752V172.474H86.7752V173.874ZM83.7209 173.874H82.3209V175.274H83.7209V173.874ZM83.7209 172.857V171.457H82.3209V172.857H83.7209ZM88.8096 172.857H90.2096V171.457H88.8096V172.857ZM88.8096 179.983V181.383H90.2096V179.983H88.8096ZM87.7924 179.983V178.583H86.3924V179.983H87.7924ZM87.7924 181V182.4H89.1924V181H87.7924ZM84.101 181V179.983H81.301V181H84.101ZM82.701 178.583H81.6838V181.383H82.701V178.583ZM83.0838 179.983V177.946H80.2838V179.983H83.0838ZM81.6838 179.346H83.7209V176.546H81.6838V179.346ZM82.3209 177.946V179.983H85.1209V177.946H82.3209ZM83.7209 181.383H86.7752V178.583H83.7209V181.383ZM88.1752 179.983V173.874H85.3752V179.983H88.1752ZM86.7752 172.474H83.7209V175.274H86.7752V172.474ZM85.1209 173.874V172.857H82.3209V173.874H85.1209ZM83.7209 174.257H88.8096V171.457H83.7209V174.257ZM87.4096 172.857V179.983H90.2096V172.857H87.4096ZM88.8096 178.583H87.7924V181.383H88.8096V178.583ZM86.3924 179.983V181H89.1924V179.983H86.3924ZM87.7924 179.6H82.701V182.4H87.7924V179.6ZM91.3526 181H89.9526V182.4H91.3526V181ZM91.3526 179.983H92.7526V178.583H91.3526V179.983ZM90.3354 179.983H88.9354V181.383H90.3354V179.983ZM90.3354 175.911V174.511H88.9354V175.911H90.3354ZM92.3725 175.911H93.7725V174.511H92.3725V175.911ZM92.3725 179.983H90.9725V181.383H92.3725V179.983ZM95.4268 179.983V181.383H96.8268V179.983H95.4268ZM95.4268 175.911V174.511H94.0268V175.911H95.4268ZM97.4612 175.911H98.8612V174.511H97.4612V175.911ZM97.4612 179.983V181.383H98.8612V179.983H97.4612ZM96.444 179.983V178.583H95.044V179.983H96.444ZM96.444 181V182.4H97.844V181H96.444ZM92.7526 181V179.983H89.9526V181H92.7526ZM91.3526 178.583H90.3354V181.383H91.3526V178.583ZM91.7354 179.983V175.911H88.9354V179.983H91.7354ZM90.3354 177.311H92.3725V174.511H90.3354V177.311ZM90.9725 175.911V179.983H93.7725V175.911H90.9725ZM92.3725 181.383H95.4268V178.583H92.3725V181.383ZM96.8268 179.983V175.911H94.0268V179.983H96.8268ZM95.4268 177.311H97.4612V174.511H95.4268V177.311ZM96.0612 175.911V179.983H98.8612V175.911H96.0612ZM97.4612 178.583H96.444V181.383H97.4612V178.583ZM95.044 179.983V181H97.844V179.983H95.044ZM96.444 179.6H91.3526V182.4H96.444V179.6ZM98.9869 181H97.5869V182.4H98.9869V181ZM98.9869 175.911V174.511H97.5869V175.911H98.9869ZM105.096 175.911H106.496V174.511H105.096V175.911ZM105.096 176.929H103.696V178.329H105.096V176.929ZM106.113 176.929H107.513V175.529H106.113V176.929ZM106.113 181V182.4H107.513V181H106.113ZM104.078 181H102.678V182.4H104.078V181ZM104.078 176.929H105.478V175.529H104.078V176.929ZM103.058 176.929V175.529H101.658V176.929H103.058ZM103.058 181V182.4H104.458V181H103.058ZM102.041 181H100.641V182.4H102.041V181ZM102.041 176.929H103.441V175.529H102.041V176.929ZM101.024 176.929V175.529H99.624V176.929H101.024ZM101.024 181V182.4H102.424V181H101.024ZM100.387 181V175.911H97.5869V181H100.387ZM98.9869 177.311H105.096V174.511H98.9869V177.311ZM103.696 175.911V176.929H106.496V175.911H103.696ZM105.096 178.329H106.113V175.529H105.096V178.329ZM104.713 176.929V181H107.513V176.929H104.713ZM106.113 179.6H104.078V182.4H106.113V179.6ZM105.478 181V176.929H102.678V181H105.478ZM104.078 175.529H103.058V178.329H104.078V175.529ZM101.658 176.929V181H104.458V176.929H101.658ZM103.058 179.6H102.041V182.4H103.058V179.6ZM103.441 181V176.929H100.641V181H103.441ZM102.041 175.529H101.024V178.329H102.041V175.529ZM99.624 176.929V181H102.424V176.929H99.624ZM101.024 179.6H98.9869V182.4H101.024V179.6ZM112.73 179.983V181.383H114.13V179.983H112.73ZM112.73 176.929H114.13V175.529H112.73V176.929ZM109.676 176.929V175.529H108.276V176.929H109.676ZM109.676 179.983H108.276V181.383H109.676V179.983ZM107.639 184.054H106.239V185.454H107.639V184.054ZM107.639 175.911V174.511H106.239V175.911H107.639ZM113.747 175.911H115.147V174.511H113.747V175.911ZM113.747 176.929H112.347V178.329H113.747V176.929ZM114.764 176.929H116.164V175.529H114.764V176.929ZM114.764 179.983V181.383H116.164V179.983H114.764ZM113.747 179.983V178.583H112.347V179.983H113.747ZM113.747 181V182.4H115.147V181H113.747ZM109.676 181V179.6H108.276V181H109.676ZM109.676 184.054V185.454H111.076V184.054H109.676ZM114.13 179.983V176.929H111.33V179.983H114.13ZM112.73 175.529H109.676V178.329H112.73V175.529ZM108.276 176.929V179.983H111.076V176.929H108.276ZM109.676 181.383H112.73V178.583H109.676V181.383ZM109.039 184.054V175.911H106.239V184.054H109.039ZM107.639 177.311H113.747V174.511H107.639V177.311ZM112.347 175.911V176.929H115.147V175.911H112.347ZM113.747 178.329H114.764V175.529H113.747V178.329ZM113.364 176.929V179.983H116.164V176.929H113.364ZM114.764 178.583H113.747V181.383H114.764V178.583ZM112.347 179.983V181H115.147V179.983H112.347ZM113.747 179.6H109.676V182.4H113.747V179.6ZM108.276 181V184.054H111.076V181H108.276ZM109.676 182.654H107.639V185.454H109.676V182.654Z" fill="#2A2900" mask="url(#path-17-outside-1_713_450)"/>
<mask id="path-19-outside-2_713_450" maskUnits="userSpaceOnUse" x="79.6666" y="225" width="87" height="15" fill="black">
<rect fill="white" x="79.6666" y="225" width="87" height="15"/>
<path d="M82.701 235V233.983H81.6838V231.946H83.7209V233.983H86.7752V227.874H83.7209V226.857H88.8096V233.983H87.7924V235H82.701ZM91.3526 235V233.983H90.3354V229.911H92.3725V233.983H95.4268V229.911H97.4612V233.983H96.444V235H91.3526ZM98.9869 235V229.911H105.096V230.929H106.113V235H104.078V230.929H103.058V235H102.041V230.929H101.024V235H98.9869ZM112.73 233.983V230.929H109.676V233.983H112.73ZM107.639 238.054V229.911H113.747V230.929H114.764V233.983H113.747V235H109.676V238.054H107.639ZM120.359 235V226.857H122.396V229.911H126.467V230.929H127.485V235H125.45V230.929H122.396V235H120.359ZM129.01 235V229.911H131.047V235H129.01ZM129.01 228.891V226.857H131.047V228.891H129.01ZM137.667 233.983V230.929H134.613V233.983H137.667ZM133.593 238.054V237.034H137.667V235H133.593V233.983H132.576V230.929H133.593V229.911H139.702V237.034H138.685V238.054H133.593ZM141.228 235V226.857H143.265V229.911H147.336V230.929H148.353V235H146.319V230.929H143.265V235H141.228ZM154.971 231.946V230.929H151.916V231.946H154.971ZM150.896 235V233.983H149.879V230.929H150.896V229.911H155.988V230.929H157.005V232.966H151.916V233.983H155.988V235H150.896ZM158.531 235V229.911H160.568V230.929H161.585V231.946H160.568V235H158.531ZM161.585 230.929V229.911H164.639V230.929H161.585Z"/>
</mask>
<path d="M82.701 235V233.983H81.6838V231.946H83.7209V233.983H86.7752V227.874H83.7209V226.857H88.8096V233.983H87.7924V235H82.701ZM91.3526 235V233.983H90.3354V229.911H92.3725V233.983H95.4268V229.911H97.4612V233.983H96.444V235H91.3526ZM98.9869 235V229.911H105.096V230.929H106.113V235H104.078V230.929H103.058V235H102.041V230.929H101.024V235H98.9869ZM112.73 233.983V230.929H109.676V233.983H112.73ZM107.639 238.054V229.911H113.747V230.929H114.764V233.983H113.747V235H109.676V238.054H107.639ZM120.359 235V226.857H122.396V229.911H126.467V230.929H127.485V235H125.45V230.929H122.396V235H120.359ZM129.01 235V229.911H131.047V235H129.01ZM129.01 228.891V226.857H131.047V228.891H129.01ZM137.667 233.983V230.929H134.613V233.983H137.667ZM133.593 238.054V237.034H137.667V235H133.593V233.983H132.576V230.929H133.593V229.911H139.702V237.034H138.685V238.054H133.593ZM141.228 235V226.857H143.265V229.911H147.336V230.929H148.353V235H146.319V230.929H143.265V235H141.228ZM154.971 231.946V230.929H151.916V231.946H154.971ZM150.896 235V233.983H149.879V230.929H150.896V229.911H155.988V230.929H157.005V232.966H151.916V233.983H155.988V235H150.896ZM158.531 235V229.911H160.568V230.929H161.585V231.946H160.568V235H158.531ZM161.585 230.929V229.911H164.639V230.929H161.585Z" fill="white"/>
<path d="M82.701 235H81.301V236.4H82.701V235ZM82.701 233.983H84.101V232.583H82.701V233.983ZM81.6838 233.983H80.2838V235.383H81.6838V233.983ZM81.6838 231.946V230.546H80.2838V231.946H81.6838ZM83.7209 231.946H85.1209V230.546H83.7209V231.946ZM83.7209 233.983H82.3209V235.383H83.7209V233.983ZM86.7752 233.983V235.383H88.1752V233.983H86.7752ZM86.7752 227.874H88.1752V226.474H86.7752V227.874ZM83.7209 227.874H82.3209V229.274H83.7209V227.874ZM83.7209 226.857V225.457H82.3209V226.857H83.7209ZM88.8096 226.857H90.2096V225.457H88.8096V226.857ZM88.8096 233.983V235.383H90.2096V233.983H88.8096ZM87.7924 233.983V232.583H86.3924V233.983H87.7924ZM87.7924 235V236.4H89.1924V235H87.7924ZM84.101 235V233.983H81.301V235H84.101ZM82.701 232.583H81.6838V235.383H82.701V232.583ZM83.0838 233.983V231.946H80.2838V233.983H83.0838ZM81.6838 233.346H83.7209V230.546H81.6838V233.346ZM82.3209 231.946V233.983H85.1209V231.946H82.3209ZM83.7209 235.383H86.7752V232.583H83.7209V235.383ZM88.1752 233.983V227.874H85.3752V233.983H88.1752ZM86.7752 226.474H83.7209V229.274H86.7752V226.474ZM85.1209 227.874V226.857H82.3209V227.874H85.1209ZM83.7209 228.257H88.8096V225.457H83.7209V228.257ZM87.4096 226.857V233.983H90.2096V226.857H87.4096ZM88.8096 232.583H87.7924V235.383H88.8096V232.583ZM86.3924 233.983V235H89.1924V233.983H86.3924ZM87.7924 233.6H82.701V236.4H87.7924V233.6ZM91.3526 235H89.9526V236.4H91.3526V235ZM91.3526 233.983H92.7526V232.583H91.3526V233.983ZM90.3354 233.983H88.9354V235.383H90.3354V233.983ZM90.3354 229.911V228.511H88.9354V229.911H90.3354ZM92.3725 229.911H93.7725V228.511H92.3725V229.911ZM92.3725 233.983H90.9725V235.383H92.3725V233.983ZM95.4268 233.983V235.383H96.8268V233.983H95.4268ZM95.4268 229.911V228.511H94.0268V229.911H95.4268ZM97.4612 229.911H98.8612V228.511H97.4612V229.911ZM97.4612 233.983V235.383H98.8612V233.983H97.4612ZM96.444 233.983V232.583H95.044V233.983H96.444ZM96.444 235V236.4H97.844V235H96.444ZM92.7526 235V233.983H89.9526V235H92.7526ZM91.3526 232.583H90.3354V235.383H91.3526V232.583ZM91.7354 233.983V229.911H88.9354V233.983H91.7354ZM90.3354 231.311H92.3725V228.511H90.3354V231.311ZM90.9725 229.911V233.983H93.7725V229.911H90.9725ZM92.3725 235.383H95.4268V232.583H92.3725V235.383ZM96.8268 233.983V229.911H94.0268V233.983H96.8268ZM95.4268 231.311H97.4612V228.511H95.4268V231.311ZM96.0612 229.911V233.983H98.8612V229.911H96.0612ZM97.4612 232.583H96.444V235.383H97.4612V232.583ZM95.044 233.983V235H97.844V233.983H95.044ZM96.444 233.6H91.3526V236.4H96.444V233.6ZM98.9869 235H97.5869V236.4H98.9869V235ZM98.9869 229.911V228.511H97.5869V229.911H98.9869ZM105.096 229.911H106.496V228.511H105.096V229.911ZM105.096 230.929H103.696V232.329H105.096V230.929ZM106.113 230.929H107.513V229.529H106.113V230.929ZM106.113 235V236.4H107.513V235H106.113ZM104.078 235H102.678V236.4H104.078V235ZM104.078 230.929H105.478V229.529H104.078V230.929ZM103.058 230.929V229.529H101.658V230.929H103.058ZM103.058 235V236.4H104.458V235H103.058ZM102.041 235H100.641V236.4H102.041V235ZM102.041 230.929H103.441V229.529H102.041V230.929ZM101.024 230.929V229.529H99.624V230.929H101.024ZM101.024 235V236.4H102.424V235H101.024ZM100.387 235V229.911H97.5869V235H100.387ZM98.9869 231.311H105.096V228.511H98.9869V231.311ZM103.696 229.911V230.929H106.496V229.911H103.696ZM105.096 232.329H106.113V229.529H105.096V232.329ZM104.713 230.929V235H107.513V230.929H104.713ZM106.113 233.6H104.078V236.4H106.113V233.6ZM105.478 235V230.929H102.678V235H105.478ZM104.078 229.529H103.058V232.329H104.078V229.529ZM101.658 230.929V235H104.458V230.929H101.658ZM103.058 233.6H102.041V236.4H103.058V233.6ZM103.441 235V230.929H100.641V235H103.441ZM102.041 229.529H101.024V232.329H102.041V229.529ZM99.624 230.929V235H102.424V230.929H99.624ZM101.024 233.6H98.9869V236.4H101.024V233.6ZM112.73 233.983V235.383H114.13V233.983H112.73ZM112.73 230.929H114.13V229.529H112.73V230.929ZM109.676 230.929V229.529H108.276V230.929H109.676ZM109.676 233.983H108.276V235.383H109.676V233.983ZM107.639 238.054H106.239V239.454H107.639V238.054ZM107.639 229.911V228.511H106.239V229.911H107.639ZM113.747 229.911H115.147V228.511H113.747V229.911ZM113.747 230.929H112.347V232.329H113.747V230.929ZM114.764 230.929H116.164V229.529H114.764V230.929ZM114.764 233.983V235.383H116.164V233.983H114.764ZM113.747 233.983V232.583H112.347V233.983H113.747ZM113.747 235V236.4H115.147V235H113.747ZM109.676 235V233.6H108.276V235H109.676ZM109.676 238.054V239.454H111.076V238.054H109.676ZM114.13 233.983V230.929H111.33V233.983H114.13ZM112.73 229.529H109.676V232.329H112.73V229.529ZM108.276 230.929V233.983H111.076V230.929H108.276ZM109.676 235.383H112.73V232.583H109.676V235.383ZM109.039 238.054V229.911H106.239V238.054H109.039ZM107.639 231.311H113.747V228.511H107.639V231.311ZM112.347 229.911V230.929H115.147V229.911H112.347ZM113.747 232.329H114.764V229.529H113.747V232.329ZM113.364 230.929V233.983H116.164V230.929H113.364ZM114.764 232.583H113.747V235.383H114.764V232.583ZM112.347 233.983V235H115.147V233.983H112.347ZM113.747 233.6H109.676V236.4H113.747V233.6ZM108.276 235V238.054H111.076V235H108.276ZM109.676 236.654H107.639V239.454H109.676V236.654ZM120.359 235H118.959V236.4H120.359V235ZM120.359 226.857V225.457H118.959V226.857H120.359ZM122.396 226.857H123.796V225.457H122.396V226.857ZM122.396 229.911H120.996V231.311H122.396V229.911ZM126.467 229.911H127.867V228.511H126.467V229.911ZM126.467 230.929H125.067V232.329H126.467V230.929ZM127.485 230.929H128.885V229.529H127.485V230.929ZM127.485 235V236.4H128.885V235H127.485ZM125.45 235H124.05V236.4H125.45V235ZM125.45 230.929H126.85V229.529H125.45V230.929ZM122.396 230.929V229.529H120.996V230.929H122.396ZM122.396 235V236.4H123.796V235H122.396ZM121.759 235V226.857H118.959V235H121.759ZM120.359 228.257H122.396V225.457H120.359V228.257ZM120.996 226.857V229.911H123.796V226.857H120.996ZM122.396 231.311H126.467V228.511H122.396V231.311ZM125.067 229.911V230.929H127.867V229.911H125.067ZM126.467 232.329H127.485V229.529H126.467V232.329ZM126.085 230.929V235H128.885V230.929H126.085ZM127.485 233.6H125.45V236.4H127.485V233.6ZM126.85 235V230.929H124.05V235H126.85ZM125.45 229.529H122.396V232.329H125.45V229.529ZM120.996 230.929V235H123.796V230.929H120.996ZM122.396 233.6H120.359V236.4H122.396V233.6ZM129.01 235H127.61V236.4H129.01V235ZM129.01 229.911V228.511H127.61V229.911H129.01ZM131.047 229.911H132.447V228.511H131.047V229.911ZM131.047 235V236.4H132.447V235H131.047ZM129.01 228.891H127.61V230.291H129.01V228.891ZM129.01 226.857V225.457H127.61V226.857H129.01ZM131.047 226.857H132.447V225.457H131.047V226.857ZM131.047 228.891V230.291H132.447V228.891H131.047ZM130.41 235V229.911H127.61V235H130.41ZM129.01 231.311H131.047V228.511H129.01V231.311ZM129.647 229.911V235H132.447V229.911H129.647ZM131.047 233.6H129.01V236.4H131.047V233.6ZM130.41 228.891V226.857H127.61V228.891H130.41ZM129.01 228.257H131.047V225.457H129.01V228.257ZM129.647 226.857V228.891H132.447V226.857H129.647ZM131.047 227.491H129.01V230.291H131.047V227.491ZM137.667 233.983V235.383H139.067V233.983H137.667ZM137.667 230.929H139.067V229.529H137.667V230.929ZM134.613 230.929V229.529H133.213V230.929H134.613ZM134.613 233.983H133.213V235.383H134.613V233.983ZM133.593 238.054H132.193V239.454H133.593V238.054ZM133.593 237.034V235.634H132.193V237.034H133.593ZM137.667 237.034V238.434H139.067V237.034H137.667ZM137.667 235H139.067V233.6H137.667V235ZM133.593 235H132.193V236.4H133.593V235ZM133.593 233.983H134.993V232.583H133.593V233.983ZM132.576 233.983H131.176V235.383H132.576V233.983ZM132.576 230.929V229.529H131.176V230.929H132.576ZM133.593 230.929V232.329H134.993V230.929H133.593ZM133.593 229.911V228.511H132.193V229.911H133.593ZM139.702 229.911H141.102V228.511H139.702V229.911ZM139.702 237.034V238.434H141.102V237.034H139.702ZM138.685 237.034V235.634H137.285V237.034H138.685ZM138.685 238.054V239.454H140.085V238.054H138.685ZM139.067 233.983V230.929H136.267V233.983H139.067ZM137.667 229.529H134.613V232.329H137.667V229.529ZM133.213 230.929V233.983H136.013V230.929H133.213ZM134.613 235.383H137.667V232.583H134.613V235.383ZM134.993 238.054V237.034H132.193V238.054H134.993ZM133.593 238.434H137.667V235.634H133.593V238.434ZM139.067 237.034V235H136.267V237.034H139.067ZM137.667 233.6H133.593V236.4H137.667V233.6ZM134.993 235V233.983H132.193V235H134.993ZM133.593 232.583H132.576V235.383H133.593V232.583ZM133.976 233.983V230.929H131.176V233.983H133.976ZM132.576 232.329H133.593V229.529H132.576V232.329ZM134.993 230.929V229.911H132.193V230.929H134.993ZM133.593 231.311H139.702V228.511H133.593V231.311ZM138.302 229.911V237.034H141.102V229.911H138.302ZM139.702 235.634H138.685V238.434H139.702V235.634ZM137.285 237.034V238.054H140.085V237.034H137.285ZM138.685 236.654H133.593V239.454H138.685V236.654ZM141.228 235H139.828V236.4H141.228V235ZM141.228 226.857V225.457H139.828V226.857H141.228ZM143.265 226.857H144.665V225.457H143.265V226.857ZM143.265 229.911H141.865V231.311H143.265V229.911ZM147.336 229.911H148.736V228.511H147.336V229.911ZM147.336 230.929H145.936V232.329H147.336V230.929ZM148.353 230.929H149.753V229.529H148.353V230.929ZM148.353 235V236.4H149.753V235H148.353ZM146.319 235H144.919V236.4H146.319V235ZM146.319 230.929H147.719V229.529H146.319V230.929ZM143.265 230.929V229.529H141.865V230.929H143.265ZM143.265 235V236.4H144.665V235H143.265ZM142.628 235V226.857H139.828V235H142.628ZM141.228 228.257H143.265V225.457H141.228V228.257ZM141.865 226.857V229.911H144.665V226.857H141.865ZM143.265 231.311H147.336V228.511H143.265V231.311ZM145.936 229.911V230.929H148.736V229.911H145.936ZM147.336 232.329H148.353V229.529H147.336V232.329ZM146.953 230.929V235H149.753V230.929H146.953ZM148.353 233.6H146.319V236.4H148.353V233.6ZM147.719 235V230.929H144.919V235H147.719ZM146.319 229.529H143.265V232.329H146.319V229.529ZM141.865 230.929V235H144.665V230.929H141.865ZM143.265 233.6H141.228V236.4H143.265V233.6ZM154.971 231.946V233.346H156.371V231.946H154.971ZM154.971 230.929H156.371V229.529H154.971V230.929ZM151.916 230.929V229.529H150.516V230.929H151.916ZM151.916 231.946H150.516V233.346H151.916V231.946ZM150.896 235H149.496V236.4H150.896V235ZM150.896 233.983H152.296V232.583H150.896V233.983ZM149.879 233.983H148.479V235.383H149.879V233.983ZM149.879 230.929V229.529H148.479V230.929H149.879ZM150.896 230.929V232.329H152.296V230.929H150.896ZM150.896 229.911V228.511H149.496V229.911H150.896ZM155.988 229.911H157.388V228.511H155.988V229.911ZM155.988 230.929H154.588V232.329H155.988V230.929ZM157.005 230.929H158.405V229.529H157.005V230.929ZM157.005 232.966V234.366H158.405V232.966H157.005ZM151.916 232.966V231.566H150.516V232.966H151.916ZM151.916 233.983H150.516V235.383H151.916V233.983ZM155.988 233.983H157.388V232.583H155.988V233.983ZM155.988 235V236.4H157.388V235H155.988ZM156.371 231.946V230.929H153.571V231.946H156.371ZM154.971 229.529H151.916V232.329H154.971V229.529ZM150.516 230.929V231.946H153.316V230.929H150.516ZM151.916 233.346H154.971V230.546H151.916V233.346ZM152.296 235V233.983H149.496V235H152.296ZM150.896 232.583H149.879V235.383H150.896V232.583ZM151.279 233.983V230.929H148.479V233.983H151.279ZM149.879 232.329H150.896V229.529H149.879V232.329ZM152.296 230.929V229.911H149.496V230.929H152.296ZM150.896 231.311H155.988V228.511H150.896V231.311ZM154.588 229.911V230.929H157.388V229.911H154.588ZM155.988 232.329H157.005V229.529H155.988V232.329ZM155.605 230.929V232.966H158.405V230.929H155.605ZM157.005 231.566H151.916V234.366H157.005V231.566ZM150.516 232.966V233.983H153.316V232.966H150.516ZM151.916 235.383H155.988V232.583H151.916V235.383ZM154.588 233.983V235H157.388V233.983H154.588ZM155.988 233.6H150.896V236.4H155.988V233.6ZM158.531 235H157.131V236.4H158.531V235ZM158.531 229.911V228.511H157.131V229.911H158.531ZM160.568 229.911H161.968V228.511H160.568V229.911ZM160.568 230.929H159.168V232.329H160.568V230.929ZM161.585 230.929H162.985V229.529H161.585V230.929ZM161.585 231.946V233.346H162.985V231.946H161.585ZM160.568 231.946V230.546H159.168V231.946H160.568ZM160.568 235V236.4H161.968V235H160.568ZM161.585 230.929H160.185V232.329H161.585V230.929ZM161.585 229.911V228.511H160.185V229.911H161.585ZM164.639 229.911H166.039V228.511H164.639V229.911ZM164.639 230.929V232.329H166.039V230.929H164.639ZM159.931 235V229.911H157.131V235H159.931ZM158.531 231.311H160.568V228.511H158.531V231.311ZM159.168 229.911V230.929H161.968V229.911H159.168ZM160.568 232.329H161.585V229.529H160.568V232.329ZM160.185 230.929V231.946H162.985V230.929H160.185ZM161.585 230.546H160.568V233.346H161.585V230.546ZM159.168 231.946V235H161.968V231.946H159.168ZM160.568 233.6H158.531V236.4H160.568V233.6ZM162.985 230.929V229.911H160.185V230.929H162.985ZM161.585 231.311H164.639V228.511H161.585V231.311ZM163.239 229.911V230.929H166.039V229.911H163.239ZM164.639 229.529H161.585V232.329H164.639V229.529Z" fill="#2A2900" mask="url(#path-19-outside-2_713_450)"/>
<mask id="path-21-outside-3_713_450" maskUnits="userSpaceOnUse" x="79.6666" y="271" width="76" height="29" fill="black">
<rect fill="white" x="79.6666" y="271" width="76" height="29"/>
<path d="M82.701 281V279.983H81.6838V277.946H83.7209V279.983H86.7752V273.874H83.7209V272.857H88.8096V279.983H87.7924V281H82.701ZM91.3526 281V279.983H90.3354V275.911H92.3725V279.983H95.4268V275.911H97.4612V279.983H96.444V281H91.3526ZM98.9869 281V275.911H105.096V276.929H106.113V281H104.078V276.929H103.058V281H102.041V276.929H101.024V281H98.9869ZM112.73 279.983V276.929H109.676V279.983H112.73ZM107.639 284.054V275.911H113.747V276.929H114.764V279.983H113.747V281H109.676V284.054H107.639ZM125.45 277.946V276.929H122.396V277.946H125.45ZM121.376 281V279.983H120.359V276.929H121.376V275.911H126.467V276.929H127.485V278.966H122.396V279.983H126.467V281H121.376ZM131.047 281V279.983H130.028V278.966H129.01V275.911H131.047V278.966H132.065V279.983H133.082V278.966H134.102V275.911H136.136V278.966H135.119V279.983H134.102V281H131.047ZM142.753 277.946V276.929H139.699V277.946H142.753ZM138.679 281V279.983H137.662V276.929H138.679V275.911H143.771V276.929H144.788V278.966H139.699V279.983H143.771V281H138.679ZM146.314 281V275.911H152.422V276.929H153.439V281H151.405V276.929H148.351V281H146.314ZM81.6838 295V286.857H83.7209V289.911H87.7924V290.929H88.8096V295H86.7752V290.929H83.7209V295H81.6838ZM90.3354 295V289.911H92.3725V295H90.3354ZM90.3354 288.891V286.857H92.3725V288.891H90.3354ZM98.9924 293.983V290.929H95.9381V293.983H98.9924ZM94.9182 298.054V297.034H98.9924V295H94.9182V293.983H93.901V290.929H94.9182V289.911H101.027V297.034H100.01V298.054H94.9182ZM102.553 295V286.857H104.59V289.911H108.661V290.929H109.678V295H107.644V290.929H104.59V295H102.553ZM116.296 291.946V290.929H113.241V291.946H116.296ZM112.221 295V293.983H111.204V290.929H112.221V289.911H117.313V290.929H118.33V292.966H113.241V293.983H117.313V295H112.221ZM119.856 295V289.911H121.893V290.929H122.91V291.946H121.893V295H119.856ZM122.91 290.929V289.911H125.964V290.929H122.91Z"/>
</mask>
<path d="M82.701 281V279.983H81.6838V277.946H83.7209V279.983H86.7752V273.874H83.7209V272.857H88.8096V279.983H87.7924V281H82.701ZM91.3526 281V279.983H90.3354V275.911H92.3725V279.983H95.4268V275.911H97.4612V279.983H96.444V281H91.3526ZM98.9869 281V275.911H105.096V276.929H106.113V281H104.078V276.929H103.058V281H102.041V276.929H101.024V281H98.9869ZM112.73 279.983V276.929H109.676V279.983H112.73ZM107.639 284.054V275.911H113.747V276.929H114.764V279.983H113.747V281H109.676V284.054H107.639ZM125.45 277.946V276.929H122.396V277.946H125.45ZM121.376 281V279.983H120.359V276.929H121.376V275.911H126.467V276.929H127.485V278.966H122.396V279.983H126.467V281H121.376ZM131.047 281V279.983H130.028V278.966H129.01V275.911H131.047V278.966H132.065V279.983H133.082V278.966H134.102V275.911H136.136V278.966H135.119V279.983H134.102V281H131.047ZM142.753 277.946V276.929H139.699V277.946H142.753ZM138.679 281V279.983H137.662V276.929H138.679V275.911H143.771V276.929H144.788V278.966H139.699V279.983H143.771V281H138.679ZM146.314 281V275.911H152.422V276.929H153.439V281H151.405V276.929H148.351V281H146.314ZM81.6838 295V286.857H83.7209V289.911H87.7924V290.929H88.8096V295H86.7752V290.929H83.7209V295H81.6838ZM90.3354 295V289.911H92.3725V295H90.3354ZM90.3354 288.891V286.857H92.3725V288.891H90.3354ZM98.9924 293.983V290.929H95.9381V293.983H98.9924ZM94.9182 298.054V297.034H98.9924V295H94.9182V293.983H93.901V290.929H94.9182V289.911H101.027V297.034H100.01V298.054H94.9182ZM102.553 295V286.857H104.59V289.911H108.661V290.929H109.678V295H107.644V290.929H104.59V295H102.553ZM116.296 291.946V290.929H113.241V291.946H116.296ZM112.221 295V293.983H111.204V290.929H112.221V289.911H117.313V290.929H118.33V292.966H113.241V293.983H117.313V295H112.221ZM119.856 295V289.911H121.893V290.929H122.91V291.946H121.893V295H119.856ZM122.91 290.929V289.911H125.964V290.929H122.91Z" fill="white"/>
<path d="M82.701 281H81.301V282.4H82.701V281ZM82.701 279.983H84.101V278.583H82.701V279.983ZM81.6838 279.983H80.2838V281.383H81.6838V279.983ZM81.6838 277.946V276.546H80.2838V277.946H81.6838ZM83.7209 277.946H85.1209V276.546H83.7209V277.946ZM83.7209 279.983H82.3209V281.383H83.7209V279.983ZM86.7752 279.983V281.383H88.1752V279.983H86.7752ZM86.7752 273.874H88.1752V272.474H86.7752V273.874ZM83.7209 273.874H82.3209V275.274H83.7209V273.874ZM83.7209 272.857V271.457H82.3209V272.857H83.7209ZM88.8096 272.857H90.2096V271.457H88.8096V272.857ZM88.8096 279.983V281.383H90.2096V279.983H88.8096ZM87.7924 279.983V278.583H86.3924V279.983H87.7924ZM87.7924 281V282.4H89.1924V281H87.7924ZM84.101 281V279.983H81.301V281H84.101ZM82.701 278.583H81.6838V281.383H82.701V278.583ZM83.0838 279.983V277.946H80.2838V279.983H83.0838ZM81.6838 279.346H83.7209V276.546H81.6838V279.346ZM82.3209 277.946V279.983H85.1209V277.946H82.3209ZM83.7209 281.383H86.7752V278.583H83.7209V281.383ZM88.1752 279.983V273.874H85.3752V279.983H88.1752ZM86.7752 272.474H83.7209V275.274H86.7752V272.474ZM85.1209 273.874V272.857H82.3209V273.874H85.1209ZM83.7209 274.257H88.8096V271.457H83.7209V274.257ZM87.4096 272.857V279.983H90.2096V272.857H87.4096ZM88.8096 278.583H87.7924V281.383H88.8096V278.583ZM86.3924 279.983V281H89.1924V279.983H86.3924ZM87.7924 279.6H82.701V282.4H87.7924V279.6ZM91.3526 281H89.9526V282.4H91.3526V281ZM91.3526 279.983H92.7526V278.583H91.3526V279.983ZM90.3354 279.983H88.9354V281.383H90.3354V279.983ZM90.3354 275.911V274.511H88.9354V275.911H90.3354ZM92.3725 275.911H93.7725V274.511H92.3725V275.911ZM92.3725 279.983H90.9725V281.383H92.3725V279.983ZM95.4268 279.983V281.383H96.8268V279.983H95.4268ZM95.4268 275.911V274.511H94.0268V275.911H95.4268ZM97.4612 275.911H98.8612V274.511H97.4612V275.911ZM97.4612 279.983V281.383H98.8612V279.983H97.4612ZM96.444 279.983V278.583H95.044V279.983H96.444ZM96.444 281V282.4H97.844V281H96.444ZM92.7526 281V279.983H89.9526V281H92.7526ZM91.3526 278.583H90.3354V281.383H91.3526V278.583ZM91.7354 279.983V275.911H88.9354V279.983H91.7354ZM90.3354 277.311H92.3725V274.511H90.3354V277.311ZM90.9725 275.911V279.983H93.7725V275.911H90.9725ZM92.3725 281.383H95.4268V278.583H92.3725V281.383ZM96.8268 279.983V275.911H94.0268V279.983H96.8268ZM95.4268 277.311H97.4612V274.511H95.4268V277.311ZM96.0612 275.911V279.983H98.8612V275.911H96.0612ZM97.4612 278.583H96.444V281.383H97.4612V278.583ZM95.044 279.983V281H97.844V279.983H95.044ZM96.444 279.6H91.3526V282.4H96.444V279.6ZM98.9869 281H97.5869V282.4H98.9869V281ZM98.9869 275.911V274.511H97.5869V275.911H98.9869ZM105.096 275.911H106.496V274.511H105.096V275.911ZM105.096 276.929H103.696V278.329H105.096V276.929ZM106.113 276.929H107.513V275.529H106.113V276.929ZM106.113 281V282.4H107.513V281H106.113ZM104.078 281H102.678V282.4H104.078V281ZM104.078 276.929H105.478V275.529H104.078V276.929ZM103.058 276.929V275.529H101.658V276.929H103.058ZM103.058 281V282.4H104.458V281H103.058ZM102.041 281H100.641V282.4H102.041V281ZM102.041 276.929H103.441V275.529H102.041V276.929ZM101.024 276.929V275.529H99.624V276.929H101.024ZM101.024 281V282.4H102.424V281H101.024ZM100.387 281V275.911H97.5869V281H100.387ZM98.9869 277.311H105.096V274.511H98.9869V277.311ZM103.696 275.911V276.929H106.496V275.911H103.696ZM105.096 278.329H106.113V275.529H105.096V278.329ZM104.713 276.929V281H107.513V276.929H104.713ZM106.113 279.6H104.078V282.4H106.113V279.6ZM105.478 281V276.929H102.678V281H105.478ZM104.078 275.529H103.058V278.329H104.078V275.529ZM101.658 276.929V281H104.458V276.929H101.658ZM103.058 279.6H102.041V282.4H103.058V279.6ZM103.441 281V276.929H100.641V281H103.441ZM102.041 275.529H101.024V278.329H102.041V275.529ZM99.624 276.929V281H102.424V276.929H99.624ZM101.024 279.6H98.9869V282.4H101.024V279.6ZM112.73 279.983V281.383H114.13V279.983H112.73ZM112.73 276.929H114.13V275.529H112.73V276.929ZM109.676 276.929V275.529H108.276V276.929H109.676ZM109.676 279.983H108.276V281.383H109.676V279.983ZM107.639 284.054H106.239V285.454H107.639V284.054ZM107.639 275.911V274.511H106.239V275.911H107.639ZM113.747 275.911H115.147V274.511H113.747V275.911ZM113.747 276.929H112.347V278.329H113.747V276.929ZM114.764 276.929H116.164V275.529H114.764V276.929ZM114.764 279.983V281.383H116.164V279.983H114.764ZM113.747 279.983V278.583H112.347V279.983H113.747ZM113.747 281V282.4H115.147V281H113.747ZM109.676 281V279.6H108.276V281H109.676ZM109.676 284.054V285.454H111.076V284.054H109.676ZM114.13 279.983V276.929H111.33V279.983H114.13ZM112.73 275.529H109.676V278.329H112.73V275.529ZM108.276 276.929V279.983H111.076V276.929H108.276ZM109.676 281.383H112.73V278.583H109.676V281.383ZM109.039 284.054V275.911H106.239V284.054H109.039ZM107.639 277.311H113.747V274.511H107.639V277.311ZM112.347 275.911V276.929H115.147V275.911H112.347ZM113.747 278.329H114.764V275.529H113.747V278.329ZM113.364 276.929V279.983H116.164V276.929H113.364ZM114.764 278.583H113.747V281.383H114.764V278.583ZM112.347 279.983V281H115.147V279.983H112.347ZM113.747 279.6H109.676V282.4H113.747V279.6ZM108.276 281V284.054H111.076V281H108.276ZM109.676 282.654H107.639V285.454H109.676V282.654ZM125.45 277.946V279.346H126.85V277.946H125.45ZM125.45 276.929H126.85V275.529H125.45V276.929ZM122.396 276.929V275.529H120.996V276.929H122.396ZM122.396 277.946H120.996V279.346H122.396V277.946ZM121.376 281H119.976V282.4H121.376V281ZM121.376 279.983H122.776V278.583H121.376V279.983ZM120.359 279.983H118.959V281.383H120.359V279.983ZM120.359 276.929V275.529H118.959V276.929H120.359ZM121.376 276.929V278.329H122.776V276.929H121.376ZM121.376 275.911V274.511H119.976V275.911H121.376ZM126.467 275.911H127.867V274.511H126.467V275.911ZM126.467 276.929H125.067V278.329H126.467V276.929ZM127.485 276.929H128.885V275.529H127.485V276.929ZM127.485 278.966V280.366H128.885V278.966H127.485ZM122.396 278.966V277.566H120.996V278.966H122.396ZM122.396 279.983H120.996V281.383H122.396V279.983ZM126.467 279.983H127.867V278.583H126.467V279.983ZM126.467 281V282.4H127.867V281H126.467ZM126.85 277.946V276.929H124.05V277.946H126.85ZM125.45 275.529H122.396V278.329H125.45V275.529ZM120.996 276.929V277.946H123.796V276.929H120.996ZM122.396 279.346H125.45V276.546H122.396V279.346ZM122.776 281V279.983H119.976V281H122.776ZM121.376 278.583H120.359V281.383H121.376V278.583ZM121.759 279.983V276.929H118.959V279.983H121.759ZM120.359 278.329H121.376V275.529H120.359V278.329ZM122.776 276.929V275.911H119.976V276.929H122.776ZM121.376 277.311H126.467V274.511H121.376V277.311ZM125.067 275.911V276.929H127.867V275.911H125.067ZM126.467 278.329H127.485V275.529H126.467V278.329ZM126.085 276.929V278.966H128.885V276.929H126.085ZM127.485 277.566H122.396V280.366H127.485V277.566ZM120.996 278.966V279.983H123.796V278.966H120.996ZM122.396 281.383H126.467V278.583H122.396V281.383ZM125.067 279.983V281H127.867V279.983H125.067ZM126.467 279.6H121.376V282.4H126.467V279.6ZM131.047 281H129.647V282.4H131.047V281ZM131.047 279.983H132.447V278.583H131.047V279.983ZM130.028 279.983H128.628V281.383H130.028V279.983ZM130.028 278.966H131.428V277.566H130.028V278.966ZM129.01 278.966H127.61V280.366H129.01V278.966ZM129.01 275.911V274.511H127.61V275.911H129.01ZM131.047 275.911H132.447V274.511H131.047V275.911ZM131.047 278.966H129.647V280.366H131.047V278.966ZM132.065 278.966H133.465V277.566H132.065V278.966ZM132.065 279.983H130.665V281.383H132.065V279.983ZM133.082 279.983V281.383H134.482V279.983H133.082ZM133.082 278.966V277.566H131.682V278.966H133.082ZM134.102 278.966V280.366H135.502V278.966H134.102ZM134.102 275.911V274.511H132.702V275.911H134.102ZM136.136 275.911H137.536V274.511H136.136V275.911ZM136.136 278.966V280.366H137.536V278.966H136.136ZM135.119 278.966V277.566H133.719V278.966H135.119ZM135.119 279.983V281.383H136.519V279.983H135.119ZM134.102 279.983V278.583H132.702V279.983H134.102ZM134.102 281V282.4H135.502V281H134.102ZM132.447 281V279.983H129.647V281H132.447ZM131.047 278.583H130.028V281.383H131.047V278.583ZM131.428 279.983V278.966H128.628V279.983H131.428ZM130.028 277.566H129.01V280.366H130.028V277.566ZM130.41 278.966V275.911H127.61V278.966H130.41ZM129.01 277.311H131.047V274.511H129.01V277.311ZM129.647 275.911V278.966H132.447V275.911H129.647ZM131.047 280.366H132.065V277.566H131.047V280.366ZM130.665 278.966V279.983H133.465V278.966H130.665ZM132.065 281.383H133.082V278.583H132.065V281.383ZM134.482 279.983V278.966H131.682V279.983H134.482ZM133.082 280.366H134.102V277.566H133.082V280.366ZM135.502 278.966V275.911H132.702V278.966H135.502ZM134.102 277.311H136.136V274.511H134.102V277.311ZM134.736 275.911V278.966H137.536V275.911H134.736ZM136.136 277.566H135.119V280.366H136.136V277.566ZM133.719 278.966V279.983H136.519V278.966H133.719ZM135.119 278.583H134.102V281.383H135.119V278.583ZM132.702 279.983V281H135.502V279.983H132.702ZM134.102 279.6H131.047V282.4H134.102V279.6ZM142.753 277.946V279.346H144.153V277.946H142.753ZM142.753 276.929H144.153V275.529H142.753V276.929ZM139.699 276.929V275.529H138.299V276.929H139.699ZM139.699 277.946H138.299V279.346H139.699V277.946ZM138.679 281H137.279V282.4H138.679V281ZM138.679 279.983H140.079V278.583H138.679V279.983ZM137.662 279.983H136.262V281.383H137.662V279.983ZM137.662 276.929V275.529H136.262V276.929H137.662ZM138.679 276.929V278.329H140.079V276.929H138.679ZM138.679 275.911V274.511H137.279V275.911H138.679ZM143.771 275.911H145.171V274.511H143.771V275.911ZM143.771 276.929H142.371V278.329H143.771V276.929ZM144.788 276.929H146.188V275.529H144.788V276.929ZM144.788 278.966V280.366H146.188V278.966H144.788ZM139.699 278.966V277.566H138.299V278.966H139.699ZM139.699 279.983H138.299V281.383H139.699V279.983ZM143.771 279.983H145.171V278.583H143.771V279.983ZM143.771 281V282.4H145.171V281H143.771ZM144.153 277.946V276.929H141.353V277.946H144.153ZM142.753 275.529H139.699V278.329H142.753V275.529ZM138.299 276.929V277.946H141.099V276.929H138.299ZM139.699 279.346H142.753V276.546H139.699V279.346ZM140.079 281V279.983H137.279V281H140.079ZM138.679 278.583H137.662V281.383H138.679V278.583ZM139.062 279.983V276.929H136.262V279.983H139.062ZM137.662 278.329H138.679V275.529H137.662V278.329ZM140.079 276.929V275.911H137.279V276.929H140.079ZM138.679 277.311H143.771V274.511H138.679V277.311ZM142.371 275.911V276.929H145.171V275.911H142.371ZM143.771 278.329H144.788V275.529H143.771V278.329ZM143.388 276.929V278.966H146.188V276.929H143.388ZM144.788 277.566H139.699V280.366H144.788V277.566ZM138.299 278.966V279.983H141.099V278.966H138.299ZM139.699 281.383H143.771V278.583H139.699V281.383ZM142.371 279.983V281H145.171V279.983H142.371ZM143.771 279.6H138.679V282.4H143.771V279.6ZM146.314 281H144.914V282.4H146.314V281ZM146.314 275.911V274.511H144.914V275.911H146.314ZM152.422 275.911H153.822V274.511H152.422V275.911ZM152.422 276.929H151.022V278.329H152.422V276.929ZM153.439 276.929H154.839V275.529H153.439V276.929ZM153.439 281V282.4H154.839V281H153.439ZM151.405 281H150.005V282.4H151.405V281ZM151.405 276.929H152.805V275.529H151.405V276.929ZM148.351 276.929V275.529H146.951V276.929H148.351ZM148.351 281V282.4H149.751V281H148.351ZM147.714 281V275.911H144.914V281H147.714ZM146.314 277.311H152.422V274.511H146.314V277.311ZM151.022 275.911V276.929H153.822V275.911H151.022ZM152.422 278.329H153.439V275.529H152.422V278.329ZM152.039 276.929V281H154.839V276.929H152.039ZM153.439 279.6H151.405V282.4H153.439V279.6ZM152.805 281V276.929H150.005V281H152.805ZM151.405 275.529H148.351V278.329H151.405V275.529ZM146.951 276.929V281H149.751V276.929H146.951ZM148.351 279.6H146.314V282.4H148.351V279.6ZM81.6838 295H80.2838V296.4H81.6838V295ZM81.6838 286.857V285.457H80.2838V286.857H81.6838ZM83.7209 286.857H85.1209V285.457H83.7209V286.857ZM83.7209 289.911H82.3209V291.311H83.7209V289.911ZM87.7924 289.911H89.1924V288.511H87.7924V289.911ZM87.7924 290.929H86.3924V292.329H87.7924V290.929ZM88.8096 290.929H90.2096V289.529H88.8096V290.929ZM88.8096 295V296.4H90.2096V295H88.8096ZM86.7752 295H85.3752V296.4H86.7752V295ZM86.7752 290.929H88.1752V289.529H86.7752V290.929ZM83.7209 290.929V289.529H82.3209V290.929H83.7209ZM83.7209 295V296.4H85.1209V295H83.7209ZM83.0838 295V286.857H80.2838V295H83.0838ZM81.6838 288.257H83.7209V285.457H81.6838V288.257ZM82.3209 286.857V289.911H85.1209V286.857H82.3209ZM83.7209 291.311H87.7924V288.511H83.7209V291.311ZM86.3924 289.911V290.929H89.1924V289.911H86.3924ZM87.7924 292.329H88.8096V289.529H87.7924V292.329ZM87.4096 290.929V295H90.2096V290.929H87.4096ZM88.8096 293.6H86.7752V296.4H88.8096V293.6ZM88.1752 295V290.929H85.3752V295H88.1752ZM86.7752 289.529H83.7209V292.329H86.7752V289.529ZM82.3209 290.929V295H85.1209V290.929H82.3209ZM83.7209 293.6H81.6838V296.4H83.7209V293.6ZM90.3354 295H88.9354V296.4H90.3354V295ZM90.3354 289.911V288.511H88.9354V289.911H90.3354ZM92.3725 289.911H93.7725V288.511H92.3725V289.911ZM92.3725 295V296.4H93.7725V295H92.3725ZM90.3354 288.891H88.9354V290.291H90.3354V288.891ZM90.3354 286.857V285.457H88.9354V286.857H90.3354ZM92.3725 286.857H93.7725V285.457H92.3725V286.857ZM92.3725 288.891V290.291H93.7725V288.891H92.3725ZM91.7354 295V289.911H88.9354V295H91.7354ZM90.3354 291.311H92.3725V288.511H90.3354V291.311ZM90.9725 289.911V295H93.7725V289.911H90.9725ZM92.3725 293.6H90.3354V296.4H92.3725V293.6ZM91.7354 288.891V286.857H88.9354V288.891H91.7354ZM90.3354 288.257H92.3725V285.457H90.3354V288.257ZM90.9725 286.857V288.891H93.7725V286.857H90.9725ZM92.3725 287.491H90.3354V290.291H92.3725V287.491ZM98.9924 293.983V295.383H100.392V293.983H98.9924ZM98.9924 290.929H100.392V289.529H98.9924V290.929ZM95.9381 290.929V289.529H94.5381V290.929H95.9381ZM95.9381 293.983H94.5381V295.383H95.9381V293.983ZM94.9182 298.054H93.5182V299.454H94.9182V298.054ZM94.9182 297.034V295.634H93.5182V297.034H94.9182ZM98.9924 297.034V298.434H100.392V297.034H98.9924ZM98.9924 295H100.392V293.6H98.9924V295ZM94.9182 295H93.5182V296.4H94.9182V295ZM94.9182 293.983H96.3182V292.583H94.9182V293.983ZM93.901 293.983H92.501V295.383H93.901V293.983ZM93.901 290.929V289.529H92.501V290.929H93.901ZM94.9182 290.929V292.329H96.3182V290.929H94.9182ZM94.9182 289.911V288.511H93.5182V289.911H94.9182ZM101.027 289.911H102.427V288.511H101.027V289.911ZM101.027 297.034V298.434H102.427V297.034H101.027ZM100.01 297.034V295.634H98.6096V297.034H100.01ZM100.01 298.054V299.454H101.41V298.054H100.01ZM100.392 293.983V290.929H97.5924V293.983H100.392ZM98.9924 289.529H95.9381V292.329H98.9924V289.529ZM94.5381 290.929V293.983H97.3381V290.929H94.5381ZM95.9381 295.383H98.9924V292.583H95.9381V295.383ZM96.3182 298.054V297.034H93.5182V298.054H96.3182ZM94.9182 298.434H98.9924V295.634H94.9182V298.434ZM100.392 297.034V295H97.5924V297.034H100.392ZM98.9924 293.6H94.9182V296.4H98.9924V293.6ZM96.3182 295V293.983H93.5182V295H96.3182ZM94.9182 292.583H93.901V295.383H94.9182V292.583ZM95.301 293.983V290.929H92.501V293.983H95.301ZM93.901 292.329H94.9182V289.529H93.901V292.329ZM96.3182 290.929V289.911H93.5182V290.929H96.3182ZM94.9182 291.311H101.027V288.511H94.9182V291.311ZM99.6268 289.911V297.034H102.427V289.911H99.6268ZM101.027 295.634H100.01V298.434H101.027V295.634ZM98.6096 297.034V298.054H101.41V297.034H98.6096ZM100.01 296.654H94.9182V299.454H100.01V296.654ZM102.553 295H101.153V296.4H102.553V295ZM102.553 286.857V285.457H101.153V286.857H102.553ZM104.59 286.857H105.99V285.457H104.59V286.857ZM104.59 289.911H103.19V291.311H104.59V289.911ZM108.661 289.911H110.061V288.511H108.661V289.911ZM108.661 290.929H107.261V292.329H108.661V290.929ZM109.678 290.929H111.078V289.529H109.678V290.929ZM109.678 295V296.4H111.078V295H109.678ZM107.644 295H106.244V296.4H107.644V295ZM107.644 290.929H109.044V289.529H107.644V290.929ZM104.59 290.929V289.529H103.19V290.929H104.59ZM104.59 295V296.4H105.99V295H104.59ZM103.953 295V286.857H101.153V295H103.953ZM102.553 288.257H104.59V285.457H102.553V288.257ZM103.19 286.857V289.911H105.99V286.857H103.19ZM104.59 291.311H108.661V288.511H104.59V291.311ZM107.261 289.911V290.929H110.061V289.911H107.261ZM108.661 292.329H109.678V289.529H108.661V292.329ZM108.278 290.929V295H111.078V290.929H108.278ZM109.678 293.6H107.644V296.4H109.678V293.6ZM109.044 295V290.929H106.244V295H109.044ZM107.644 289.529H104.59V292.329H107.644V289.529ZM103.19 290.929V295H105.99V290.929H103.19ZM104.59 293.6H102.553V296.4H104.59V293.6ZM116.296 291.946V293.346H117.696V291.946H116.296ZM116.296 290.929H117.696V289.529H116.296V290.929ZM113.241 290.929V289.529H111.841V290.929H113.241ZM113.241 291.946H111.841V293.346H113.241V291.946ZM112.221 295H110.821V296.4H112.221V295ZM112.221 293.983H113.621V292.583H112.221V293.983ZM111.204 293.983H109.804V295.383H111.204V293.983ZM111.204 290.929V289.529H109.804V290.929H111.204ZM112.221 290.929V292.329H113.621V290.929H112.221ZM112.221 289.911V288.511H110.821V289.911H112.221ZM117.313 289.911H118.713V288.511H117.313V289.911ZM117.313 290.929H115.913V292.329H117.313V290.929ZM118.33 290.929H119.73V289.529H118.33V290.929ZM118.33 292.966V294.366H119.73V292.966H118.33ZM113.241 292.966V291.566H111.841V292.966H113.241ZM113.241 293.983H111.841V295.383H113.241V293.983ZM117.313 293.983H118.713V292.583H117.313V293.983ZM117.313 295V296.4H118.713V295H117.313ZM117.696 291.946V290.929H114.896V291.946H117.696ZM116.296 289.529H113.241V292.329H116.296V289.529ZM111.841 290.929V291.946H114.641V290.929H111.841ZM113.241 293.346H116.296V290.546H113.241V293.346ZM113.621 295V293.983H110.821V295H113.621ZM112.221 292.583H111.204V295.383H112.221V292.583ZM112.604 293.983V290.929H109.804V293.983H112.604ZM111.204 292.329H112.221V289.529H111.204V292.329ZM113.621 290.929V289.911H110.821V290.929H113.621ZM112.221 291.311H117.313V288.511H112.221V291.311ZM115.913 289.911V290.929H118.713V289.911H115.913ZM117.313 292.329H118.33V289.529H117.313V292.329ZM116.93 290.929V292.966H119.73V290.929H116.93ZM118.33 291.566H113.241V294.366H118.33V291.566ZM111.841 292.966V293.983H114.641V292.966H111.841ZM113.241 295.383H117.313V292.583H113.241V295.383ZM115.913 293.983V295H118.713V293.983H115.913ZM117.313 293.6H112.221V296.4H117.313V293.6ZM119.856 295H118.456V296.4H119.856V295ZM119.856 289.911V288.511H118.456V289.911H119.856ZM121.893 289.911H123.293V288.511H121.893V289.911ZM121.893 290.929H120.493V292.329H121.893V290.929ZM122.91 290.929H124.31V289.529H122.91V290.929ZM122.91 291.946V293.346H124.31V291.946H122.91ZM121.893 291.946V290.546H120.493V291.946H121.893ZM121.893 295V296.4H123.293V295H121.893ZM122.91 290.929H121.51V292.329H122.91V290.929ZM122.91 289.911V288.511H121.51V289.911H122.91ZM125.964 289.911H127.364V288.511H125.964V289.911ZM125.964 290.929V292.329H127.364V290.929H125.964ZM121.256 295V289.911H118.456V295H121.256ZM119.856 291.311H121.893V288.511H119.856V291.311ZM120.493 289.911V290.929H123.293V289.911H120.493ZM121.893 292.329H122.91V289.529H121.893V292.329ZM121.51 290.929V291.946H124.31V290.929H121.51ZM122.91 290.546H121.893V293.346H122.91V290.546ZM120.493 291.946V295H123.293V291.946H120.493ZM121.893 293.6H119.856V296.4H121.893V293.6ZM124.31 290.929V289.911H121.51V290.929H124.31ZM122.91 291.311H125.964V288.511H122.91V291.311ZM124.564 289.911V290.929H127.364V289.911H124.564ZM125.964 289.529H122.91V292.329H125.964V289.529Z" fill="#2A2900" mask="url(#path-21-outside-3_713_450)"/>
<mask id="path-23-outside-4_713_450" maskUnits="userSpaceOnUse" x="79.6666" y="117" width="50" height="12" fill="black">
<rect fill="white" x="79.6666" y="117" width="50" height="12"/>
<path d="M86.7752 121.911V119.874H83.7209V121.911H86.7752ZM81.6838 127V118.857H87.7924V119.874H88.8096V121.911H87.7924V122.929H88.8096V127H86.7752V122.929H83.7209V127H81.6838ZM95.4268 125.983V122.929H92.3725V125.983H95.4268ZM91.3526 127V125.983H90.3354V122.929H91.3526V121.911H96.444V122.929H97.4612V125.983H96.444V127H91.3526ZM101.024 127V125.983H100.004V122.929H98.9869V121.911H100.004V118.857H102.041V121.911H104.078V122.929H102.041V125.983H104.078V127H101.024ZM110.696 125.983V124.966H107.641V125.983H110.696ZM106.621 127V125.983H105.604V124.966H106.621V123.946H110.696V122.929H106.621V121.911H111.713V122.929H112.73V127H106.621ZM116.293 127V125.983H115.273V122.929H114.256V121.911H115.273V118.857H117.31V121.911H119.347V122.929H117.31V125.983H119.347V127H116.293ZM125.964 123.946V122.929H122.91V123.946H125.964ZM121.89 127V125.983H120.873V122.929H121.89V121.911H126.981V122.929H127.999V124.966H122.91V125.983H126.981V127H121.89Z"/>
</mask>
<path d="M86.7752 121.911V119.874H83.7209V121.911H86.7752ZM81.6838 127V118.857H87.7924V119.874H88.8096V121.911H87.7924V122.929H88.8096V127H86.7752V122.929H83.7209V127H81.6838ZM95.4268 125.983V122.929H92.3725V125.983H95.4268ZM91.3526 127V125.983H90.3354V122.929H91.3526V121.911H96.444V122.929H97.4612V125.983H96.444V127H91.3526ZM101.024 127V125.983H100.004V122.929H98.9869V121.911H100.004V118.857H102.041V121.911H104.078V122.929H102.041V125.983H104.078V127H101.024ZM110.696 125.983V124.966H107.641V125.983H110.696ZM106.621 127V125.983H105.604V124.966H106.621V123.946H110.696V122.929H106.621V121.911H111.713V122.929H112.73V127H106.621ZM116.293 127V125.983H115.273V122.929H114.256V121.911H115.273V118.857H117.31V121.911H119.347V122.929H117.31V125.983H119.347V127H116.293ZM125.964 123.946V122.929H122.91V123.946H125.964ZM121.89 127V125.983H120.873V122.929H121.89V121.911H126.981V122.929H127.999V124.966H122.91V125.983H126.981V127H121.89Z" fill="white"/>
<path d="M86.7752 121.911V123.311H88.1752V121.911H86.7752ZM86.7752 119.874H88.1752V118.474H86.7752V119.874ZM83.7209 119.874V118.474H82.3209V119.874H83.7209ZM83.7209 121.911H82.3209V123.311H83.7209V121.911ZM81.6838 127H80.2838V128.4H81.6838V127ZM81.6838 118.857V117.457H80.2838V118.857H81.6838ZM87.7924 118.857H89.1924V117.457H87.7924V118.857ZM87.7924 119.874H86.3924V121.274H87.7924V119.874ZM88.8096 119.874H90.2096V118.474H88.8096V119.874ZM88.8096 121.911V123.311H90.2096V121.911H88.8096ZM87.7924 121.911V120.511H86.3924V121.911H87.7924ZM87.7924 122.929H86.3924V124.329H87.7924V122.929ZM88.8096 122.929H90.2096V121.529H88.8096V122.929ZM88.8096 127V128.4H90.2096V127H88.8096ZM86.7752 127H85.3752V128.4H86.7752V127ZM86.7752 122.929H88.1752V121.529H86.7752V122.929ZM83.7209 122.929V121.529H82.3209V122.929H83.7209ZM83.7209 127V128.4H85.1209V127H83.7209ZM88.1752 121.911V119.874H85.3752V121.911H88.1752ZM86.7752 118.474H83.7209V121.274H86.7752V118.474ZM82.3209 119.874V121.911H85.1209V119.874H82.3209ZM83.7209 123.311H86.7752V120.511H83.7209V123.311ZM83.0838 127V118.857H80.2838V127H83.0838ZM81.6838 120.257H87.7924V117.457H81.6838V120.257ZM86.3924 118.857V119.874H89.1924V118.857H86.3924ZM87.7924 121.274H88.8096V118.474H87.7924V121.274ZM87.4096 119.874V121.911H90.2096V119.874H87.4096ZM88.8096 120.511H87.7924V123.311H88.8096V120.511ZM86.3924 121.911V122.929H89.1924V121.911H86.3924ZM87.7924 124.329H88.8096V121.529H87.7924V124.329ZM87.4096 122.929V127H90.2096V122.929H87.4096ZM88.8096 125.6H86.7752V128.4H88.8096V125.6ZM88.1752 127V122.929H85.3752V127H88.1752ZM86.7752 121.529H83.7209V124.329H86.7752V121.529ZM82.3209 122.929V127H85.1209V122.929H82.3209ZM83.7209 125.6H81.6838V128.4H83.7209V125.6ZM95.4268 125.983V127.383H96.8268V125.983H95.4268ZM95.4268 122.929H96.8268V121.529H95.4268V122.929ZM92.3725 122.929V121.529H90.9725V122.929H92.3725ZM92.3725 125.983H90.9725V127.383H92.3725V125.983ZM91.3526 127H89.9526V128.4H91.3526V127ZM91.3526 125.983H92.7526V124.583H91.3526V125.983ZM90.3354 125.983H88.9354V127.383H90.3354V125.983ZM90.3354 122.929V121.529H88.9354V122.929H90.3354ZM91.3526 122.929V124.329H92.7526V122.929H91.3526ZM91.3526 121.911V120.511H89.9526V121.911H91.3526ZM96.444 121.911H97.844V120.511H96.444V121.911ZM96.444 122.929H95.044V124.329H96.444V122.929ZM97.4612 122.929H98.8612V121.529H97.4612V122.929ZM97.4612 125.983V127.383H98.8612V125.983H97.4612ZM96.444 125.983V124.583H95.044V125.983H96.444ZM96.444 127V128.4H97.844V127H96.444ZM96.8268 125.983V122.929H94.0268V125.983H96.8268ZM95.4268 121.529H92.3725V124.329H95.4268V121.529ZM90.9725 122.929V125.983H93.7725V122.929H90.9725ZM92.3725 127.383H95.4268V124.583H92.3725V127.383ZM92.7526 127V125.983H89.9526V127H92.7526ZM91.3526 124.583H90.3354V127.383H91.3526V124.583ZM91.7354 125.983V122.929H88.9354V125.983H91.7354ZM90.3354 124.329H91.3526V121.529H90.3354V124.329ZM92.7526 122.929V121.911H89.9526V122.929H92.7526ZM91.3526 123.311H96.444V120.511H91.3526V123.311ZM95.044 121.911V122.929H97.844V121.911H95.044ZM96.444 124.329H97.4612V121.529H96.444V124.329ZM96.0612 122.929V125.983H98.8612V122.929H96.0612ZM97.4612 124.583H96.444V127.383H97.4612V124.583ZM95.044 125.983V127H97.844V125.983H95.044ZM96.444 125.6H91.3526V128.4H96.444V125.6ZM101.024 127H99.624V128.4H101.024V127ZM101.024 125.983H102.424V124.583H101.024V125.983ZM100.004 125.983H98.6041V127.383H100.004V125.983ZM100.004 122.929H101.404V121.529H100.004V122.929ZM98.9869 122.929H97.5869V124.329H98.9869V122.929ZM98.9869 121.911V120.511H97.5869V121.911H98.9869ZM100.004 121.911V123.311H101.404V121.911H100.004ZM100.004 118.857V117.457H98.6041V118.857H100.004ZM102.041 118.857H103.441V117.457H102.041V118.857ZM102.041 121.911H100.641V123.311H102.041V121.911ZM104.078 121.911H105.478V120.511H104.078V121.911ZM104.078 122.929V124.329H105.478V122.929H104.078ZM102.041 122.929V121.529H100.641V122.929H102.041ZM102.041 125.983H100.641V127.383H102.041V125.983ZM104.078 125.983H105.478V124.583H104.078V125.983ZM104.078 127V128.4H105.478V127H104.078ZM102.424 127V125.983H99.624V127H102.424ZM101.024 124.583H100.004V127.383H101.024V124.583ZM101.404 125.983V122.929H98.6041V125.983H101.404ZM100.004 121.529H98.9869V124.329H100.004V121.529ZM100.387 122.929V121.911H97.5869V122.929H100.387ZM98.9869 123.311H100.004V120.511H98.9869V123.311ZM101.404 121.911V118.857H98.6041V121.911H101.404ZM100.004 120.257H102.041V117.457H100.004V120.257ZM100.641 118.857V121.911H103.441V118.857H100.641ZM102.041 123.311H104.078V120.511H102.041V123.311ZM102.678 121.911V122.929H105.478V121.911H102.678ZM104.078 121.529H102.041V124.329H104.078V121.529ZM100.641 122.929V125.983H103.441V122.929H100.641ZM102.041 127.383H104.078V124.583H102.041V127.383ZM102.678 125.983V127H105.478V125.983H102.678ZM104.078 125.6H101.024V128.4H104.078V125.6ZM110.696 125.983V127.383H112.096V125.983H110.696ZM110.696 124.966H112.096V123.566H110.696V124.966ZM107.641 124.966V123.566H106.241V124.966H107.641ZM107.641 125.983H106.241V127.383H107.641V125.983ZM106.621 127H105.221V128.4H106.621V127ZM106.621 125.983H108.021V124.583H106.621V125.983ZM105.604 125.983H104.204V127.383H105.604V125.983ZM105.604 124.966V123.566H104.204V124.966H105.604ZM106.621 124.966V126.366H108.021V124.966H106.621ZM106.621 123.946V122.546H105.221V123.946H106.621ZM110.696 123.946V125.346H112.096V123.946H110.696ZM110.696 122.929H112.096V121.529H110.696V122.929ZM106.621 122.929H105.221V124.329H106.621V122.929ZM106.621 121.911V120.511H105.221V121.911H106.621ZM111.713 121.911H113.113V120.511H111.713V121.911ZM111.713 122.929H110.313V124.329H111.713V122.929ZM112.73 122.929H114.13V121.529H112.73V122.929ZM112.73 127V128.4H114.13V127H112.73ZM112.096 125.983V124.966H109.296V125.983H112.096ZM110.696 123.566H107.641V126.366H110.696V123.566ZM106.241 124.966V125.983H109.041V124.966H106.241ZM107.641 127.383H110.696V124.583H107.641V127.383ZM108.021 127V125.983H105.221V127H108.021ZM106.621 124.583H105.604V127.383H106.621V124.583ZM107.004 125.983V124.966H104.204V125.983H107.004ZM105.604 126.366H106.621V123.566H105.604V126.366ZM108.021 124.966V123.946H105.221V124.966H108.021ZM106.621 125.346H110.696V122.546H106.621V125.346ZM112.096 123.946V122.929H109.296V123.946H112.096ZM110.696 121.529H106.621V124.329H110.696V121.529ZM108.021 122.929V121.911H105.221V122.929H108.021ZM106.621 123.311H111.713V120.511H106.621V123.311ZM110.313 121.911V122.929H113.113V121.911H110.313ZM111.713 124.329H112.73V121.529H111.713V124.329ZM111.33 122.929V127H114.13V122.929H111.33ZM112.73 125.6H106.621V128.4H112.73V125.6ZM116.293 127H114.893V128.4H116.293V127ZM116.293 125.983H117.693V124.583H116.293V125.983ZM115.273 125.983H113.873V127.383H115.273V125.983ZM115.273 122.929H116.673V121.529H115.273V122.929ZM114.256 122.929H112.856V124.329H114.256V122.929ZM114.256 121.911V120.511H112.856V121.911H114.256ZM115.273 121.911V123.311H116.673V121.911H115.273ZM115.273 118.857V117.457H113.873V118.857H115.273ZM117.31 118.857H118.71V117.457H117.31V118.857ZM117.31 121.911H115.91V123.311H117.31V121.911ZM119.347 121.911H120.747V120.511H119.347V121.911ZM119.347 122.929V124.329H120.747V122.929H119.347ZM117.31 122.929V121.529H115.91V122.929H117.31ZM117.31 125.983H115.91V127.383H117.31V125.983ZM119.347 125.983H120.747V124.583H119.347V125.983ZM119.347 127V128.4H120.747V127H119.347ZM117.693 127V125.983H114.893V127H117.693ZM116.293 124.583H115.273V127.383H116.293V124.583ZM116.673 125.983V122.929H113.873V125.983H116.673ZM115.273 121.529H114.256V124.329H115.273V121.529ZM115.656 122.929V121.911H112.856V122.929H115.656ZM114.256 123.311H115.273V120.511H114.256V123.311ZM116.673 121.911V118.857H113.873V121.911H116.673ZM115.273 120.257H117.31V117.457H115.273V120.257ZM115.91 118.857V121.911H118.71V118.857H115.91ZM117.31 123.311H119.347V120.511H117.31V123.311ZM117.947 121.911V122.929H120.747V121.911H117.947ZM119.347 121.529H117.31V124.329H119.347V121.529ZM115.91 122.929V125.983H118.71V122.929H115.91ZM117.31 127.383H119.347V124.583H117.31V127.383ZM117.947 125.983V127H120.747V125.983H117.947ZM119.347 125.6H116.293V128.4H119.347V125.6ZM125.964 123.946V125.346H127.364V123.946H125.964ZM125.964 122.929H127.364V121.529H125.964V122.929ZM122.91 122.929V121.529H121.51V122.929H122.91ZM122.91 123.946H121.51V125.346H122.91V123.946ZM121.89 127H120.49V128.4H121.89V127ZM121.89 125.983H123.29V124.583H121.89V125.983ZM120.873 125.983H119.473V127.383H120.873V125.983ZM120.873 122.929V121.529H119.473V122.929H120.873ZM121.89 122.929V124.329H123.29V122.929H121.89ZM121.89 121.911V120.511H120.49V121.911H121.89ZM126.981 121.911H128.381V120.511H126.981V121.911ZM126.981 122.929H125.581V124.329H126.981V122.929ZM127.999 122.929H129.399V121.529H127.999V122.929ZM127.999 124.966V126.366H129.399V124.966H127.999ZM122.91 124.966V123.566H121.51V124.966H122.91ZM122.91 125.983H121.51V127.383H122.91V125.983ZM126.981 125.983H128.381V124.583H126.981V125.983ZM126.981 127V128.4H128.381V127H126.981ZM127.364 123.946V122.929H124.564V123.946H127.364ZM125.964 121.529H122.91V124.329H125.964V121.529ZM121.51 122.929V123.946H124.31V122.929H121.51ZM122.91 125.346H125.964V122.546H122.91V125.346ZM123.29 127V125.983H120.49V127H123.29ZM121.89 124.583H120.873V127.383H121.89V124.583ZM122.273 125.983V122.929H119.473V125.983H122.273ZM120.873 124.329H121.89V121.529H120.873V124.329ZM123.29 122.929V121.911H120.49V122.929H123.29ZM121.89 123.311H126.981V120.511H121.89V123.311ZM125.581 121.911V122.929H128.381V121.911H125.581ZM126.981 124.329H127.999V121.529H126.981V124.329ZM126.599 122.929V124.966H129.399V122.929H126.599ZM127.999 123.566H122.91V126.366H127.999V123.566ZM121.51 124.966V125.983H124.31V124.966H121.51ZM122.91 127.383H126.981V124.583H122.91V127.383ZM125.581 125.983V127H128.381V125.983H125.581ZM126.981 125.6H121.89V128.4H126.981V125.6Z" fill="#2A2900" mask="url(#path-23-outside-4_713_450)"/>
<rect x="68.6666" y="134" width="4" height="6" fill="#F1F5FF"/>
<path d="M53 226H52V238H63V232H61V231H63V226H61V225H53V226Z" fill="#2A2900"/>
<rect x="99" y="33" width="10" height="7" fill="white"/>
<rect x="87" y="33" width="9" height="7" fill="white"/>
<rect x="87" y="33" width="10" height="7" fill="white"/>
<rect x="74" y="28" width="3" height="12" fill="white"/>
<rect x="77" y="33" width="5" height="2" fill="white"/>
<rect x="82" y="28" width="3" height="12" fill="white"/>
<path fill-rule="evenodd" clip-rule="evenodd" d="M72 26H85H87V31H109H111V44H109V45H99V44H97V45H80V40H79V45H74H72V28V26ZM82 28H85V31V33V40H82V35H77V40H74V28H77V33H82V28ZM87 39V34H88V33H95V34H96V39H95V40H88V39H87ZM99 39V33H102V38H103V33H105V38H106V33H109V39H108V40H105V39H103V40H100V39H99ZM94 34H89V39H94V34Z" fill="#2A2900"/>
<path fill-rule="evenodd" clip-rule="evenodd" d="M116 26H130V28V31H141V32H143V43H141V45H130V43H128V35H127V40V45H122H120V35H118H116V28V26ZM141 39V34H139V33H132V34H130V35V39H132V40H139V39H141ZM125 30V35V40H122V35V30H118V28H128V30H125ZM138 34H133V39H138V34Z" fill="#2A2900"/>
<path fill-rule="evenodd" clip-rule="evenodd" d="M84 48H104V50V56H105V52H107H122V54V59H123V54V52H130V54V70H128V71H117V67H98V66H97V61H91V62V67H86H84V50V48ZM122 60H123H125V54H128V65H127V67H119V66V65H125V62H119V61H117V56V54H120V60H122ZM114 56H115V62H107V60H106V59V58H113V56H107V54H114V56ZM103 60H102V50H99V55V56V61H100V62H103V60ZM97 55V52H95V50H86V62H89V56H91H95V55H97ZM108 59H113V60H108V59ZM94 52H89V54H94V52Z" fill="#2A2900"/>
<path fill-rule="evenodd" clip-rule="evenodd" d="M69 110H47V112H44V114V134H46V136H48H67H69V134H71V114V112H69V110ZM67 134V132H69V114H67V112H48V114H46V132H48V134H67Z" fill="#2A2900"/>
<path d="M67 112H48V114H46V120H69V114H67V112Z" fill="#FFE380"/>
<path d="M69 132V120H46V132H48V134H67V132H69Z" fill="#FFD43E"/>
<path d="M61 117H53V128H56V123H59V128H62V123H61V121H62V119H61V117Z" fill="white"/>
<path fill-rule="evenodd" clip-rule="evenodd" d="M52 116H62V117V118H63V128V130H59H58V125H57V128V130H53H52V117V116ZM53 117H61V119H62V121H61V123H62V128H59V125V123H57H56V128H53V117ZM59 119H55V121H59V119Z" fill="#2A2900"/>
<path fill-rule="evenodd" clip-rule="evenodd" d="M60 171H55V172H54V177H55V180H54V182V184H60H61V180H60V172V171ZM56 172V173H55V175H56V181H55V182H60V181H59V172H56Z" fill="#2A2900"/>
<path d="M59 172H56V173H55V175H56V181H55V182H60V181H59V172Z" fill="white"/>
<path d="M53 229H54H55V228H59V230H54V231H53V236H62V234H59V235H55V231H60V230H62V227H60V226H54V227H53V229Z" fill="white"/>
<path d="M64 279H53V282H56V283H55V287H53V291H54V292H62V291H63V284H62V283H63V282H64V279Z" fill="#2A2900"/>
<path d="M63 280H54V281H59V282H58V283H57V284H56V285H60V289H56V288H54V289H55V290H61V289H62V285H61V284H60V283H61V282H62V281H63V280Z" fill="white"/>
<path d="M59 286H55V287H57V288H59V286Z" fill="#FFD43E"/>
<path d="M56 232H61V233H58V234H56V232Z" fill="#FFD43E"/>
</svg>
